SplineFontDB: 3.0
FontName: MerriweatherSans-BoldItalic
FullName: Merriweather Sans Bold Italic
FamilyName: Merriweather Sans
Weight: Bold
Copyright: Copyright (c) 2013, Sorkin Type Co (www.sorkintype.com) with Reserved Font Name 'Merriweather'
Version: 1.000
ItalicAngle: -7
UnderlinePosition: -88
UnderlineWidth: 201
Ascent: 1638
Descent: 410
LayerCount: 2
Layer: 0 1 "Back"  1
Layer: 1 1 "Fore"  0
NeedsXUIDChange: 1
XUID: [1021 631 1661839179 10134644]
FSType: 0
OS2Version: 3
OS2_WeightWidthSlopeOnly: 0
OS2_UseTypoMetrics: 1
CreationTime: 1367323920
ModificationTime: 1367308614
PfmFamily: 17
TTFWeight: 700
TTFWidth: 5
LineGap: 0
VLineGap: 0
Panose: 2 0 8 3 6 0 0 9 0 4
OS2TypoAscent: 376
OS2TypoAOffset: 1
OS2TypoDescent: -150
OS2TypoDOffset: 1
OS2TypoLinegap: 0
OS2WinAscent: 5
OS2WinAOffset: 1
OS2WinDescent: 0
OS2WinDOffset: 1
HheadAscent: 5
HheadAOffset: 1
HheadDescent: 0
HheadDOffset: 1
OS2SubXSize: 2726
OS2SubYSize: 2517
OS2SubXOff: 0
OS2SubYOff: 315
OS2SupXSize: 2726
OS2SupYSize: 2517
OS2SupXOff: 0
OS2SupYOff: 1468
OS2StrikeYSize: 102
OS2StrikeYPos: 512
OS2FamilyClass: 512
OS2Vendor: 'STC '
OS2CodePages: 20000093.00000000
OS2UnicodeRanges: a00000af.5000204b.00000000.00000000
Lookup: 1 0 0 "'aalt' Access All Alternates in Latin lookup 0"  {"'aalt' Access All Alternates in Latin lookup 0 subtable"  } ['aalt' ('DFLT' <'dflt' > 'latn' <'AZE ' 'CRT ' 'MOL ' 'ROM ' 'TRK ' 'dflt' > ) ]
Lookup: 3 0 0 "'aalt' Access All Alternates in Latin lookup 1"  {"'aalt' Access All Alternates in Latin lookup 1 subtable"  } ['aalt' ('DFLT' <'dflt' > 'latn' <'AZE ' 'CRT ' 'MOL ' 'ROM ' 'TRK ' 'dflt' > ) ]
Lookup: 1 0 0 "'locl' Localized Forms lookup 2"  {"'locl' Localized Forms lookup 2 subtable"  } ['locl' ('DFLT' <'AZE ' > ) ]
Lookup: 1 0 0 "'locl' Localized Forms lookup 3"  {"'locl' Localized Forms lookup 3 subtable"  } ['locl' ('DFLT' <'TRK ' > ) ]
Lookup: 4 0 0 "'locl' Localized Forms lookup 4"  {"'locl' Localized Forms lookup 4 subtable"  } ['locl' ('DFLT' <'TRK ' > ) ]

StartChar: .notdef
Encoding: 65536 -1 0
Width: 1872
Flags: HW
LayerCount: 2
Fore
SplineSet
221 1416 m 1,0,-1
 1637 1416 l 1,1,-1
 1637 0 l 1,2,-1
 221 0 l 1,3,-1
 221 1416 l 1,0,-1
579 219 m 1,4,-1
 926 587 l 1,5,-1
 1288 219 l 1,6,-1
 1410 341 l 1,7,-1
 1047 709 l 1,8,-1
 1410 1067 l 1,9,-1
 1282 1191 l 1,10,-1
 930 825 l 1,11,-1
 573 1193 l 1,12,-1
 450 1068 l 1,13,-1
 809 705 l 1,14,-1
 451 363 l 1,15,-1
 579 219 l 1,4,-1
EndSplineSet
EndChar

StartChar: numbersign
Encoding: 35 35 4
Width: 1405
Flags: HW
LayerCount: 2
Fore
SplineSet
304 343 m 1,0,-1
 110 343 l 1,1,-1
 124 521 l 1,2,-1
 330 521 l 1,3,-1
 387 874 l 1,4,-1
 187 874 l 1,5,-1
 200 1048 l 1,6,-1
 412 1048 l 1,7,-1
 462 1357 l 1,8,-1
 667 1357 l 1,9,-1
 619 1048 l 1,10,-1
 890 1048 l 1,11,-1
 943 1357 l 1,12,-1
 1148 1357 l 1,13,-1
 1097 1048 l 1,14,-1
 1309 1048 l 1,15,-1
 1296 874 l 1,16,-1
 1072 874 l 1,17,-1
 1014 521 l 1,18,-1
 1221 521 l 1,19,-1
 1207 343 l 1,20,-1
 988 343 l 1,21,-1
 932 0 l 1,22,-1
 732 0 l 1,23,-1
 782 343 l 1,24,-1
 510 343 l 1,25,-1
 449 0 l 1,26,-1
 247 0 l 1,27,-1
 304 343 l 1,0,-1
808 521 m 1,28,-1
 865 874 l 1,29,-1
 594 874 l 1,30,-1
 536 521 l 1,31,-1
 808 521 l 1,28,-1
EndSplineSet
EndChar

StartChar: ampersand
Encoding: 38 38 5
Width: 1550
Flags: HW
LayerCount: 2
Fore
SplineSet
975 41 m 1,0,1
 821 -17 821 -17 663.5 -17 c 128,-1,2
 506 -17 506 -17 400.5 4.5 c 128,-1,3
 295 26 295 26 217 72 c 0,4,5
 50 170.487 50 170.487 50 365 c 0,6,7
 50 558.645 50 558.645 256.5 702 c 0,8,9
 317 744 317 744 383 781 c 1,10,11
 299 963 299 963 299 1118 c 0,12,13
 299 1303.08 299 1303.08 420.5 1422.5 c 0,14,15
 546.148 1546 546.148 1546 753 1546 c 256,16,17
 945 1546 945 1546 1048 1443 c 0,18,19
 1133 1358 1133 1358 1133 1251.5 c 128,-1,20
 1133 1145 1133 1145 1094.5 1071.5 c 128,-1,21
 1056 998 1056 998 994.5 938.5 c 128,-1,22
 933 879 933 879 855 830 c 1,23,24
 698 736 l 1,25,26
 855.53 474.222 855.53 474.222 1027 315 c 1,27,28
 1102 405 1102 405 1102 532 c 0,29,30
 1102 581.8 1102 581.8 1090 637 c 1,31,32
 1022.43 630.665 1022.43 630.665 989 611 c 1,33,-1
 999 790 l 1,34,35
 1034 830 1034 830 1151 830 c 2,36,-1
 1518 829 l 1,37,-1
 1504 639 l 1,38,-1
 1353 639 l 1,39,40
 1356 615 1356 615 1356 586 c 0,41,42
 1356 345.292 1356 345.292 1205 188 c 1,43,44
 1292.06 151 1292.06 151 1427.5 151 c 2,45,-1
 1457 151 l 1,46,-1
 1426 1 l 1,47,48
 1361.4 -18 1361.4 -18 1227.2 -18 c 128,-1,49
 1093 -18 1093 -18 975 41 c 1,0,1
607 902 m 1,50,51
 739.84 975.536 739.84 975.536 787.42 1023.77 c 0,52,53
 878 1115.59 878 1115.59 878 1198.79 c 0,54,55
 878 1370 878 1370 730 1370 c 0,56,57
 651.016 1370 651.016 1370 601 1301.5 c 0,58,59
 554 1237.13 554 1237.13 554 1154.07 c 0,60,61
 554 1023.9 554 1023.9 607 902 c 1,50,51
480 607 m 1,62,63
 325 499.174 325 499.174 325 382 c 0,64,65
 325 269.4 325 269.4 424 215.5 c 0,66,67
 505.735 171 505.735 171 649 171 c 0,68,69
 729 171 729 171 799 187 c 1,70,71
 647.916 335.479 647.916 335.479 546 499.5 c 1,72,-1
 480 607 l 1,62,63
EndSplineSet
EndChar

StartChar: quotesingle
Encoding: 39 39 6
Width: 544
Flags: HW
LayerCount: 2
Fore
SplineSet
301 1687 m 1,0,-1
 578 1687 l 1,1,-1
 404 966 l 1,2,-1
 220 966 l 1,3,-1
 301 1687 l 1,0,-1
EndSplineSet
EndChar

StartChar: parenleft
Encoding: 40 40 7
Width: 854
Flags: HW
LayerCount: 2
Fore
SplineSet
186.5 285.5 m 0,0,1
 167 394 167 394 167 492.5 c 0,2,3
 167 813.54 167 813.54 251.5 1051.5 c 0,4,5
 366.268 1374.7 366.268 1374.7 591.5 1607.5 c 0,6,7
 698.861 1718.47 698.861 1718.47 786 1766 c 1,8,-1
 919 1677 l 1,9,10
 634.116 1415.86 634.116 1415.86 506 1021.5 c 0,11,12
 474 923 474 923 458.5 833 c 0,13,14
 430 667.516 430 667.516 430 513.258 c 128,-1,15
 430 359 430 359 456.5 234 c 128,-1,16
 483 109 483 109 520.5 13.5 c 0,17,18
 582.363 -144.045 582.363 -144.045 674 -250 c 1,19,-1
 532 -335 l 1,20,-1
 515 -335 l 1,21,22
 402.514 -246.967 402.514 -246.967 306 -72.5 c 0,23,24
 224.297 75.194 224.297 75.194 186.5 285.5 c 0,0,1
EndSplineSet
EndChar

StartChar: asterisk
Encoding: 42 42 9
Width: 1366
Flags: HW
LayerCount: 2
Fore
SplineSet
635 925 m 1,0,-1
 670 1066 l 1,1,-1
 554 975 l 1,2,-1
 284 787 l 1,3,-1
 192 976 l 1,4,-1
 495 1099 l 1,5,-1
 631 1150 l 1,6,-1
 506 1200 l 1,7,-1
 229 1325 l 1,8,-1
 351 1512 l 1,9,-1
 589 1325 l 1,10,-1
 688 1237 l 1,11,-1
 682 1376 l 1,12,-1
 679 1687 l 1,13,-1
 894 1687 l 1,14,-1
 826 1376 l 1,15,-1
 788 1237 l 1,16,-1
 909 1325 l 1,17,-1
 1183 1513 l 1,18,-1
 1270 1325 l 1,19,-1
 967 1200 l 1,20,-1
 832 1149 l 1,21,-1
 957 1099 l 1,22,-1
 1234 976 l 1,23,-1
 1101 789 l 1,24,-1
 872 975 l 1,25,-1
 770 1066 l 1,26,-1
 781 925 l 1,27,-1
 788 613 l 1,28,-1
 567 614 l 1,29,-1
 635 925 l 1,0,-1
EndSplineSet
EndChar

StartChar: plus
Encoding: 43 43 10
Width: 1359
Flags: HW
LayerCount: 2
Fore
SplineSet
556 531 m 1,0,-1
 581 681 l 1,1,-1
 449 674 l 1,2,-1
 212 674 l 1,3,-1
 238 884 l 1,4,-1
 476 884 l 1,5,-1
 603 873 l 1,6,-1
 614 1025 l 1,7,-1
 643 1280 l 1,8,-1
 868 1280 l 1,9,-1
 842 1025 l 1,10,-1
 815 874 l 1,11,-1
 921 884 l 1,12,-1
 1186 884 l 1,13,-1
 1160 674 l 1,14,-1
 895 674 l 1,15,-1
 791 681 l 1,16,-1
 783 531 l 1,17,-1
 752 273 l 1,18,-1
 526 273 l 1,19,-1
 556 531 l 1,0,-1
EndSplineSet
EndChar

StartChar: comma
Encoding: 44 44 11
Width: 526
Flags: HW
LayerCount: 2
Fore
SplineSet
61 122 m 1,0,-1
 192 280 l 1,1,2
 296.312 239.739 296.312 239.739 347.5 138.5 c 0,3,4
 388 58.4 388 58.4 388 -30.3 c 128,-1,5
 388 -119 388 -119 364.5 -194.5 c 128,-1,6
 341 -270 341 -270 298.5 -331.5 c 0,7,8
 209.912 -459.692 209.912 -459.692 61 -510 c 1,9,-1
 -22 -402 l 1,10,-1
 -19 -381 l 1,11,12
 94.5652 -324.217 94.5652 -324.217 133 -194.5 c 0,13,14
 145 -154 145 -154 145 -117 c 128,-1,15
 145 -80 145 -80 138 -50 c 128,-1,16
 131 -20 131 -20 118.5 4 c 0,17,18
 92.5672 53.791 92.5672 53.791 54 68 c 1,19,-1
 61 122 l 1,0,-1
EndSplineSet
EndChar

StartChar: period
Encoding: 46 46 12
Width: 526
Flags: HW
LayerCount: 2
Fore
SplineSet
98 11 m 128,-1,1
 60 48 60 48 60 95.5 c 128,-1,2
 60 143 60 143 72.5 177 c 128,-1,3
 85 211 85 211 109 237 c 0,4,5
 161.615 294 161.615 294 242 294 c 0,6,7
 348.809 294 348.809 294 374.5 213.5 c 0,8,9
 382 190 382 190 382 164 c 0,10,11
 382 76 382 76 332 25 c 128,-1,12
 282 -26 282 -26 209 -26 c 128,-1,0
 136 -26 136 -26 98 11 c 128,-1,1
EndSplineSet
EndChar

StartChar: slash
Encoding: 47 47 13
Width: 854
Flags: HW
LayerCount: 2
Fore
SplineSet
-118 -362 m 1,0,-1
 744 1597 l 1,1,-1
 968 1597 l 1,2,-1
 105 -362 l 1,3,-1
 -118 -362 l 1,0,-1
EndSplineSet
EndChar

StartChar: zero
Encoding: 48 48 14
Width: 1278
Flags: HW
LayerCount: 2
Fore
SplineSet
123.5 275 m 128,-1,1
 98 359 98 359 98 455 c 128,-1,2
 98 551 98 551 121 642.5 c 128,-1,3
 144 734 144 734 186 812.5 c 128,-1,4
 228 891 228 891 287 954.5 c 128,-1,5
 346 1018 346 1018 416.5 1062.5 c 0,6,7
 564.629 1156 564.629 1156 734 1156 c 0,8,9
 956.36 1156 956.36 1156 1068.5 1022.5 c 0,10,11
 1170 901.667 1170 901.667 1170 691 c 0,12,13
 1170 404.593 1170 404.593 990.5 196.5 c 0,14,15
 875.688 63.3991 875.688 63.3991 712 10.5 c 0,16,17
 630 -16 630 -16 526.5 -16 c 128,-1,18
 423 -16 423 -16 340 23 c 128,-1,19
 257 62 257 62 203 126.5 c 128,-1,0
 149 191 149 191 123.5 275 c 128,-1,1
369 472 m 0,20,21
 369 420 369 420 382 369 c 128,-1,22
 395 318 395 318 421 279.5 c 0,23,24
 477.39 196 477.39 196 569.695 196 c 128,-1,25
 662 196 662 196 723 238 c 128,-1,26
 784 280 784 280 823 347 c 0,27,28
 900 479.282 900 479.282 900 661 c 0,29,30
 900 946.044 900 946.044 703.164 946.044 c 0,31,32
 529.316 946.044 529.316 946.044 441 783 c 0,33,34
 369 650.077 369 650.077 369 472 c 0,20,21
EndSplineSet
EndChar

StartChar: one
Encoding: 49 49 15
Width: 983
Flags: HW
LayerCount: 2
Fore
SplineSet
434 847 m 1,0,1
 351.774 821.481 351.774 821.481 297.387 812.741 c 128,-1,2
 243 804 243 804 210 798 c 1,3,-1
 179 960 l 1,4,5
 328.32 994.458 328.32 994.458 505 1104 c 1,6,-1
 595 1162 l 1,7,-1
 757 1147 l 1,8,-1
 592 0 l 1,9,-1
 313 0 l 1,10,-1
 434 847 l 1,0,1
EndSplineSet
Substitution2: "'sups' Superscript in Latin lookup 11 subtable" onesuperior
EndChar

StartChar: two
Encoding: 50 50 16
Width: 1269
Flags: HW
LayerCount: 2
Fore
SplineSet
57 136 m 1,0,1
 352.712 288.625 352.712 288.625 550 462 c 0,2,3
 764 650.061 764 650.061 764 786 c 0,4,5
 764 938 764 938 603 938 c 0,6,7
 491.562 938 491.562 938 352.5 849 c 0,8,9
 315 825 315 825 287 801 c 1,10,-1
 191 952 l 1,11,12
 312.223 1081.3 312.223 1081.3 514.5 1138.5 c 0,13,14
 587 1159 587 1159 679 1159 c 128,-1,15
 771 1159 771 1159 847 1131 c 128,-1,16
 923 1103 923 1103 972.5 1056.5 c 0,17,18
 1069 965.849 1069 965.849 1069 823 c 0,19,20
 1069 546.44 1069 546.44 688 310.5 c 0,21,22
 579 243 579 243 464 183 c 1,23,-1
 1125 213 l 1,24,-1
 1089 0 l 1,25,-1
 96 0 l 1,26,-1
 57 136 l 1,0,1
EndSplineSet
Substitution2: "'sups' Superscript in Latin lookup 11 subtable" twosuperior
EndChar

StartChar: three
Encoding: 51 51 17
Width: 1136
Flags: HW
LayerCount: 2
Fore
SplineSet
70 -116 m 1,0,1
 144 -126 144 -126 225 -126 c 128,-1,2
 306 -126 306 -126 391.5 -107 c 128,-1,3
 477 -88 477 -88 538.5 -51 c 0,4,5
 668 26.9106 668 26.9106 668 165 c 0,6,7
 668 296.636 668 296.636 546 341 c 0,8,9
 502 357 502 357 438 358 c 1,10,-1
 274 322 l 1,11,-1
 296 536 l 1,12,13
 557.148 578.245 557.148 578.245 654 702 c 0,14,15
 690 748 690 748 690 809 c 0,16,17
 690 936 690 936 525 936 c 0,18,19
 381.286 936 381.286 936 236 823 c 1,20,-1
 156 1000 l 1,21,22
 260.177 1100.01 260.177 1100.01 465 1143.5 c 0,23,24
 538 1159 538 1159 614 1159 c 128,-1,25
 690 1159 690 1159 756 1142 c 128,-1,26
 822 1125 822 1125 872 1089.5 c 0,27,28
 982 1011.4 982 1011.4 982 873 c 0,29,30
 982 740 982 740 877 627.5 c 0,31,32
 774.632 517.82 774.632 517.82 618 469 c 1,33,34
 783.384 465.109 783.384 465.109 881 374 c 0,35,36
 973 288.133 973 288.133 973 169.567 c 128,-1,37
 973 51 973 51 911.5 -40.5 c 128,-1,38
 850 -132 850 -132 745 -196 c 0,39,40
 530.078 -327 530.078 -327 209 -327 c 0,41,42
 139 -327 139 -327 45 -315 c 1,43,-1
 70 -116 l 1,0,1
EndSplineSet
Substitution2: "'sups' Superscript in Latin lookup 11 subtable" threesuperior
EndChar

StartChar: four
Encoding: 52 52 18
Width: 1284
Flags: HW
LayerCount: 2
Fore
SplineSet
11 129 m 1,0,1
 326.5 676.5 l 1,2,3
 540.535 1062.86 540.535 1062.86 639 1256 c 1,4,-1
 811 1256 l 1,5,-1
 923 1167 l 1,6,-1
 370 282 l 1,7,-1
 291 177 l 1,8,-1
 701 194 l 1,9,-1
 756 614 l 1,10,-1
 1014 649 l 1,11,-1
 959 203 l 1,12,-1
 1185 218 l 1,13,-1
 1156 0 l 1,14,-1
 931 0 l 1,15,-1
 884 -375 l 1,16,-1
 625 -375 l 1,17,-1
 674 0 l 1,18,-1
 68 0 l 1,19,-1
 11 129 l 1,0,1
EndSplineSet
EndChar

StartChar: five
Encoding: 53 53 19
Width: 1146
Flags: HW
LayerCount: 2
Fore
SplineSet
70 -153 m 1,0,1
 110.25 -160 110.25 -160 160.625 -160 c 128,-1,2
 211 -160 211 -160 275 -151.5 c 128,-1,3
 339 -143 339 -143 399.5 -125.5 c 128,-1,4
 460 -108 460 -108 513.5 -80.5 c 128,-1,5
 567 -53 567 -53 607 -14.5 c 0,6,7
 693 68.275 693 68.275 693 186 c 0,8,9
 693 402 693 402 474 402 c 0,10,11
 345.636 402 345.636 402 230 349 c 1,12,-1
 131 454 l 1,13,-1
 288 1143 l 1,14,-1
 855 1143 l 1,15,-1
 877 1159 l 1,16,-1
 1065 1159 l 1,17,-1
 1005 921 l 1,18,-1
 498 921 l 1,19,-1
 401 561 l 1,20,21
 502.333 593 502.333 593 624 593 c 0,22,23
 805 593 805 593 904.5 499.5 c 128,-1,24
 1004 406 1004 406 1004 225 c 0,25,26
 1004 -38.3884 1004 -38.3884 765 -199.5 c 0,27,28
 532.841 -356 532.841 -356 170 -356 c 0,29,30
 91 -356 91 -356 40 -339 c 1,31,-1
 70 -153 l 1,0,1
EndSplineSet
EndChar

StartChar: six
Encoding: 54 54 20
Width: 1278
Flags: HW
LayerCount: 2
Fore
SplineSet
155 301.5 m 128,-1,1
 128 396 128 396 128 512.5 c 128,-1,2
 128 629 128 629 157.5 750 c 128,-1,3
 187 871 187 871 242.5 981.5 c 128,-1,4
 298 1092 298 1092 376.5 1189.5 c 128,-1,5
 455 1287 455 1287 552.5 1367 c 0,6,7
 753.866 1532.22 753.866 1532.22 1009 1598 c 1,8,-1
 1071 1435 l 1,9,10
 857.975 1360.25 857.975 1360.25 686.5 1199 c 0,11,12
 536.877 1058.29 536.877 1058.29 487 920 c 1,13,14
 607.9 1013 607.9 1013 798 1013 c 0,15,16
 975.248 1013 975.248 1013 1070 888.5 c 0,17,18
 1153 779.442 1153 779.442 1153 606 c 0,19,20
 1153 363.138 1153 363.138 1015 185.5 c 0,21,22
 918.08 60.7418 918.08 60.7418 760 10 c 0,23,24
 679 -16 679 -16 571 -16 c 128,-1,25
 463 -16 463 -16 378 25 c 128,-1,26
 293 66 293 66 237.5 136.5 c 128,-1,0
 182 207 182 207 155 301.5 c 128,-1,1
422 699 m 1,27,28
 391 587.4 391 587.4 391 508.2 c 128,-1,29
 391 429 391 429 405.5 369 c 128,-1,30
 420 309 420 309 448.5 265 c 0,31,32
 508.739 172 508.739 172 617 172 c 0,33,34
 791.8 172 791.8 172 860.5 401 c 0,35,36
 886 486 886 486 886 562.5 c 128,-1,37
 886 639 886 639 871 684 c 128,-1,38
 856 729 856 729 830.5 758 c 0,39,40
 781.259 814 781.259 814 712.129 814 c 128,-1,41
 643 814 643 814 598 802 c 128,-1,42
 553 790 553 790 518 772 c 0,43,44
 458.945 741.629 458.945 741.629 422 699 c 1,27,28
EndSplineSet
EndChar

StartChar: seven
Encoding: 55 55 21
Width: 1116
Flags: HW
LayerCount: 2
Fore
SplineSet
782 928 m 1,0,-1
 89 926 l 1,1,-1
 138 1143 l 1,2,-1
 1060 1143 l 1,3,-1
 1101 1089 l 1,4,-1
 487 -335 l 1,5,-1
 249 -248 l 1,6,-1
 782 928 l 1,0,-1
EndSplineSet
EndChar

StartChar: eight
Encoding: 56 56 22
Width: 1330
Flags: HW
LayerCount: 2
Fore
SplineSet
494 796 m 1,0,1
 309 952.538 309 952.538 309 1136 c 0,2,3
 309 1333.72 309 1333.72 445.5 1448 c 0,4,5
 578.083 1559 578.083 1559 796 1559 c 0,6,7
 978.103 1559 978.103 1559 1098 1467.5 c 0,8,9
 1219 1375.16 1219 1375.16 1219 1225 c 0,10,11
 1219 1073.67 1219 1073.67 1115 957.5 c 0,12,13
 1024.8 856.743 1024.8 856.743 883 808 c 1,14,15
 1010.14 712.644 1010.14 712.644 1057.57 648.322 c 0,16,17
 1149 524.329 1149 524.329 1149 414.664 c 128,-1,18
 1149 305 1149 305 1106.5 226.5 c 128,-1,19
 1064 148 1064 148 989.5 93.5 c 0,20,21
 837.083 -18 837.083 -18 598 -18 c 0,22,23
 400.613 -18 400.613 -18 267.5 76.5 c 0,24,25
 125 177.664 125 177.664 125 351 c 0,26,27
 125 509.618 125 509.618 237 631.5 c 0,28,29
 332.515 735.443 332.515 735.443 494 796 c 1,0,1
766 897 m 1,30,31
 904.539 969.568 904.539 969.568 949.5 1103 c 0,32,33
 965 1149 965 1149 965 1199 c 128,-1,34
 965 1249 965 1249 949.5 1284 c 128,-1,35
 934 1319 934 1319 908 1342.5 c 0,36,37
 855.447 1390 855.447 1390 792.723 1390 c 128,-1,38
 730 1390 730 1390 692.5 1373 c 128,-1,39
 655 1356 655 1356 629 1326.5 c 0,40,41
 574 1264.1 574 1264.1 574 1169 c 0,42,43
 574 1058.86 574 1058.86 689.5 958 c 0,44,45
 725 927 725 927 766 897 c 1,30,31
608 707 m 1,46,47
 401.59 589.052 401.59 589.052 398 388 c 1,48,49
 398 287.723 398 287.723 467.5 222.5 c 0,50,51
 536.229 158 536.229 158 635 158 c 0,52,53
 737.825 158 737.825 158 801.5 217.5 c 128,-1,54
 865 276.836 865 276.836 865 372 c 0,55,56
 865 501.147 865 501.147 710.5 628 c 0,57,58
 663 667 663 667 608 707 c 1,46,47
EndSplineSet
EndChar

StartChar: nine
Encoding: 57 57 23
Width: 1278
Flags: HW
LayerCount: 2
Fore
SplineSet
787 219 m 1,0,1
 667.769 126 667.769 126 506 126 c 0,2,3
 321.105 126 321.105 126 215 252 c 0,4,5
 120 364.812 120 364.812 120 538 c 0,6,7
 120 780.862 120 780.862 258 958.5 c 0,8,9
 354.587 1082.83 354.587 1082.83 514 1134 c 0,10,11
 595 1160 595 1160 702.5 1160 c 128,-1,12
 810 1160 810 1160 895 1119 c 128,-1,13
 980 1078 980 1078 1035.5 1007.5 c 0,14,15
 1145 868.405 1145 868.405 1145 641 c 0,16,17
 1145 263.229 1145 263.229 896.5 -47 c 0,18,19
 736.793 -246.379 736.793 -246.379 507.5 -364.5 c 0,20,21
 392 -424 392 -424 264 -457 c 1,22,-1
 203 -294 l 1,23,24
 417.18 -218.849 417.18 -218.849 586.5 -58.5 c 0,25,26
 739.006 85.9265 739.006 85.9265 787 219 c 1,0,1
511.5 339 m 128,-1,28
 548 325 548 325 595 325 c 128,-1,29
 642 325 642 325 684.5 337.5 c 128,-1,30
 727 350 727 350 760 367.5 c 0,31,32
 813.972 396.122 813.972 396.122 852 440 c 1,33,34
 883 564 883 564 883 639.5 c 128,-1,35
 883 715 883 715 868.5 775 c 128,-1,36
 854 835 854 835 825 879 c 0,37,38
 763.705 972 763.705 972 656 972 c 0,39,40
 481.2 972 481.2 972 412.5 743 c 0,41,42
 387 658 387 658 387 581 c 128,-1,43
 387 504 387 504 403 458 c 128,-1,44
 419 412 419 412 447 382.5 c 128,-1,27
 475 353 475 353 511.5 339 c 128,-1,28
EndSplineSet
EndChar

StartChar: less
Encoding: 60 60 26
Width: 1382
Flags: HW
LayerCount: 2
Fore
SplineSet
213 822 m 1,0,-1
 1232 1337 l 1,1,-1
 1202 1085 l 1,2,-1
 503 747 l 1,3,-1
 1119 408 l 1,4,-1
 1096 178 l 1,5,-1
 197 693 l 1,6,-1
 213 822 l 1,0,-1
EndSplineSet
EndChar

StartChar: equal
Encoding: 61 61 27
Width: 1074
Flags: HW
LayerCount: 2
Fore
SplineSet
191 1031 m 1,0,-1
 1019 1031 l 1,1,-1
 991 828 l 1,2,-1
 164 828 l 1,3,-1
 191 1031 l 1,0,-1
129 530 m 1,4,-1
 956 530 l 1,5,-1
 929 327 l 1,6,-1
 101 327 l 1,7,-1
 129 530 l 1,4,-1
EndSplineSet
EndChar

StartChar: question
Encoding: 63 63 29
Width: 1040
Flags: HW
LayerCount: 2
Fore
SplineSet
354 464 m 1,0,1
 285.469 515.398 285.469 515.398 256 630 c 0,2,3
 247 665 247 665 247 705 c 128,-1,4
 247 745 247 745 261.5 783 c 128,-1,5
 276 821 276 821 308 857 c 0,6,7
 368.826 925.43 368.826 925.43 518 1003 c 1,8,9
 742.081 1110.56 742.081 1110.56 775 1202 c 1,10,11
 791 1262.8 791 1262.8 791 1317.4 c 128,-1,12
 791 1372 791 1372 766 1419.5 c 128,-1,13
 741 1467 741 1467 697.5 1500 c 0,14,15
 606.545 1569 606.545 1569 472 1569 c 0,16,17
 353.882 1569 353.882 1569 260 1541 c 1,18,-1
 302 1726 l 1,19,20
 340.332 1761.14 340.332 1761.14 449.5 1775 c 0,21,22
 481 1779 481 1779 511 1779 c 0,23,24
 779.706 1779 779.706 1779 919 1649.5 c 0,25,26
 1042 1535.15 1042 1535.15 1042 1348 c 0,27,28
 1042 1117.12 1042 1117.12 863 985.5 c 0,29,30
 812 948 812 948 758.5 917.5 c 1,31,-1
 654 860.5 l 1,32,33
 543.525 803.097 543.525 803.097 499.5 742 c 0,34,35
 475 708 475 708 475 675 c 128,-1,36
 475 642 475 642 480.5 621 c 128,-1,37
 486 600 486 600 493.5 581.5 c 2,38,-1
 508 547 l 2,39,40
 515 531 515 531 518 521 c 1,41,-1
 371 463 l 1,42,-1
 354 464 l 1,0,1
369 11 m 128,-1,44
 331 48 331 48 331 95.5 c 128,-1,45
 331 143 331 143 343.5 177 c 128,-1,46
 356 211 356 211 380 237 c 0,47,48
 432.615 294 432.615 294 513 294 c 0,49,50
 619.809 294 619.809 294 645.5 213.5 c 0,51,52
 653 190 653 190 653 164 c 0,53,54
 653 76 653 76 603 25 c 128,-1,55
 553 -26 553 -26 480 -26 c 128,-1,43
 407 -26 407 -26 369 11 c 128,-1,44
EndSplineSet
EndChar

StartChar: at
Encoding: 64 64 30
Width: 1998
Flags: HW
LayerCount: 2
Fore
SplineSet
172.5 28.5 m 128,-1,1
 112 180 112 180 112 367.5 c 128,-1,2
 112 555 112 555 151 712 c 128,-1,3
 190 869 190 869 260.5 999 c 128,-1,4
 331 1129 331 1129 431 1231 c 128,-1,5
 531 1333 531 1333 652.5 1402.5 c 0,6,7
 901.619 1545 901.619 1545 1206 1545 c 0,8,9
 1533.79 1545 1533.79 1545 1726.5 1370 c 0,10,11
 1918 1196.1 1918 1196.1 1918 899 c 0,12,13
 1918 500.659 1918 500.659 1709.5 243 c 0,14,15
 1587.58 92.3304 1587.58 92.3304 1435.5 37.5 c 0,16,17
 1362 11 1362 11 1311.5 11 c 128,-1,18
 1261 11 1261 11 1240.5 25 c 128,-1,19
 1220 39 1220 39 1208.5 64 c 0,20,21
 1188 108.565 1188 108.565 1188 169.283 c 0,22,23
 1188 265.4 1188 265.4 1200 371 c 1,24,25
 1090.12 112.468 1090.12 112.468 939 34 c 0,26,27
 887 7 887 7 834 7 c 128,-1,28
 781 7 781 7 728 32.5 c 0,29,30
 615.48 86.637 615.48 86.637 563.5 246.5 c 0,31,32
 538.86 322.281 538.86 322.281 538.86 423.566 c 0,33,34
 538.86 687.597 538.86 687.597 680 885.5 c 0,35,36
 775.555 1019.48 775.555 1019.48 924.5 1074 c 0,37,38
 1001 1102 1001 1102 1058 1102 c 128,-1,39
 1115 1102 1115 1102 1144 1099 c 128,-1,40
 1173 1096 1173 1096 1203.5 1089.5 c 0,41,42
 1278.18 1073.58 1278.18 1073.58 1314 1048 c 1,43,-1
 1494 1078 l 1,44,45
 1443.68 886.774 1443.68 886.774 1395 400 c 2,46,-1
 1388.5 335.5 l 2,47,48
 1384 289.6 1384 289.6 1384 267.8 c 2,49,-1
 1384 231 l 2,50,51
 1384 204 1384 204 1397 204 c 0,52,53
 1474.35 204 1474.35 204 1550 304.5 c 0,54,55
 1662.19 453.55 1662.19 453.55 1701.5 702 c 0,56,57
 1714 781 1714 781 1714 897.5 c 128,-1,58
 1714 1014 1714 1014 1669.5 1115 c 128,-1,59
 1625 1216 1625 1216 1549 1275 c 0,60,61
 1412.46 1381 1412.46 1381 1161 1381 c 0,62,63
 908.007 1381 908.007 1381 706.5 1236 c 0,64,65
 519.321 1101.31 519.321 1101.31 413.5 875 c 0,66,67
 310 653.653 310 653.653 310 408 c 0,68,69
 310 -42.9784 310 -42.9784 628.5 -196.5 c 0,70,71
 762.313 -261 762.313 -261 937 -261 c 0,72,73
 1093.28 -261 1093.28 -261 1236.5 -214.5 c 0,74,75
 1275 -202 1275 -202 1299 -190 c 1,76,-1
 1345 -324 l 1,77,78
 1235.9 -405.047 1235.9 -405.047 1044.5 -431.5 c 0,79,80
 983 -440 983 -440 919 -440 c 0,81,82
 560.668 -440 560.668 -440 340.5 -227 c 0,83,0
 233 -123 233 -123 172.5 28.5 c 128,-1,1
776 466 m 0,84,85
 776 228 776 228 884 228 c 0,86,87
 966.139 228 966.139 228 1087 471.5 c 0,88,89
 1198.76 696.657 1198.76 696.657 1222 866 c 1,90,91
 1190.37 908.172 1190.37 908.172 1108.5 921.5 c 0,92,93
 1087 925 1087 925 1054 925 c 128,-1,94
 1021 925 1021 925 980.5 904.5 c 128,-1,95
 940 884 940 884 907.5 849 c 128,-1,96
 875 814 875 814 850.5 768 c 128,-1,97
 826 722 826 722 809.5 671 c 0,98,99
 776 567.455 776 567.455 776 466 c 0,84,85
EndSplineSet
EndChar

StartChar: A
Encoding: 65 65 31
Width: 1305
Flags: HW
LayerCount: 2
Fore
SplineSet
644 1530 m 1,0,-1
 978 1530 l 1,1,-1
 1235 0 l 1,2,-1
 958 -1 l 1,3,-1
 910 341 l 1,4,-1
 349 341 l 1,5,-1
 201 0 l 1,6,-1
 -100 -1 l 1,7,-1
 644 1530 l 1,0,-1
882 537 m 1,8,-1
 787 1219 l 1,9,-1
 777 1337 l 1,10,-1
 730 1216 l 1,11,-1
 434 537 l 1,12,-1
 882 537 l 1,8,-1
EndSplineSet
EndChar

StartChar: B
Encoding: 66 66 32
Width: 1296
Flags: HW
LayerCount: 2
Fore
SplineSet
297 1530 m 1,0,-1
 438 1530 l 1,1,2
 510 1531 510 1531 585.5 1538.5 c 128,-1,3
 661 1546 661 1546 769.5 1546 c 128,-1,4
 878 1546 878 1546 970 1518 c 128,-1,5
 1062 1490 1062 1490 1117 1443.5 c 0,6,7
 1218 1358.11 1218 1358.11 1218 1208 c 0,8,9
 1218.05 1204.29 1218.05 1204.29 1218.05 1165.58 c 128,-1,10
 1218.05 1126.88 1218.05 1126.88 1198.52 1062.94 c 128,-1,11
 1179 999 1179 999 1140 947.5 c 0,12,13
 1058.94 840.465 1058.94 840.465 915 803 c 1,14,15
 1116.88 768.302 1116.88 768.302 1182 605.5 c 0,16,17
 1203 553 1203 553 1203.01 520.192 c 2,18,-1
 1203.02 484.784 l 2,19,20
 1203.02 227.717 1203.02 227.717 1009 101.5 c 0,21,22
 829.917 -15 829.917 -15 495 -15 c 0,23,24
 465 -15 465 -15 428 -12.5 c 2,25,-1
 278 -2.5 l 2,26,27
 242 0 242 0 215 0 c 2,28,-1
 91 0 l 1,29,-1
 297 1530 l 1,0,-1
486 886 m 1,30,31
 518 884 518 884 552 884 c 2,32,-1
 617 884 l 2,33,34
 846.836 884 846.836 884 915 1047 c 0,35,36
 937.042 1099.71 937.042 1099.71 937.042 1170.78 c 0,37,38
 937.042 1272.68 937.042 1272.68 874.021 1313.34 c 128,-1,39
 811 1354 811 1354 685 1354 c 0,40,41
 596 1354 596 1354 548 1348 c 1,42,-1
 486 886 l 1,30,31
393 192 m 1,43,44
 441 180 441 180 531.5 180 c 128,-1,45
 622 180 622 180 690.5 193.5 c 0,46,47
 910.036 236.766 910.036 236.766 910.036 464.966 c 0,48,49
 910.036 591.574 910.036 591.574 835.518 643.787 c 128,-1,50
 761 696 761 696 616 696 c 0,51,52
 522.5 696 522.5 696 460 691 c 1,53,-1
 393 192 l 1,43,44
EndSplineSet
EndChar

StartChar: C
Encoding: 67 67 33
Width: 1167
Flags: HW
LayerCount: 2
Fore
SplineSet
782 -2.5 m 0,0,1
 708 -16 708 -16 613.5 -16 c 128,-1,2
 519 -16 519 -16 442 9.5 c 128,-1,3
 365 35 365 35 307 80.5 c 128,-1,4
 249 126 249 126 209 187.5 c 128,-1,5
 169 249 169 249 144 320 c 0,6,7
 94.9615 459.269 94.9615 459.269 94.9615 610.423 c 128,-1,8
 94.9615 761.577 94.9615 761.577 119.481 878.288 c 128,-1,9
 144 995 144 995 191.5 1097 c 128,-1,10
 239 1199 239 1199 307.5 1282 c 128,-1,11
 376 1365 376 1365 461 1423.5 c 0,12,13
 638.991 1546 638.991 1546 856 1546 c 0,14,15
 992.947 1546 992.947 1546 1091 1511.5 c 2,16,-1
 1141 1494 l 1,17,-1
 1195 1478 l 1,18,-1
 1109 1228 l 1,19,-1
 1072.5 1253 l 1,20,21
 981 1314 981 1314 834 1314 c 0,22,23
 596.306 1314 596.306 1314 475.5 1086 c 0,24,25
 376.909 899.927 376.909 899.927 376.909 650.492 c 0,26,27
 376.909 326.926 376.909 326.926 545.5 237.5 c 0,28,29
 603 207 603 207 672 207 c 128,-1,30
 741 207 741 207 794 217.5 c 128,-1,31
 847 228 847 228 890.5 243.5 c 0,32,33
 972.459 272.704 972.459 272.704 1016 306 c 1,34,-1
 1054 98 l 1,35,36
 971.615 32.0919 971.615 32.0919 782 -2.5 c 0,0,1
EndSplineSet
EndChar

StartChar: D
Encoding: 68 68 34
Width: 1400
Flags: HW
LayerCount: 2
Fore
SplineSet
436 1530 m 1,0,-1
 778 1546 l 1,1,2
 1357.04 1546 1357.04 1546 1357.04 916.347 c 0,3,4
 1357.04 523.313 1357.04 523.313 1149 261 c 0,5,6
 1008.02 83.2442 1008.02 83.2442 787.5 16 c 0,7,8
 682.194 -16.1111 682.194 -16.1111 560.387 -16.1111 c 0,9,10
 495.222 -16.1111 495.222 -16.1111 445.611 -12.0556 c 128,-1,11
 396 -8 396 -8 369.5 -6 c 128,-1,12
 343 -4 343 -4 316 -3 c 2,13,-1
 262.5 -1 l 2,14,15
 236 0 236 0 214 0 c 2,16,-1
 91 0 l 1,17,-1
 297 1530 l 1,18,-1
 436 1530 l 1,0,-1
396 214 m 1,19,20
 470.376 188.556 470.376 188.556 567.728 188.556 c 0,21,22
 579.778 188.556 579.778 188.556 592 189 c 0,23,24
 827.888 191.842 827.888 191.842 958.5 420 c 0,25,26
 1072.08 618.4 1072.08 618.4 1072.08 907.861 c 0,27,28
 1072.08 1157.52 1072.08 1157.52 985 1253.5 c 0,29,30
 903.804 1343 903.804 1343 712 1343 c 0,31,32
 630 1343 630 1343 545 1326 c 1,33,-1
 396 214 l 1,19,20
EndSplineSet
EndChar

StartChar: E
Encoding: 69 69 35
Width: 1171
Flags: HW
LayerCount: 2
Fore
SplineSet
297 1530 m 1,0,-1
 1138 1530 l 1,1,-1
 1116 1314 l 1,2,-1
 544 1319 l 1,3,-1
 487 887 l 1,4,-1
 915 893 l 1,5,-1
 891 672 l 1,6,-1
 459 684 l 1,7,-1
 396 210 l 1,8,-1
 1062 223 l 1,9,-1
 1037 0 l 1,10,-1
 91 0 l 1,11,-1
 297 1530 l 1,0,-1
EndSplineSet
EndChar

StartChar: F
Encoding: 70 70 36
Width: 1069
Flags: HW
LayerCount: 2
Fore
SplineSet
297 1530 m 1,0,-1
 1121 1530 l 1,1,-1
 1093 1314 l 1,2,-1
 544 1320 l 1,3,-1
 485 871 l 1,4,-1
 934 878 l 1,5,-1
 910 648 l 1,6,-1
 456 660 l 1,7,-1
 367 0 l 1,8,-1
 91 0 l 1,9,-1
 297 1530 l 1,0,-1
EndSplineSet
EndChar

StartChar: G
Encoding: 71 71 37
Width: 1384
Flags: HW
LayerCount: 2
Fore
SplineSet
216.5 186 m 0,0,1
 91.9636 360.637 91.9636 360.637 91.9636 627.017 c 0,2,3
 91.9636 1031.33 91.9636 1031.33 313.5 1289 c 0,4,5
 455.178 1453.79 455.178 1453.79 656.5 1515.5 c 0,6,7
 756 1546 756 1546 845.5 1546 c 128,-1,8
 935 1546 935 1546 992 1540 c 128,-1,9
 1049 1534 1049 1534 1094 1525.5 c 0,10,11
 1162.08 1512.64 1162.08 1512.64 1230 1490 c 2,12,-1
 1296 1468 l 1,13,-1
 1228 1218 l 1,14,15
 1138.02 1282.99 1138.02 1282.99 986.5 1311 c 0,16,17
 927 1322 927 1322 847.5 1322 c 128,-1,18
 768 1322 768 1322 696.5 1292 c 128,-1,19
 625 1262 625 1262 570.5 1210.5 c 128,-1,20
 516 1159 516 1159 478 1090.5 c 0,21,22
 371.917 899.271 371.917 899.271 371.917 650.368 c 0,23,24
 371.917 644.167 371.917 644.167 371.958 595.083 c 128,-1,25
 372 546 372 546 389.5 465 c 128,-1,26
 407 384 407 384 445 324 c 0,27,28
 527.333 194 527.333 194 687 194 c 0,29,30
 836.143 194 836.143 194 948 248 c 1,31,-1
 994 570 l 1,32,-1
 754 570 l 1,33,-1
 781 790 l 1,34,-1
 1282 790 l 1,35,-1
 1188 87 l 1,36,37
 1144.9 81.8276 1144.9 81.8276 1085.45 64.9138 c 2,38,-1
 979.5 34.5 l 2,39,40
 805.556 -16 805.556 -16 673.778 -16 c 128,-1,41
 542 -16 542 -16 462 9.5 c 0,42,43
 307.171 58.8516 307.171 58.8516 216.5 186 c 0,0,1
EndSplineSet
EndChar

StartChar: H
Encoding: 72 72 38
Width: 1455
Flags: HW
LayerCount: 2
Fore
SplineSet
291 1530 m 1,0,-1
 567 1530 l 1,1,-1
 476 855 l 1,2,-1
 1044 855 l 1,3,-1
 1135 1530 l 1,4,-1
 1413 1530 l 1,5,-1
 1207 0 l 1,6,-1
 929 0 l 1,7,-1
 1017 658 l 1,8,-1
 449 658 l 1,9,-1
 361 0 l 1,10,-1
 85 0 l 1,11,-1
 291 1530 l 1,0,-1
EndSplineSet
EndChar

StartChar: I
Encoding: 73 73 39
Width: 643
Flags: HW
LayerCount: 2
Fore
SplineSet
319 1530 m 1,0,-1
 595 1530 l 1,1,-1
 389 0 l 1,2,-1
 113 0 l 1,3,-1
 319 1530 l 1,0,-1
EndSplineSet
EndChar

StartChar: J
Encoding: 74 74 40
Width: 640
Flags: HW
LayerCount: 2
Fore
SplineSet
122.5 110.5 m 0,0,1
 138 184 138 184 156.5 298.5 c 128,-1,2
 175 413 175 413 192.5 537.5 c 128,-1,3
 210 662 210 662 226 791.5 c 0,4,5
 301.61 1425.75 301.61 1425.75 315 1530 c 1,6,-1
 592 1530 l 1,7,-1
 467.5 585 l 1,8,-1
 433.5 345 l 1,9,10
 400.45 121.116 400.45 121.116 377.725 40.5578 c 128,-1,11
 355 -40 355 -40 300 -116.5 c 128,-1,12
 245 -193 245 -193 175.5 -239.5 c 0,13,14
 51.808 -322.258 51.808 -322.258 -136 -336 c 1,15,-1
 -175 -233 l 1,16,17
 -57.882 -198.998 -57.882 -198.998 23 -105 c 0,18,19
 94.603 -21.7857 94.603 -21.7857 122.5 110.5 c 0,0,1
EndSplineSet
EndChar

StartChar: K
Encoding: 75 75 41
Width: 1291
Flags: HW
LayerCount: 2
Fore
SplineSet
297 1530 m 1,0,-1
 573 1530 l 1,1,-1
 476 811 l 1,2,-1
 1076 1530 l 1,3,-1
 1394 1530 l 1,4,-1
 784 853 l 1,5,6
 856 728 856 728 924 597.5 c 0,7,8
 1168.64 134.502 1168.64 134.502 1256 -1 c 1,9,-1
 928 1 l 1,10,11
 921 11 921 11 905.5 40.5 c 2,12,-1
 766 323 l 1,13,14
 754 344 754 344 735.5 383 c 2,15,-1
 606 655 l 1,16,-1
 428 458 l 1,17,-1
 367 0 l 1,18,-1
 91 0 l 1,19,-1
 297 1530 l 1,0,-1
EndSplineSet
EndChar

StartChar: L
Encoding: 76 76 42
Width: 1023
Flags: HW
LayerCount: 2
Fore
SplineSet
297 1530 m 1,0,-1
 573 1530 l 1,1,-1
 397 221 l 1,2,-1
 931 229 l 1,3,-1
 899 0 l 1,4,-1
 91 0 l 1,5,-1
 297 1530 l 1,0,-1
EndSplineSet
EndChar

StartChar: M
Encoding: 77 77 43
Width: 1890
Flags: HW
LayerCount: 2
Fore
SplineSet
408 1530 m 1,0,-1
 793 1530 l 1,1,-1
 907 474 l 1,2,-1
 918 277 l 1,3,-1
 967 474 l 1,4,-1
 1358 1530 l 1,5,-1
 1760 1530 l 1,6,-1
 1730 0 l 1,7,-1
 1453 0 l 1,8,-1
 1522 1080 l 1,9,-1
 1548 1388 l 1,10,-1
 1443 1104 l 1,11,-1
 1006 -3 l 1,12,-1
 741 -18 l 1,13,-1
 601 1091 l 1,14,-1
 582 1388 l 1,15,-1
 526 1086 l 1,16,-1
 283 0 l 1,17,-1
 9 0 l 1,18,-1
 408 1530 l 1,0,-1
EndSplineSet
EndChar

StartChar: N
Encoding: 78 78 44
Width: 1450
Flags: HW
LayerCount: 2
Fore
SplineSet
297 1530 m 1,0,-1
 554 1530 l 1,1,-1
 952 603 l 1,2,-1
 1023 370 l 1,3,-1
 1039 624 l 1,4,-1
 1149 1530 l 1,5,-1
 1414 1530 l 1,6,-1
 1208 0 l 1,7,-1
 963 0 l 1,8,-1
 561 954 l 1,9,-1
 485 1208 l 1,10,-1
 473 921 l 1,11,-1
 353 0 l 1,12,-1
 91 0 l 1,13,-1
 297 1530 l 1,0,-1
EndSplineSet
EndChar

StartChar: O
Encoding: 79 79 45
Width: 1386
Flags: HW
LayerCount: 2
Fore
SplineSet
219 164 m 0,0,1
 86.9583 332.607 86.9583 332.607 86.9583 604.901 c 0,2,3
 86.9583 1000.55 86.9583 1000.55 284.5 1267 c 0,4,5
 415.627 1443.87 415.627 1443.87 610 1512 c 0,6,7
 707 1546 707 1546 827 1546 c 128,-1,8
 947 1546 947 1546 1043 1497.5 c 128,-1,9
 1139 1449 1139 1449 1203.5 1365.5 c 0,10,11
 1335.04 1195.21 1335.04 1195.21 1335.04 922.952 c 0,12,13
 1335.04 530.539 1335.04 530.539 1140.5 264 c 0,14,15
 1009.93 85.102 1009.93 85.102 817.5 18 c 0,16,17
 720 -16 720 -16 599.5 -16 c 128,-1,18
 479 -16 479 -16 381.5 32.5 c 128,-1,19
 284 81 284 81 219 164 c 0,0,1
523.5 216.5 m 0,20,21
 573 193 573 193 637.5 193 c 128,-1,22
 702 193 702 193 757.5 221.5 c 128,-1,23
 813 250 813 250 859 299.5 c 128,-1,24
 905 349 905 349 940.5 417.5 c 0,25,26
 1050.07 628.932 1050.07 628.932 1050.07 895.823 c 0,27,28
 1050.07 1241.57 1050.07 1241.57 898.5 1312 c 0,29,30
 849 1335 849 1335 784.5 1335 c 128,-1,31
 720 1335 720 1335 664.5 1306 c 128,-1,32
 609 1277 609 1277 563 1226.5 c 128,-1,33
 517 1176 517 1176 481.5 1107.5 c 0,34,35
 371.926 896.068 371.926 896.068 371.926 634.741 c 0,36,37
 371.926 288.459 371.926 288.459 523.5 216.5 c 0,20,21
EndSplineSet
EndChar

StartChar: P
Encoding: 80 80 46
Width: 1239
Flags: HW
LayerCount: 2
Fore
SplineSet
873 550.5 m 128,-1,1
 755 504 755 504 622.5 504 c 128,-1,2
 490 504 490 504 436 510 c 1,3,-1
 367 0 l 1,4,-1
 91 0 l 1,5,-1
 297 1530 l 1,6,-1
 433 1530 l 2,7,8
 499 1530 499 1530 576.5 1538 c 128,-1,9
 654 1546 654 1546 758.5 1546 c 128,-1,10
 863 1546 863 1546 955.5 1520.5 c 128,-1,11
 1048 1495 1048 1495 1111.5 1443.5 c 0,12,13
 1242.02 1337.64 1242.02 1337.64 1242.02 1125.81 c 0,14,15
 1242.02 851.065 1242.02 851.065 1073.5 680.5 c 0,16,0
 991 597 991 597 873 550.5 c 128,-1,1
465 727 m 1,17,18
 512.667 714 512.667 714 607.333 714.5 c 128,-1,19
 702 715 702 715 767 741.5 c 128,-1,20
 832 768 832 768 875.5 818 c 0,21,22
 967.258 923.469 967.258 923.469 967.258 1122.75 c 0,23,24
 967.258 1349 967.258 1349 697 1349 c 0,25,26
 659 1349 659 1349 631 1345.5 c 2,27,-1
 582.5 1339.5 l 2,28,29
 562 1337 562 1337 546 1334 c 1,30,-1
 465 727 l 1,17,18
EndSplineSet
EndChar

StartChar: Q
Encoding: 81 81 47
Width: 1387
Flags: HW
LayerCount: 2
Fore
SplineSet
882 -154.5 m 0,0,1
 931 -159 931 -159 1043.5 -159 c 128,-1,2
 1156 -159 1156 -159 1237 -132 c 1,3,-1
 1237 -310 l 1,4,5
 1175.53 -362.246 1175.53 -362.246 987 -384 c 0,6,7
 935 -390 935 -390 886 -390 c 128,-1,8
 837 -390 837 -390 785.5 -381.5 c 128,-1,9
 734 -373 734 -373 689.5 -354.5 c 128,-1,10
 645 -336 645 -336 609 -306 c 0,11,12
 523.864 -235.053 523.864 -235.053 523.864 -111.225 c 0,13,14
 523.864 -66.0909 523.864 -66.0909 537 -12 c 1,15,16
 322.02 12.953 322.02 12.953 201 188 c 0,17,18
 86.9583 352.953 86.9583 352.953 86.9583 604.901 c 0,19,20
 86.9583 1000.55 86.9583 1000.55 284.5 1267 c 0,21,22
 415.627 1443.87 415.627 1443.87 610 1512 c 0,23,24
 707 1546 707 1546 827 1546 c 128,-1,25
 947 1546 947 1546 1043 1497.5 c 128,-1,26
 1139 1449 1139 1449 1203.5 1365.5 c 0,27,28
 1335.02 1195.23 1335.02 1195.23 1335.02 925.78 c 0,29,30
 1335.02 564.992 1335.02 564.992 1170.5 308.5 c 0,31,32
 998.188 39.8647 998.188 39.8647 717 -7 c 1,33,34
 714.459 -139.114 714.459 -139.114 882 -154.5 c 0,0,1
523.5 216.5 m 0,35,36
 573 193 573 193 637.5 193 c 128,-1,37
 702 193 702 193 757.5 221.5 c 128,-1,38
 813 250 813 250 859 299.5 c 128,-1,39
 905 349 905 349 940.5 417.5 c 0,40,41
 1050.07 628.932 1050.07 628.932 1050.07 895.823 c 0,42,43
 1050.07 1241.57 1050.07 1241.57 898.5 1312 c 0,44,45
 849 1335 849 1335 784.5 1335 c 128,-1,46
 720 1335 720 1335 664.5 1306 c 128,-1,47
 609 1277 609 1277 563 1226.5 c 128,-1,48
 517 1176 517 1176 481.5 1107.5 c 0,49,50
 371.926 896.068 371.926 896.068 371.926 634.741 c 0,51,52
 371.926 288.459 371.926 288.459 523.5 216.5 c 0,35,36
EndSplineSet
EndChar

StartChar: R
Encoding: 82 82 48
Width: 1307
Flags: HW
LayerCount: 2
Fore
SplineSet
564 612 m 1,0,-1
 450 613 l 1,1,-1
 366 0 l 1,2,-1
 90 0 l 1,3,-1
 296 1530 l 1,4,-1
 448 1530 l 1,5,-1
 747 1546 l 1,6,7
 1256.05 1546 1256.05 1546 1256.05 1164.54 c 0,8,9
 1256.05 882.421 1256.05 882.421 1067 737 c 0,10,11
 1002 687 1002 687 913 660 c 1,12,13
 997.795 583.685 997.795 583.685 1055 393 c 1,14,15
 1162.03 104.899 1162.03 104.899 1184.02 62.4495 c 128,-1,16
 1206 20 1206 20 1221 -1 c 1,17,-1
 912 1 l 1,18,19
 895.043 26.4348 895.043 26.4348 876.022 81.2174 c 0,20,21
 833.589 208.779 833.589 208.779 809.794 290.39 c 128,-1,22
 786 372 786 372 765 427.5 c 128,-1,23
 744 483 744 483 722 523.5 c 0,24,25
 674.988 610.044 674.988 610.044 630 612 c 1,26,-1
 564 612 l 1,0,-1
478 830 m 1,27,28
 498 829 498 829 527 828.5 c 2,29,-1
 586.5 827.5 l 2,30,31
 617 827 617 827 644 827 c 2,32,-1
 687 827 l 2,33,34
 836.426 827 836.426 827 913.5 932 c 0,35,36
 976.235 1017.47 976.235 1017.47 976.235 1146.44 c 0,37,38
 976.235 1257.14 976.235 1257.14 909.618 1302.07 c 128,-1,39
 843 1347 843 1347 719 1347 c 0,40,41
 630.5 1347 630.5 1347 546 1334 c 1,42,-1
 478 830 l 1,27,28
EndSplineSet
EndChar

StartChar: S
Encoding: 83 83 49
Width: 1051
Flags: HW
LayerCount: 2
Fore
SplineSet
100 302 m 1,0,1
 168.258 240.927 168.258 240.927 314.5 212 c 0,2,3
 360 203 360 203 410.5 203 c 128,-1,4
 461 203 461 203 509 215 c 128,-1,5
 557 227 557 227 591.5 251 c 0,6,7
 664 301.435 664 301.435 664 397 c 0,8,9
 664 474.875 664 474.875 630.5 520.938 c 0,10,11
 576.252 595.529 576.252 595.529 461 677 c 0,12,13
 334.012 766.639 334.012 766.639 280.506 837.319 c 0,14,15
 175.973 975.406 175.973 975.406 175.973 1118.44 c 0,16,17
 175.973 1313.73 175.973 1313.73 313 1430 c 0,18,19
 449.714 1546 449.714 1546 675 1546 c 0,20,21
 911.643 1546 911.643 1546 1027 1461 c 1,22,-1
 940 1245 l 1,23,24
 878.75 1306.25 878.75 1306.25 747.5 1325.5 c 0,25,26
 710 1331 710 1331 670 1331 c 128,-1,27
 630 1331 630 1331 588.5 1321.5 c 128,-1,28
 547 1312 547 1312 515.5 1291 c 0,29,30
 443.742 1243.16 443.742 1243.16 443.742 1147.77 c 0,31,32
 443.742 1031.39 443.742 1031.39 563 933 c 0,33,34
 603 900 603 900 654 863 c 128,-1,35
 705 826 705 826 757 783.5 c 128,-1,36
 809 741 809 741 851 689.5 c 0,37,38
 948.024 570.53 948.024 570.53 948.024 447.247 c 128,-1,39
 948.024 323.964 948.024 323.964 907.512 239.482 c 128,-1,40
 867 155 867 155 793 98 c 0,41,42
 645 -16 645 -16 393 -16 c 0,43,44
 218.091 -16 218.091 -16 68 47.5 c 0,45,46
 29 64 29 64 12 78 c 1,47,-1
 100 302 l 1,0,1
EndSplineSet
EndChar

StartChar: T
Encoding: 84 84 50
Width: 1138
Flags: HW
LayerCount: 2
Fore
SplineSet
526 1325 m 1,0,-1
 133 1314 l 1,1,-1
 166 1530 l 1,2,-1
 1221 1530 l 1,3,-1
 1191 1314 l 1,4,-1
 805 1325 l 1,5,-1
 627 0 l 1,6,-1
 348 0 l 1,7,-1
 526 1325 l 1,0,-1
EndSplineSet
EndChar

StartChar: U
Encoding: 85 85 51
Width: 1402
Flags: HW
LayerCount: 2
Fore
SplineSet
400.5 15 m 0,0,1
 130.8 108.416 130.8 108.416 130.8 445.66 c 0,2,3
 130.8 496 130.8 496 144 595 c 2,4,-1
 269 1530 l 1,5,-1
 545 1530 l 1,6,-1
 425 635 l 2,7,8
 413 540.714 413 540.714 414 427.357 c 0,9,10
 416.006 199.999 416.006 199.999 653 200 c 0,11,12
 797.087 200 797.087 200 874.5 297 c 0,13,14
 955.484 398.474 955.484 398.474 989 639 c 1,15,-1
 1108 1530 l 1,16,-1
 1381 1530 l 1,17,-1
 1259 612 l 2,18,19
 1213.86 276.397 1213.86 276.397 1055.5 127 c 0,20,21
 903.92 -16 903.92 -16 612 -16 c 0,22,23
 490 -16 490 -16 400.5 15 c 0,0,1
EndSplineSet
EndChar

StartChar: V
Encoding: 86 86 52
Width: 1201
Flags: HW
LayerCount: 2
Fore
SplineSet
116 1530 m 1,0,-1
 392 1530 l 1,1,-1
 532 490 l 1,2,-1
 553 248 l 1,3,-1
 635 490 l 1,4,-1
 1051 1530 l 1,5,-1
 1343 1530 l 1,6,-1
 665 0 l 1,7,-1
 354 0 l 1,8,-1
 116 1530 l 1,0,-1
EndSplineSet
EndChar

StartChar: W
Encoding: 87 87 53
Width: 1788
Flags: HW
LayerCount: 2
Fore
SplineSet
112 1530 m 1,0,-1
 389 1530 l 1,1,-1
 489 493 l 1,2,-1
 515 274 l 1,3,-1
 579 493 l 1,4,-1
 879 1251 l 1,5,-1
 849 1530 l 1,6,-1
 1117 1530 l 1,7,-1
 1224 274 l 1,8,-1
 1287 493 l 1,9,-1
 1663 1530 l 1,10,-1
 1945 1530 l 1,11,-1
 1333 -5 l 1,12,-1
 1025 -5 l 1,13,-1
 949 698 l 1,14,-1
 933 867 l 1,15,-1
 875 698 l 1,16,-1
 610 -5 l 1,17,-1
 320 -5 l 1,18,-1
 112 1530 l 1,0,-1
EndSplineSet
EndChar

StartChar: X
Encoding: 88 88 54
Width: 1201
Flags: HW
LayerCount: 2
Fore
SplineSet
482 801 m 1,0,-1
 162 1530 l 1,1,-1
 461 1530 l 1,2,-1
 664 985 l 1,3,-1
 1017 1530 l 1,4,-1
 1322 1530 l 1,5,-1
 782 744 l 1,6,-1
 1129 0 l 1,7,-1
 822 -1 l 1,8,-1
 597 575 l 1,9,-1
 239 0 l 1,10,-1
 -79 0 l 1,11,-1
 482 801 l 1,0,-1
EndSplineSet
EndChar

StartChar: Y
Encoding: 89 89 55
Width: 1124
Flags: HW
LayerCount: 2
Fore
SplineSet
429 590 m 1,0,-1
 83 1530 l 1,1,-1
 375 1530 l 1,2,-1
 570 922 l 1,3,-1
 598 817 l 1,4,-1
 646 922 l 1,5,-1
 994 1530 l 1,6,-1
 1297 1530 l 1,7,-1
 700 590 l 1,8,-1
 620 0 l 1,9,-1
 349 0 l 1,10,-1
 429 590 l 1,0,-1
EndSplineSet
EndChar

StartChar: Z
Encoding: 90 90 56
Width: 1158
Flags: HW
LayerCount: 2
Fore
SplineSet
-27 89 m 1,0,-1
 750 1203 l 1,1,-1
 864 1316 l 1,2,-1
 225 1304 l 1,3,-1
 259 1530 l 1,4,-1
 1196 1530 l 1,5,-1
 1220 1444 l 1,6,-1
 459 330 l 1,7,-1
 355 220 l 1,8,-1
 1040 231 l 1,9,-1
 1003 0 l 1,10,-1
 1 0 l 1,11,-1
 -27 89 l 1,0,-1
EndSplineSet
EndChar

StartChar: bracketleft
Encoding: 91 91 57
Width: 854
Flags: HW
LayerCount: 2
Fore
SplineSet
340 -225 m 0,0,1
 155 -225 155 -225 155 -62 c 0,2,3
 155 -12 155 -12 159 35 c 128,-1,4
 163 82 163 82 171.5 153.5 c 128,-1,5
 180 225 180 225 193 320 c 2,6,-1
 364 1498 l 2,7,8
 384.52 1645.75 384.52 1645.75 436 1705.5 c 0,9,10
 490.708 1769 490.708 1769 607 1769 c 0,11,12
 698.333 1769 698.333 1769 902 1722 c 1,13,-1
 882 1591 l 1,14,-1
 617 1591 l 1,15,-1
 399 -43 l 1,16,17
 438.25 -43 438.25 -43 477.5 -43 c 2,18,-1
 585.5 -44 l 2,19,20
 624.75 -44 624.75 -44 664 -44 c 1,21,22
 661.611 -55.9446 661.611 -55.9446 657.306 -92.9723 c 128,-1,23
 653 -130 653 -130 650.5 -149 c 128,-1,24
 648 -168 648 -168 648 -173 c 1,25,-1
 580.5 -192 l 1,26,27
 457.667 -225 457.667 -225 340 -225 c 0,0,1
EndSplineSet
EndChar

StartChar: backslash
Encoding: 92 92 58
Width: 854
Flags: HW
LayerCount: 2
Fore
SplineSet
16 1597 m 1,0,-1
 237 1597 l 1,1,-1
 814 -362 l 1,2,-1
 592 -362 l 1,3,-1
 16 1597 l 1,0,-1
EndSplineSet
EndChar

StartChar: asciicircum
Encoding: 94 94 60
Width: 1364
Flags: HW
LayerCount: 2
Fore
SplineSet
672 1531 m 1,0,-1
 904 1531 l 1,1,-1
 1166 510 l 1,2,-1
 945 510 l 1,3,-1
 764 1249 l 1,4,-1
 376 510 l 1,5,-1
 151 510 l 1,6,-1
 672 1531 l 1,0,-1
EndSplineSet
EndChar

StartChar: underscore
Encoding: 95 95 61
Width: 1335
Flags: HW
LayerCount: 2
Fore
SplineSet
1287 -187 m 1,0,-1
 1267 -363 l 1,1,-1
 -111 -363 l 1,2,-1
 -91 -187 l 1,3,-1
 1287 -187 l 1,0,-1
EndSplineSet
EndChar

StartChar: grave
Encoding: 96 96 62
Width: 544
Flags: HW
LayerCount: 2
Fore
SplineSet
407 1234 m 1,0,1
 332.862 1262.51 332.862 1262.51 193.5 1386 c 0,2,3
 52.3592 1511.06 52.3592 1511.06 19 1575 c 1,4,-1
 200 1744 l 1,5,-1
 511 1318 l 1,6,-1
 407 1234 l 1,0,1
EndSplineSet
EndChar

StartChar: a
Encoding: 97 97 63
Width: 1207
Flags: HW
LayerCount: 2
Fore
SplineSet
537 1124.5 m 0,0,1
 631 1156 631 1156 740.143 1156 c 128,-1,2
 849.286 1156 849.286 1156 983 1117 c 1,3,-1
 1132 1156 l 1,4,-1
 973 0 l 1,5,-1
 727 0 l 1,6,-1
 741 217 l 1,7,8
 651.142 59.7482 651.142 59.7482 511 4.5 c 0,9,10
 459 -16 459 -16 385.5 -16 c 128,-1,11
 312 -16 312 -16 250.5 16.5 c 128,-1,12
 189 49 189 49 150.5 107 c 0,13,14
 76 219.234 76 219.234 76 414 c 0,15,16
 76 697.636 76 697.636 239 912.5 c 0,17,18
 353.069 1062.86 353.069 1062.86 537 1124.5 c 0,0,1
363 437 m 0,19,20
 363 180 363 180 479 180 c 0,21,22
 559.549 180 559.549 180 646.5 285.5 c 0,23,24
 711.835 364.773 711.835 364.773 766 486 c 1,25,-1
 833 966 l 1,26,27
 787.5 980 787.5 980 721.75 980 c 128,-1,28
 656 980 656 980 606 956.5 c 128,-1,29
 556 933 556 933 516.5 892.5 c 128,-1,30
 477 852 477 852 448 798 c 128,-1,31
 419 744 419 744 400 684 c 0,32,33
 363 567.158 363 567.158 363 437 c 0,19,20
EndSplineSet
Substitution2: "Single Substitution lookup 16 subtable" ordfeminine
Substitution2: "'aalt' Access All Alternates in Latin lookup 0 subtable" ordfeminine
EndChar

StartChar: b
Encoding: 98 98 64
Width: 1227
Flags: HW
LayerCount: 2
Fore
SplineSet
467 -16 m 0,0,1
 349 -16 349 -16 226 25 c 1,2,-1
 80 -8 l 1,3,-1
 302 1636 l 1,4,-1
 566 1636 l 1,5,-1
 496 1062 l 1,6,-1
 469 915 l 1,7,8
 558.801 1075.89 558.801 1075.89 706 1134.5 c 0,9,10
 760 1156 760 1156 834.5 1156 c 128,-1,11
 909 1156 909 1156 970.5 1123 c 128,-1,12
 1032 1090 1032 1090 1070.5 1032 c 0,13,14
 1145 919.766 1145 919.766 1145 724 c 0,15,16
 1145 440.703 1145 440.703 979.5 226 c 0,17,18
 792.958 -16 792.958 -16 467 -16 c 0,0,1
857 702 m 0,19,20
 857 958 857 958 742 958 c 0,21,22
 630.592 958 630.592 958 513 776.5 c 0,23,24
 471.177 711.948 471.177 711.948 440 640 c 1,25,-1
 380 174 l 1,26,27
 422.25 161 422.25 161 490.125 161 c 128,-1,28
 558 161 558 161 609 184.5 c 128,-1,29
 660 208 660 208 700 248 c 128,-1,30
 740 288 740 288 769.5 341.5 c 128,-1,31
 799 395 799 395 818.5 455.5 c 0,32,33
 857 574.949 857 574.949 857 702 c 0,19,20
EndSplineSet
EndChar

StartChar: c
Encoding: 99 99 65
Width: 931
Flags: HW
LayerCount: 2
Fore
SplineSet
538 187 m 0,0,1
 660 187 660 187 787 314 c 1,2,-1
 864 176 l 1,3,4
 779.01 52.765 779.01 52.765 614 3 c 0,5,6
 551 -16 551 -16 461 -16 c 128,-1,7
 371 -16 371 -16 296.5 20 c 128,-1,8
 222 56 222 56 174 117.5 c 0,9,10
 80 237.938 80 237.938 80 438 c 0,11,12
 80 726.368 80 726.368 240.5 934.5 c 0,13,14
 318 1035 318 1035 429 1095.5 c 128,-1,15
 540 1156 540 1156 680 1156 c 0,16,17
 831 1156 831 1156 919 1116 c 1,18,-1
 851 861 l 1,19,20
 754.167 944 754.167 944 658 944 c 0,21,22
 541.8 944 541.8 944 455 820 c 0,23,24
 361 685.714 361 685.714 361 476 c 0,25,26
 361 249.567 361 249.567 458.5 203 c 0,27,28
 492 187 492 187 538 187 c 0,0,1
EndSplineSet
EndChar

StartChar: d
Encoding: 100 100 66
Width: 1218
Flags: HW
LayerCount: 2
Fore
SplineSet
540.5 1124.5 m 0,0,1
 635 1156 635 1156 719.5 1156 c 128,-1,2
 804 1156 804 1156 862 1146 c 1,3,-1
 929 1636 l 1,4,-1
 1199 1636 l 1,5,-1
 983 0 l 1,6,-1
 736 0 l 1,7,-1
 751 230 l 1,8,9
 661.623 66.1428 661.623 66.1428 514 6 c 0,10,11
 460 -16 460 -16 385.5 -16 c 128,-1,12
 311 -16 311 -16 249.5 16.5 c 128,-1,13
 188 49 188 49 149.5 107 c 0,14,15
 75 219.234 75 219.234 75 414 c 0,16,17
 75 696.306 75 696.306 240.5 912.5 c 0,18,19
 355.611 1062.87 355.611 1062.87 540.5 1124.5 c 0,0,1
362 437 m 0,20,21
 362 182 362 182 478 182 c 0,22,23
 560 182 560 182 651 290.5 c 0,24,25
 718.459 370.932 718.459 370.932 773 493 c 1,26,-1
 837 962 l 1,27,28
 780.75 980 780.75 980 720.375 980 c 128,-1,29
 660 980 660 980 609.5 956.5 c 128,-1,30
 559 933 559 933 519 892.5 c 128,-1,31
 479 852 479 852 449.5 798 c 128,-1,32
 420 744 420 744 400.5 684 c 0,33,34
 362 565.538 362 565.538 362 437 c 0,20,21
EndSplineSet
EndChar

StartChar: e
Encoding: 101 101 67
Width: 1074
Flags: HW
LayerCount: 2
Fore
SplineSet
370.857 392.316 m 0,0,1
 370.857 182 370.857 182 548 182 c 0,2,3
 674.458 182 674.458 182 806 281.5 c 0,4,5
 845 311 845 311 876 343 c 1,6,-1
 949 202 l 1,7,8
 893.135 123.281 893.135 123.281 784.5 62 c 0,9,10
 646.227 -16 646.227 -16 514.114 -16 c 128,-1,11
 382 -16 382 -16 303 22.5 c 0,12,13
 79.9574 131.198 79.9574 131.198 79.9574 430.605 c 0,14,15
 79.9574 585.285 79.9574 585.285 127.979 719.643 c 128,-1,16
 176 854 176 854 258.5 950 c 128,-1,17
 341 1046 341 1046 454 1101 c 128,-1,18
 567 1156 567 1156 673.5 1156 c 128,-1,19
 780 1156 780 1156 838.5 1137 c 128,-1,20
 897 1118 897 1118 935.5 1084.5 c 0,21,22
 1011 1018.81 1011 1018.81 1011 900 c 0,23,24
 1011 568 1011 568 516 436 c 0,25,26
 441 416 441 416 371 404 c 1,27,28
 370.857 398.143 370.857 398.143 370.857 392.316 c 0,0,1
639 984 m 0,29,30
 492.097 984 492.097 984 409 742.5 c 0,31,32
 377.842 651.947 377.842 651.947 371 563 c 1,33,34
 488.298 569.703 488.298 569.703 608.5 654 c 0,35,36
 741 746.922 741 746.922 741 865.461 c 128,-1,37
 741 984 741 984 639 984 c 0,29,30
EndSplineSet
EndChar

StartChar: f
Encoding: 102 102 68
Width: 730
Flags: HW
LayerCount: 2
Fore
SplineSet
865 1451 m 1,0,1
 814.011 1491.06 814.011 1491.06 745.936 1491.06 c 0,2,3
 608.01 1491.06 608.01 1491.06 578 1295 c 2,4,-1
 554 1140 l 1,5,-1
 754 1140 l 1,6,-1
 734 954 l 1,7,-1
 531 954 l 1,8,-1
 401 0 l 1,9,-1
 129 0 l 1,10,-1
 259 954 l 1,11,-1
 129 954 l 1,12,-1
 163 1140 l 1,13,-1
 285 1140 l 1,14,-1
 301 1240 l 1,15,16
 327.39 1436.91 327.39 1436.91 446 1554.5 c 0,17,18
 568.557 1676 568.557 1676 757 1676 c 0,19,20
 862.882 1676 862.882 1676 921 1650 c 1,21,-1
 865 1451 l 1,0,1
EndSplineSet
EndChar

StartChar: g
Encoding: 103 103 69
Width: 1213
Flags: HW
LayerCount: 2
Fore
SplineSet
540.5 1124.5 m 0,0,1
 635 1156 635 1156 744.143 1156 c 128,-1,2
 853.286 1156 853.286 1156 987 1117 c 1,3,-1
 1139 1156 l 1,4,-1
 972 -61 l 1,5,6
 926.029 -372.19 926.029 -372.19 638 -473 c 0,7,8
 529.429 -511 529.429 -511 392 -511 c 0,9,10
 283.143 -511 283.143 -511 210.071 -494.5 c 128,-1,11
 137 -478 137 -478 122 -471 c 1,12,-1
 173 -261 l 1,13,14
 245.303 -302.316 245.303 -302.316 324.151 -317.158 c 128,-1,15
 403 -332 403 -332 453.5 -332 c 128,-1,16
 504 -332 504 -332 545.5 -315.5 c 128,-1,17
 587 -299 587 -299 615.5 -268 c 0,18,19
 666.457 -212.573 666.457 -212.573 690 -97 c 1,20,-1
 745 219 l 1,21,22
 651.094 61.2375 651.094 61.2375 510.5 5 c 0,23,24
 458 -16 458 -16 384.5 -16 c 128,-1,25
 311 -16 311 -16 249.5 16.5 c 128,-1,26
 188 49 188 49 149.5 107 c 0,27,28
 75 219.234 75 219.234 75 414 c 0,29,30
 75 696.306 75 696.306 240.5 912.5 c 0,31,32
 355.611 1062.87 355.611 1062.87 540.5 1124.5 c 0,0,1
362 437 m 0,33,34
 362 182 362 182 478 182 c 0,35,36
 557.667 182 557.667 182 647.5 287 c 0,37,38
 715.704 366.72 715.704 366.72 769 486 c 1,39,-1
 836 967 l 1,40,41
 785 980 785 980 722.5 980 c 128,-1,42
 660 980 660 980 609.5 956.5 c 128,-1,43
 559 933 559 933 519 892.5 c 128,-1,44
 479 852 479 852 449.5 798 c 128,-1,45
 420 744 420 744 400.5 684 c 0,46,47
 362 565.538 362 565.538 362 437 c 0,33,34
EndSplineSet
EndChar

StartChar: h
Encoding: 104 104 70
Width: 1256
Flags: HW
LayerCount: 2
Fore
SplineSet
297 1636 m 1,0,-1
 569 1636 l 1,1,-1
 505 1116 l 1,2,-1
 470 917 l 1,3,4
 594.867 1084.58 594.867 1084.58 765.5 1138 c 0,5,6
 823 1156 823 1156 883 1156 c 256,7,8
 1070.21 1156 1070.21 1156 1116.5 997.5 c 0,9,10
 1133 941 1133 941 1133 890.5 c 128,-1,11
 1133 840 1133 840 1130 805.5 c 128,-1,12
 1127 771 1127 771 1121.5 726 c 128,-1,13
 1116 681 1116 681 1108.5 627 c 0,14,15
 1087.63 473.48 1087.63 473.48 1075.81 393.74 c 2,16,-1
 1018 0 l 1,17,-1
 742 0 l 1,18,-1
 796.5 384 l 2,19,20
 806 450 806 450 817 531 c 0,21,22
 857.28 827.611 857.28 827.611 842.5 876.5 c 0,23,24
 826.023 931 826.023 931 755 931 c 0,25,26
 687.254 931 687.254 931 599 867.5 c 0,27,28
 512.516 805.273 512.516 805.273 451 713 c 1,29,-1
 354 0 l 1,30,-1
 83 0 l 1,31,-1
 297 1636 l 1,0,-1
EndSplineSet
EndChar

StartChar: dotlessi
Encoding: 305 305 72
Width: 624
Flags: HW
LayerCount: 2
Fore
SplineSet
258 1140 m 1,0,-1
 535 1140 l 1,1,-1
 378 0 l 1,2,-1
 102 0 l 1,3,-1
 258 1140 l 1,0,-1
EndSplineSet
EndChar

StartChar: dotaccent
Encoding: 729 729 73
Width: 390
Flags: HW
LayerCount: 2
Fore
SplineSet
248.5 1365 m 128,-1,1
 215 1351 215 1351 179.5 1351 c 128,-1,2
 144 1351 144 1351 117.5 1362 c 0,3,4
 63.7069 1384.33 63.7069 1384.33 41 1438 c 0,5,6
 30.9167 1461.83 30.9167 1461.83 30.9167 1494.22 c 128,-1,7
 30.9167 1526.6 30.9167 1526.6 45.4583 1558.8 c 128,-1,8
 60 1591 60 1591 83.5 1614.5 c 0,9,10
 135 1666 135 1666 208 1666 c 0,11,12
 312.882 1666 312.882 1666 348.5 1579.5 c 0,13,14
 358.087 1556.22 358.087 1556.22 358.087 1524.38 c 128,-1,15
 358.087 1492.54 358.087 1492.54 344.043 1459.77 c 128,-1,16
 330 1427 330 1427 306 1403 c 128,-1,0
 282 1379 282 1379 248.5 1365 c 128,-1,1
EndSplineSet
EndChar

StartChar: dotlessj
Encoding: 567 567 75
Width: 622
Flags: HW
LayerCount: 2
Fore
SplineSet
-182 -339 m 1,0,1
 -167.857 -350 -167.857 -350 -118.429 -350 c 128,-1,2
 -69 -350 -69 -350 -26.5 -316 c 128,-1,3
 16 -282 16 -282 42.5 -224.5 c 0,4,5
 79.4455 -144.335 79.4455 -144.335 110 67 c 1,6,-1
 257 1140 l 1,7,-1
 534 1140 l 1,8,-1
 378 2 l 2,9,10
 344.712 -242.762 344.712 -242.762 211.5 -384.5 c 0,11,12
 83.2105 -521 83.2105 -521 -95 -521 c 0,13,14
 -201.6 -521 -201.6 -521 -252 -485 c 1,15,-1
 -182 -339 l 1,0,1
EndSplineSet
EndChar

StartChar: k
Encoding: 107 107 76
Width: 1134
Flags: HW
LayerCount: 2
Fore
SplineSet
297 1636 m 1,0,-1
 569 1636 l 1,1,-1
 355 0 l 1,2,-1
 83 0 l 1,3,-1
 297 1636 l 1,0,-1
473 632 m 1,4,-1
 475 632 l 1,5,-1
 473 633 l 1,6,7
 559 681 559 681 623 749.5 c 128,-1,8
 687 818 687 818 745 911 c 1,9,10
 828.664 1027.69 828.664 1027.69 865 1140 c 1,11,-1
 1135 1140 l 1,12,13
 1126.26 1028.11 1126.26 1028.11 1051 912 c 1,14,15
 962.898 758.532 962.898 758.532 822.5 658 c 0,16,17
 782 629 782 629 747 611 c 1,18,-1
 1092 2 l 1,19,-1
 774 2 l 1,20,-1
 473 632 l 1,4,-1
EndSplineSet
EndChar

StartChar: l
Encoding: 108 108 77
Width: 625
Flags: HW
LayerCount: 2
Fore
SplineSet
326 1636 m 1,0,-1
 603 1636 l 1,1,-1
 380 2 l 1,2,-1
 104 2 l 1,3,-1
 326 1636 l 1,0,-1
EndSplineSet
EndChar

StartChar: m
Encoding: 109 109 78
Width: 1867
Flags: HW
LayerCount: 2
Fore
SplineSet
235 1140 m 1,0,-1
 500 1140 l 1,1,-1
 482 933 l 1,2,3
 603.951 1091.21 603.951 1091.21 762 1139.5 c 0,4,5
 816 1156 816 1156 873 1156 c 0,6,7
 975 1156 975 1156 1037 1106 c 128,-1,8
 1099 1056 1099 1056 1114 938 c 1,9,10
 1234.82 1091.47 1234.82 1091.47 1392 1139.5 c 0,11,12
 1446 1156 1446 1156 1503.5 1156 c 128,-1,13
 1561 1156 1561 1156 1606.5 1140 c 128,-1,14
 1652 1124 1652 1124 1683.5 1089 c 0,15,16
 1747 1018.44 1747 1018.44 1747 860 c 0,17,18
 1747 820.091 1747 820.091 1738.5 750.545 c 2,19,-1
 1723 627 l 2,20,21
 1716 573 1716 573 1707 511 c 2,22,-1
 1633 2 l 1,23,-1
 1357 2 l 1,24,-1
 1429 512 l 2,25,26
 1472.9 825.565 1472.9 825.565 1457.5 876.5 c 0,27,28
 1441.02 931 1441.02 931 1370 931 c 0,29,30
 1282.31 931 1282.31 931 1171.5 823.5 c 0,31,32
 1138 791 1138 791 1110 753 c 1,33,34
 1105 705 1105 705 1097 644 c 0,35,36
 1052.39 323.167 1052.39 323.167 1041.69 252.583 c 2,37,-1
 1005 2 l 1,38,-1
 729 2 l 1,39,-1
 783.5 384.5 l 2,40,41
 793 450 793 450 804 531 c 0,42,43
 843.971 825.328 843.971 825.328 828.5 876.5 c 0,44,45
 812.023 931 812.023 931 741 931 c 0,46,47
 639 931 639 931 519 801 c 0,48,49
 483 762 483 762 454 717 c 1,50,-1
 356 2 l 1,51,-1
 80 2 l 1,52,-1
 235 1140 l 1,0,-1
EndSplineSet
EndChar

StartChar: n
Encoding: 110 110 79
Width: 1257
Flags: HW
LayerCount: 2
Fore
SplineSet
235 1140 m 1,0,-1
 498 1140 l 1,1,-1
 482 928 l 1,2,3
 607.324 1089.6 607.324 1089.6 771.5 1139 c 0,4,5
 828 1156 828 1156 887.5 1156 c 128,-1,6
 947 1156 947 1156 993.5 1140 c 128,-1,7
 1040 1124 1040 1124 1071.5 1089 c 0,8,9
 1136 1017.33 1136 1017.33 1136 860 c 0,10,11
 1136 820.091 1136 820.091 1127.5 750.545 c 2,12,-1
 1112 627 l 2,13,14
 1105 573 1105 573 1096 511 c 2,15,-1
 1022 2 l 1,16,-1
 746 2 l 1,17,-1
 800.5 384.5 l 2,18,19
 810 450 810 450 821 531 c 0,20,21
 860.745 823.665 860.745 823.665 846 876.5 c 0,22,23
 830.791 931 830.791 931 758 931 c 0,24,25
 651.438 931 651.438 931 521.5 796 c 0,26,27
 483 756 483 756 453 711 c 1,28,-1
 356 2 l 1,29,-1
 80 2 l 1,30,-1
 235 1140 l 1,0,-1
EndSplineSet
EndChar

StartChar: o
Encoding: 111 111 80
Width: 1158
Flags: HW
LayerCount: 2
Fore
SplineSet
301.5 19 m 0,0,1
 76.9487 123.097 76.9487 123.097 76.9487 466.323 c 0,2,3
 76.9487 742.157 76.9487 742.157 236 942.5 c 0,4,5
 342.688 1076.89 342.688 1076.89 504.5 1129.5 c 0,6,7
 586 1156 586 1156 685 1156 c 128,-1,8
 784 1156 784 1156 859 1121 c 128,-1,9
 934 1086 934 1086 982.5 1023.5 c 0,10,11
 1079.05 899.076 1079.05 899.076 1079.05 674.432 c 0,12,13
 1079.05 396.611 1079.05 396.611 922.5 197.5 c 0,14,15
 754.634 -16 754.634 -16 480 -16 c 0,16,17
 377 -16 377 -16 301.5 19 c 0,0,1
355.882 451.938 m 0,18,19
 355.882 165 355.882 165 519 165 c 0,20,21
 655.676 165 655.676 165 733 341.5 c 0,22,23
 797.133 487.891 797.133 487.891 797.133 683.698 c 0,24,25
 797.133 837.972 797.133 837.972 758.567 906.986 c 128,-1,26
 720 976 720 976 639 976 c 0,27,28
 503.311 976 503.311 976 423.5 796 c 0,29,30
 355.882 643.501 355.882 643.501 355.882 451.938 c 0,18,19
EndSplineSet
Substitution2: "Single Substitution lookup 16 subtable" ordmasculine
Substitution2: "'aalt' Access All Alternates in Latin lookup 0 subtable" ordmasculine
EndChar

StartChar: p
Encoding: 112 112 81
Width: 1227
Flags: HW
LayerCount: 2
Fore
SplineSet
285 -503 m 1,0,-1
 12 -503 l 1,1,-1
 233 1140 l 1,2,-1
 484 1140 l 1,3,-1
 474 930 l 1,4,5
 566.708 1082.04 566.708 1082.04 707 1136 c 0,6,7
 759 1156 759 1156 832.5 1156 c 128,-1,8
 906 1156 906 1156 967.5 1123.5 c 128,-1,9
 1029 1091 1029 1091 1067.5 1034 c 0,10,11
 1142 923.701 1142 923.701 1142 728 c 0,12,13
 1142 445.685 1142 445.685 976.5 228 c 0,14,15
 861.774 77.0986 861.774 77.0986 676 15.5 c 0,16,17
 581 -16 581 -16 497.5 -16 c 128,-1,18
 414 -16 414 -16 353 -5 c 1,19,-1
 285 -503 l 1,0,-1
854 705 m 0,20,21
 854 958 854 958 739 958 c 0,22,23
 654.769 958 654.769 958 565.5 852.5 c 0,24,25
 493.106 766.943 493.106 766.943 444 654 c 1,26,-1
 378 174 l 1,27,28
 420.25 161 420.25 161 487.625 161 c 128,-1,29
 555 161 555 161 606 184.5 c 128,-1,30
 657 208 657 208 697 248.5 c 128,-1,31
 737 289 737 289 766.5 343 c 128,-1,32
 796 397 796 397 815.5 457.5 c 0,33,34
 854 576.949 854 576.949 854 705 c 0,20,21
EndSplineSet
EndChar

StartChar: q
Encoding: 113 113 82
Width: 1219
Flags: HW
LayerCount: 2
Fore
SplineSet
540.5 1124.5 m 0,0,1
 635 1156 635 1156 744.857 1156 c 128,-1,2
 854.714 1156 854.714 1156 985 1118 c 1,3,-1
 1136 1159 l 1,4,-1
 916 -499 l 1,5,-1
 643 -499 l 1,6,-1
 710 2 l 1,7,-1
 748 226 l 1,8,9
 657.44 63.747 657.44 63.747 512.5 5.5 c 0,10,11
 459 -16 459 -16 385 -16 c 128,-1,12
 311 -16 311 -16 249.5 16.5 c 128,-1,13
 188 49 188 49 149.5 107 c 0,14,15
 75 219.234 75 219.234 75 414 c 0,16,17
 75 696.306 75 696.306 240.5 912.5 c 0,18,19
 355.611 1062.87 355.611 1062.87 540.5 1124.5 c 0,0,1
362 437 m 0,20,21
 362 182 362 182 478 182 c 0,22,23
 556.909 182 556.909 182 645 284 c 0,24,25
 711.059 360.489 711.059 360.489 767 480 c 1,26,-1
 833 968 l 1,27,28
 782 980 782 980 721 980 c 128,-1,29
 660 980 660 980 609.5 956.5 c 128,-1,30
 559 933 559 933 519 892.5 c 128,-1,31
 479 852 479 852 449.5 798 c 128,-1,32
 420 744 420 744 400.5 684 c 0,33,34
 362 565.538 362 565.538 362 437 c 0,20,21
EndSplineSet
EndChar

StartChar: r
Encoding: 114 114 83
Width: 846
Flags: HW
LayerCount: 2
Fore
SplineSet
816 858 m 1,0,1
 792.364 878 792.364 878 738.182 878 c 128,-1,2
 684 878 684 878 648.5 865.5 c 128,-1,3
 613 853 613 853 578.5 829 c 0,4,5
 506.22 778.718 506.22 778.718 451 688 c 1,6,-1
 356 0 l 1,7,-1
 80 0 l 1,8,-1
 236 1140 l 1,9,-1
 501 1140 l 1,10,-1
 483 924 l 1,11,12
 522.974 1011 522.974 1011 602 1077.5 c 0,13,14
 695.29 1156 695.29 1156 804 1156 c 0,15,16
 855.143 1156 855.143 1156 870 1143 c 1,17,-1
 816 858 l 1,0,1
EndSplineSet
EndChar

StartChar: s
Encoding: 115 115 84
Width: 925
Flags: HW
LayerCount: 2
Fore
SplineSet
364 182 m 0,0,1
 531 182 531 182 531 295 c 0,2,3
 531 366.358 531 366.358 415.5 456 c 0,4,5
 270.386 568.626 270.386 568.626 220.5 646 c 0,6,7
 167 728.98 167 728.98 167 819.99 c 128,-1,8
 167 911 167 911 199 971 c 128,-1,9
 231 1031 231 1031 287 1072 c 0,10,11
 401.732 1156 401.732 1156 588 1156 c 0,12,13
 758.8 1156 758.8 1156 850 1118 c 1,14,-1
 812 877 l 1,15,16
 768.561 925.265 768.561 925.265 665.5 950 c 0,17,18
 628 959 628 959 570.5 959 c 128,-1,19
 513 959 513 959 469.5 931 c 128,-1,20
 426 903 426 903 426 859.5 c 128,-1,21
 426 816 426 816 437.5 791.5 c 128,-1,22
 449 767 449 767 470 744 c 128,-1,23
 491 721 491 721 520.5 697 c 2,24,-1
 586 643 l 1,25,26
 691.729 558.898 691.729 558.898 727.864 509.449 c 0,27,28
 797 414.842 797 414.842 797 319.921 c 128,-1,29
 797 225 797 225 762 162.5 c 128,-1,30
 727 100 727 100 667.5 60.5 c 0,31,32
 552.266 -16 552.266 -16 363 -16 c 0,33,34
 211.478 -16 211.478 -16 96 25.5 c 0,35,36
 64 37 64 37 50 48 c 1,37,-1
 97 274 l 1,38,39
 166.335 218.532 166.335 218.532 283 191.5 c 0,40,41
 324 182 324 182 364 182 c 0,0,1
EndSplineSet
EndChar

StartChar: t
Encoding: 116 116 85
Width: 790
Flags: HW
LayerCount: 2
Fore
SplineSet
424 268 m 0,0,1
 424 182 424 182 487 182 c 0,2,3
 539.968 182 539.968 182 639.5 242.5 c 0,4,5
 665 258 665 258 681 272 c 1,6,-1
 720 133 l 1,7,8
 622.378 39.4455 622.378 39.4455 462.5 -3 c 0,9,10
 406 -18 406 -18 354 -18 c 128,-1,11
 302 -18 302 -18 263.5 -6.5 c 128,-1,12
 225 5 225 5 197.5 29 c 0,13,14
 139 80.0546 139 80.0546 139 179 c 0,15,16
 139 229.7 139 229.7 156 347 c 1,17,-1
 234 954 l 1,18,-1
 134 954 l 1,19,-1
 173 1140 l 1,20,-1
 278 1140 l 1,21,-1
 358 1418 l 1,22,-1
 574 1418 l 1,23,-1
 537 1140 l 1,24,-1
 779 1140 l 1,25,-1
 756 954 l 1,26,-1
 512 954 l 1,27,-1
 428 325 l 2,28,29
 424 295 424 295 424 268 c 0,0,1
EndSplineSet
EndChar

StartChar: u
Encoding: 117 117 86
Width: 1233
Flags: HW
LayerCount: 2
Fore
SplineSet
383 -20 m 0,0,1
 112 -20 112 -20 112 253 c 0,2,3
 111.9 258.2 111.9 258.2 111.9 285.5 c 0,4,5
 111.9 328.864 111.9 328.864 127.45 448.432 c 0,6,7
 154.232 653.577 154.232 653.577 162.616 712.788 c 2,8,9
 223 1140 l 1,10,-1
 497 1140 l 1,11,12
 463.031 889.312 463.031 889.312 455.516 829.656 c 2,13,-1
 418 543 l 1,14,15
 395 382 395 382 395 312 c 128,-1,16
 395 242 395 242 422.5 217.5 c 128,-1,17
 450 193 450 193 491 193 c 128,-1,18
 532 193 532 193 570 211.5 c 128,-1,19
 608 230 608 230 645.5 261 c 0,20,21
 716.376 319.591 716.376 319.591 779 418 c 1,22,-1
 877 1140 l 1,23,-1
 1153 1140 l 1,24,-1
 1000 0 l 1,25,-1
 750 0 l 1,26,-1
 763 205 l 1,27,28
 651.834 48.673 651.834 48.673 497 -2 c 0,29,30
 442 -20 442 -20 383 -20 c 0,0,1
EndSplineSet
EndChar

StartChar: w
Encoding: 119 119 87
Width: 1713
Flags: HW
LayerCount: 2
Fore
SplineSet
209 357 m 1,0,-1
 100 1140 l 1,1,-1
 390 1140 l 1,2,-1
 455 417 l 1,3,-1
 466 210 l 1,4,-1
 563 342 l 1,5,6
 731.421 612.494 731.421 612.494 781 867 c 1,7,-1
 748 1140 l 1,8,-1
 1026 1140 l 1,9,-1
 1087 417 l 1,10,-1
 1099 210 l 1,11,-1
 1194 339 l 1,12,13
 1344.61 575.677 1344.61 575.677 1388 836 c 1,14,-1
 1398 901 l 2,15,16
 1419.25 1042.67 1419.25 1042.67 1419.25 1087.83 c 128,-1,17
 1419.25 1133 1419.25 1133 1419 1140 c 1,18,-1
 1673 1140 l 1,19,-1
 1675 1117 l 2,20,21
 1678 1081 1678 1081 1678 1056.5 c 0,22,23
 1678 662.118 1678 662.118 1386.5 293 c 0,24,25
 1302 186 1302 186 1204 93 c 1,26,-1
 1118 -7 l 1,27,-1
 901 -19 l 1,28,-1
 844 357 l 1,29,-1
 831 464 l 1,30,31
 715.246 237.031 715.246 237.031 576 96 c 1,32,-1
 490 -7 l 1,33,-1
 265 -19 l 1,34,-1
 209 357 l 1,0,-1
EndSplineSet
EndChar

StartChar: x
Encoding: 120 120 88
Width: 1003
Flags: HW
LayerCount: 2
Fore
SplineSet
360 597 m 1,0,-1
 82 1140 l 1,1,-1
 403 1140 l 1,2,-1
 539 777 l 1,3,-1
 773 1140 l 1,4,-1
 1057 1140 l 1,5,-1
 634 562 l 1,6,-1
 934 2 l 1,7,-1
 615 2 l 1,8,-1
 457 383 l 1,9,-1
 209 2 l 1,10,-1
 -80 2 l 1,11,-1
 360 597 l 1,0,-1
EndSplineSet
EndChar

StartChar: y
Encoding: 121 121 89
Width: 1095
Flags: HW
LayerCount: 2
Fore
SplineSet
-71 -255 m 1,0,1
 4.57143 -301 4.57143 -301 62.7857 -301 c 128,-1,2
 121 -301 121 -301 163 -288 c 128,-1,3
 205 -275 205 -275 248 -242.5 c 0,4,5
 332.746 -178.448 332.746 -178.448 441 -18 c 1,6,-1
 277 -18 l 1,7,-1
 217 357 l 1,8,-1
 105 1140 l 1,9,-1
 389 1140 l 1,10,-1
 504 95 l 1,11,12
 519 122 519 122 534.5 153.5 c 2,13,-1
 565 217 l 2,14,15
 597.308 285.923 597.308 285.923 615 339 c 1,16,17
 695.104 497.205 695.104 497.205 724.052 610.103 c 0,18,19
 787.665 858.192 787.665 858.192 790.5 1068 c 0,20,21
 791 1105 791 1105 792 1140 c 1,22,-1
 1048 1140 l 1,23,24
 1051.33 1101.67 1051.33 1101.67 1051.33 1065.33 c 0,25,26
 1051.33 838.273 1051.33 838.273 992.167 644.636 c 128,-1,27
 933 451 933 451 862 301 c 0,28,29
 739.112 41.3768 739.112 41.3768 592 -151 c 1,30,-1
 493 -279 l 1,31,32
 313.312 -509 313.312 -509 58 -509 c 0,33,34
 -42 -509 -42 -509 -144 -458 c 1,35,-1
 -71 -255 l 1,0,1
EndSplineSet
EndChar

StartChar: z
Encoding: 122 122 90
Width: 975
Flags: HW
LayerCount: 2
Fore
SplineSet
-37 52 m 1,0,-1
 530 825 l 1,1,-1
 641 929 l 1,2,-1
 153 929 l 1,3,-1
 182 1140 l 1,4,-1
 955 1140 l 1,5,-1
 996 1092 l 1,6,-1
 425 305 l 1,7,-1
 326 214 l 1,8,-1
 859 214 l 1,9,-1
 837 0 l 1,10,-1
 10 0 l 1,11,-1
 -37 52 l 1,0,-1
EndSplineSet
EndChar

StartChar: braceleft
Encoding: 123 123 91
Width: 1024
Flags: HW
LayerCount: 2
Fore
SplineSet
238 -35 m 2,0,1
 323 563 l 1,2,3
 323 600.333 323 600.333 281 628.667 c 0,4,5
 219.266 670.313 219.266 670.313 106 698 c 1,6,-1
 131 861 l 1,7,-1
 232 887 l 1,8,9
 327.248 912.644 327.248 912.644 367 953.5 c 0,10,11
 385 972 385 972 388 989 c 2,12,-1
 470 1517 l 1,13,14
 494.08 1665.5 494.08 1665.5 549 1719.5 c 0,15,16
 604.424 1774 604.424 1774 730 1774 c 0,17,18
 830.867 1774 830.867 1774 1025 1722 c 1,19,20
 1018 1688 1018 1688 1014 1662 c 2,21,-1
 1006.5 1615 l 2,22,23
 1003 1594 1003 1594 1003 1590 c 1,24,-1
 727 1590 l 1,25,-1
 632 965 l 2,26,27
 626 924 626 924 602.5 897.5 c 128,-1,28
 579 871 579 871 553.5 855 c 128,-1,29
 528 839 528 839 499.5 827.5 c 2,30,-1
 364 774 l 1,31,32
 386 762 386 762 410.5 750 c 128,-1,33
 435 738 435 738 458 725.5 c 0,34,35
 511.667 696.333 511.667 696.333 532.333 675.667 c 0,36,37
 580.273 627.727 580.273 627.727 571 569 c 2,38,-1
 478 -43 l 1,39,-1
 753 -43 l 1,40,41
 751 -49 751 -49 748.5 -69 c 2,42,-1
 743 -112 l 2,43,44
 739 -138 739 -138 736 -169 c 1,45,46
 550 -231 550 -231 432 -231 c 128,-1,47
 314 -231 314 -231 273.988 -192.47 c 128,-1,48
 233.976 -153.94 233.976 -153.94 233.976 -73.9744 c 0,49,50
 233.976 -65.1807 233.976 -65.1807 238 -35 c 2,0,1
EndSplineSet
EndChar

StartChar: bar
Encoding: 124 124 92
Width: 854
Flags: HW
LayerCount: 2
Fore
SplineSet
337 1780 m 1,0,-1
 550 1780 l 1,1,-1
 550 -186 l 1,2,-1
 337 -186 l 1,3,-1
 337 1780 l 1,0,-1
EndSplineSet
EndChar

StartChar: asciitilde
Encoding: 126 126 94
Width: 1137
Flags: HW
LayerCount: 2
Fore
SplineSet
401 873 m 0,0,1
 296.182 873 296.182 873 214 760 c 1,2,-1
 104 867 l 1,3,4
 129.414 945.36 129.414 945.36 224 1012 c 0,5,6
 323.355 1082 323.355 1082 431 1082 c 0,7,8
 529 1082 529 1082 636.5 996 c 0,9,10
 705.842 940.526 705.842 940.526 739.421 925.263 c 128,-1,11
 773 910 773 910 803 910 c 0,12,13
 918.924 910 918.924 910 995 1022 c 1,14,-1
 1098 916 l 1,15,16
 1075.45 831.953 1075.45 831.953 981.5 765 c 0,17,18
 884.677 696 884.677 696 776 696 c 0,19,20
 678.2 696 678.2 696 572 784.5 c 0,21,22
 504.256 840.953 504.256 840.953 469.128 856.977 c 128,-1,23
 434 873 434 873 401 873 c 0,0,1
EndSplineSet
EndChar

StartChar: exclam
Encoding: 33 33 96
Width: 686
Flags: HW
LayerCount: 2
Fore
SplineSet
370 1778 m 1,0,-1
 665 1778 l 1,1,-1
 432 488 l 1,2,-1
 224 488 l 1,3,-1
 370 1778 l 1,0,-1
148.5 12.5 m 0,4,5
 130 31 130 31 121.326 54.2826 c 128,-1,6
 112.652 77.5652 112.652 77.5652 112.652 111.321 c 128,-1,7
 112.652 145.077 112.652 145.077 129.326 180.039 c 128,-1,8
 146 215 146 215 171.5 240 c 0,9,10
 226.58 294 226.58 294 306 294 c 256,11,12
 446.133 294 446.133 294 446.133 164.404 c 0,13,14
 446.133 78.5846 446.133 78.5846 387 24 c 0,15,16
 332.833 -26 332.833 -26 251 -26 c 0,17,18
 187 -26 187 -26 148.5 12.5 c 0,4,5
EndSplineSet
EndChar

StartChar: sterling
Encoding: 163 163 97
Width: 1397
Flags: HW
LayerCount: 2
Fore
SplineSet
68.5 -20 m 0,0,1
 26 -20 26 -20 -4.82895 8.49342 c 128,-1,2
 -35.6579 36.9868 -35.6579 36.9868 -35.6579 81.9505 c 0,3,4
 -35.6579 88.7632 -35.6579 88.7632 -34.3289 110.382 c 128,-1,5
 -33 132 -33 132 -8.5 164.5 c 128,-1,6
 16 197 16 197 53 221.5 c 0,7,8
 133.796 275 133.796 275 220 275 c 1,9,10
 287.461 338.245 287.461 338.245 310 487 c 1,11,-1
 351 732 l 1,12,-1
 178 732 l 1,13,-1
 202 913 l 1,14,-1
 382 913 l 1,15,-1
 403 1033 l 1,16,17
 457.09 1379.18 457.09 1379.18 721.5 1501 c 0,18,19
 817 1545 817 1545 917 1545 c 128,-1,20
 1017 1545 1017 1545 1071 1536.5 c 128,-1,21
 1125 1528 1125 1528 1165.5 1514 c 0,22,23
 1236.03 1489.62 1236.03 1489.62 1283 1445 c 1,24,-1
 1151 1247 l 1,25,26
 1138.14 1279.14 1138.14 1279.14 1099.57 1305.57 c 0,27,28
 1021.59 1359 1021.59 1359 959.297 1359 c 128,-1,29
 897 1359 897 1359 855 1342.5 c 128,-1,30
 813 1326 813 1326 778 1286.5 c 0,31,32
 701.739 1200.43 701.739 1200.43 672 1022 c 1,33,-1
 653 913 l 1,34,-1
 961 913 l 1,35,-1
 938 732 l 1,36,-1
 623 732 l 1,37,-1
 604 621 l 2,38,39
 568.302 412.303 568.302 412.303 516.5 318.5 c 0,40,41
 498 285 498 285 474 252 c 1,42,-1
 547 229 l 2,43,44
 707.846 178 707.846 178 837.423 178 c 128,-1,45
 967 178 967 178 1030 225 c 128,-1,46
 1093 272 1093 272 1093 351 c 0,47,48
 1093 410.621 1093 410.621 1038.5 467 c 0,49,50
 1024 482 1024 482 1011 490 c 1,51,-1
 1194 634 l 1,52,53
 1299.76 568.675 1299.76 568.675 1337.5 432.5 c 0,54,55
 1349 391 1349 391 1349 354 c 128,-1,56
 1349 317 1349 317 1343 276 c 128,-1,57
 1337 235 1337 235 1320 193.5 c 128,-1,58
 1303 152 1303 152 1271 113.5 c 128,-1,59
 1239 75 1239 75 1187 45.5 c 0,60,61
 1071.54 -20 1071.54 -20 879 -20 c 0,62,63
 732.111 -20 732.111 -20 611.556 11 c 128,-1,64
 491 42 491 42 428 61.5 c 128,-1,65
 365 81 365 81 305 94 c 1,66,67
 213.8 -20 213.8 -20 68.5 -20 c 0,0,1
EndSplineSet
EndChar

StartChar: currency
Encoding: 164 164 98
Width: 1540
Flags: HW
LayerCount: 2
Fore
SplineSet
1023 323 m 1,0,1
 914.412 252 914.412 252 783.8 252 c 128,-1,2
 653.188 252 653.188 252 548 318 c 1,3,-1
 346 116 l 1,4,-1
 218 243 l 1,5,-1
 418 443 l 1,6,7
 342 554.889 342 554.889 342 688.416 c 128,-1,8
 342 821.943 342 821.943 416 934 c 1,9,-1
 215 1135 l 1,10,-1
 342 1263 l 1,11,-1
 545 1059 l 1,12,13
 654.969 1128 654.969 1128 786.04 1128 c 128,-1,14
 917.111 1128 917.111 1128 1029 1052 c 1,15,-1
 1228 1250 l 1,16,-1
 1355 1122 l 1,17,-1
 1155 922 l 1,18,19
 1222 815.219 1222 815.219 1222 687.668 c 128,-1,20
 1222 560.118 1222 560.118 1150 450 c 1,21,-1
 1353 248 l 1,22,-1
 1225 121 l 1,23,-1
 1023 323 l 1,0,1
533 690.5 m 0,24,25
 533 637 533 637 552.5 589.5 c 128,-1,26
 572 542 572 542 605.5 506.5 c 0,27,28
 677.69 430 677.69 430 782 430 c 256,29,30
 884.732 430 884.732 430 958 506.5 c 0,31,32
 1031 582.721 1031 582.721 1031 690 c 0,33,34
 1031 798.279 1031 798.279 958 874.5 c 0,35,36
 884.732 951 884.732 951 782 951 c 256,37,38
 677.69 951 677.69 951 605.5 874.5 c 0,39,40
 533 797.672 533 797.672 533 690.5 c 0,24,25
EndSplineSet
EndChar

StartChar: brokenbar
Encoding: 166 166 99
Width: 854
Flags: HW
LayerCount: 2
Fore
SplineSet
337 1780 m 1,0,-1
 550 1780 l 1,1,-1
 550 901 l 1,2,-1
 337 901 l 1,3,-1
 337 1780 l 1,0,-1
337 693 m 1,4,-1
 550 693 l 1,5,-1
 550 -186 l 1,6,-1
 337 -186 l 1,7,-1
 337 693 l 1,4,-1
EndSplineSet
EndChar

StartChar: section
Encoding: 167 167 100
Width: 1194
Flags: HW
LayerCount: 2
Fore
SplineSet
976 375 m 1,0,1
 1036.03 297.187 1036.03 297.187 1036.03 205.634 c 128,-1,2
 1036.03 114.081 1036.03 114.081 1000.51 44.0405 c 128,-1,3
 965 -26 965 -26 895 -77.5 c 0,4,5
 746.165 -187 746.165 -187 492 -187 c 0,6,7
 370.917 -187 370.917 -187 281.958 -156.5 c 0,8,9
 140.402 -107.966 140.402 -107.966 99 -69 c 1,10,-1
 155 132 l 1,11,12
 214.733 58.0445 214.733 58.0445 410 25.5 c 0,13,14
 461 17 461 17 500 17 c 0,15,16
 775 17 775 17 775 171 c 0,17,18
 775 249.043 775 249.043 636 321.5 c 0,19,20
 589 346 589 346 521 377.5 c 128,-1,21
 453 409 453 409 386 452.5 c 128,-1,22
 319 496 319 496 267 551 c 0,23,24
 151.92 672.719 151.92 672.719 151.92 829.98 c 128,-1,25
 151.92 987.24 151.92 987.24 330 1089 c 1,26,27
 245.971 1188.51 245.971 1188.51 245.971 1323.34 c 0,28,29
 245.971 1474.98 245.971 1474.98 378 1571 c 0,30,31
 518.25 1673 518.25 1673 764 1673 c 0,32,33
 953.324 1673 953.324 1673 1077 1601.5 c 0,34,35
 1109 1583 1109 1583 1126 1568 c 1,36,-1
 1061 1382 l 1,37,38
 1006.51 1454.65 1006.51 1454.65 828.5 1473.5 c 0,39,40
 786 1478 786 1478 759 1478 c 0,41,42
 642 1478 642 1478 578.5 1438.5 c 0,43,44
 510.778 1396.37 510.778 1396.37 510.778 1331.17 c 0,45,46
 510.778 1256.81 510.778 1256.81 574 1207 c 0,47,48
 607 1181 607 1181 657 1155.5 c 2,49,-1
 772 1097 l 2,50,51
 1126.02 917.422 1126.02 917.422 1126.02 663.517 c 0,52,53
 1126.02 487.518 1126.02 487.518 976 375 c 1,0,1
456 984 m 1,54,55
 400.75 928.75 400.75 928.75 400.75 847.188 c 0,56,57
 400.75 765.25 400.75 765.25 459.5 706.5 c 0,58,59
 508 658 508 658 611 604 c 128,-1,60
 714 550 714 550 755.5 531 c 128,-1,61
 797 512 797 512 835 490 c 1,62,63
 880.222 542.006 880.222 542.006 882 622 c 1,64,65
 882 698.891 882 698.891 845 741.945 c 0,66,67
 781.578 815.745 781.578 815.745 629 893 c 1,68,-1
 541.5 936 l 2,69,70
 498 958 498 958 456 984 c 1,54,55
EndSplineSet
EndChar

StartChar: dieresis
Encoding: 168 168 101
Width: 813
Flags: HW
LayerCount: 2
Fore
SplineSet
675.5 1377 m 128,-1,1
 644 1363 644 1363 611 1363 c 128,-1,2
 578 1363 578 1363 553.5 1375 c 128,-1,3
 529 1387 529 1387 511 1407 c 0,4,5
 448.824 1476.08 448.824 1476.08 487.5 1572 c 0,6,7
 513.015 1635.28 513.015 1635.28 572.5 1662.5 c 0,8,9
 602 1676 602 1676 635.5 1676 c 128,-1,10
 669 1676 669 1676 695.5 1664.5 c 0,11,12
 746.404 1642.41 746.404 1642.41 768 1589.5 c 0,13,14
 777.091 1567.23 777.091 1567.23 777.091 1536.51 c 128,-1,15
 777.091 1505.79 777.091 1505.79 764.045 1472.4 c 128,-1,16
 751 1439 751 1439 729 1415 c 128,-1,0
 707 1391 707 1391 675.5 1377 c 128,-1,1
165 1363 m 0,17,18
 132 1363 132 1363 107.5 1375 c 0,19,20
 58.2603 1399.12 58.2603 1399.12 36.5 1453 c 0,21,22
 26.913 1476.74 26.913 1476.74 26.913 1507.52 c 128,-1,23
 26.913 1538.3 26.913 1538.3 39.9565 1570.65 c 128,-1,24
 53 1603 53 1603 75 1626 c 0,25,26
 122.826 1676 122.826 1676 191 1676 c 0,27,28
 253.179 1676 253.179 1676 293.5 1633.5 c 0,29,30
 330.095 1594.93 330.095 1594.93 330.095 1543.12 c 0,31,32
 330.095 1466.38 330.095 1466.38 283 1415 c 0,33,34
 235.333 1363 235.333 1363 165 1363 c 0,17,18
EndSplineSet
EndChar

StartChar: copyright
Encoding: 169 169 102
Width: 2110
Flags: HW
LayerCount: 2
Fore
SplineSet
185 962.5 m 0,0,1
 185 1084 185 1084 215.5 1196.5 c 128,-1,2
 246 1309 246 1309 302.5 1406 c 128,-1,3
 359 1503 359 1503 438 1583 c 128,-1,4
 517 1663 517 1663 613.5 1720 c 0,5,6
 814.965 1839 814.965 1839 1055 1839 c 0,7,8
 1294.49 1839 1294.49 1839 1497 1720 c 0,9,10
 1693.32 1604.63 1693.32 1604.63 1808 1406 c 0,11,12
 1926 1201.61 1926 1201.61 1926 963 c 0,13,14
 1926 723.946 1926 723.946 1808 518.5 c 0,15,16
 1631.44 211.092 1631.44 211.092 1288 114.5 c 0,17,18
 1176 83 1176 83 1055 83 c 256,19,20
 816.658 83 816.658 83 613.5 203 c 0,21,22
 418.625 318.108 418.625 318.108 302.5 518.5 c 0,23,24
 185 721.266 185 721.266 185 962.5 c 0,0,1
327 963 m 256,25,26
 327 758.761 327 758.761 423 584.5 c 0,27,28
 568.099 321.115 568.099 321.115 855.5 239 c 0,29,30
 950 212 950 212 1055 212 c 256,31,32
 1259.73 212 1259.73 212 1430 315 c 0,33,34
 1680.22 466.365 1680.22 466.365 1758 763.5 c 0,35,36
 1783 859 1783 859 1783 962.5 c 128,-1,37
 1783 1066 1783 1066 1758 1162 c 128,-1,38
 1733 1258 1733 1258 1687 1341 c 128,-1,39
 1641 1424 1641 1424 1576 1492.5 c 128,-1,40
 1511 1561 1511 1561 1430 1610 c 0,41,42
 1259.73 1713 1259.73 1713 1055 1713 c 256,43,44
 850.265 1713 850.265 1713 680 1610 c 0,45,46
 517.656 1511.79 517.656 1511.79 423 1341 c 0,47,48
 327 1167.78 327 1167.78 327 963 c 256,25,26
1094 660 m 0,49,50
 1229.62 660 1229.62 660 1330 722 c 1,51,-1
 1374 574 l 1,52,53
 1293.5 506.914 1293.5 506.914 1153 483 c 0,54,55
 1106 475 1106 475 1029 475 c 128,-1,56
 952 475 952 475 870 514.5 c 128,-1,57
 788 554 788 554 730 620 c 0,58,59
 610 756.552 610 756.552 610 955 c 0,60,61
 610 1176 610 1176 736 1310 c 0,62,63
 870.463 1453 870.463 1453 1106 1453 c 0,64,65
 1254 1453 1254 1453 1352 1397 c 1,66,-1
 1317 1213 l 1,67,68
 1232.04 1272 1232.04 1272 1098 1272 c 0,69,70
 976.857 1272 976.857 1272 904 1189.5 c 0,71,72
 833 1109.1 833 1109.1 833 982 c 0,73,74
 833 742.021 833 742.021 988.5 679.5 c 0,75,76
 1037 660 1037 660 1094 660 c 0,49,50
EndSplineSet
EndChar

StartChar: guilsinglleft
Encoding: 8249 8249 104
Width: 1190
Flags: HW
LayerCount: 2
Fore
SplineSet
231 705 m 1,0,-1
 948 1101 l 1,1,-1
 996 941 l 1,2,-1
 526 610 l 1,3,-1
 915 284 l 1,4,-1
 825 142 l 1,5,-1
 204 530 l 1,6,-1
 231 705 l 1,0,-1
EndSplineSet
EndChar

StartChar: registered
Encoding: 174 174 105
Width: 2110
Flags: HW
LayerCount: 2
Fore
SplineSet
183 962.5 m 0,0,1
 183 1084 183 1084 214 1196.5 c 128,-1,2
 245 1309 245 1309 301 1406 c 128,-1,3
 357 1503 357 1503 436.5 1583 c 128,-1,4
 516 1663 516 1663 613 1720 c 0,5,6
 815.509 1839 815.509 1839 1055 1839 c 128,-1,7
 1294.49 1839 1294.49 1839 1497 1720 c 0,8,9
 1694.05 1604.21 1694.05 1604.21 1809.5 1406 c 0,10,11
 1928 1202.56 1928 1202.56 1928 963 c 0,12,13
 1928 722.991 1928 722.991 1809.5 518.5 c 0,14,15
 1693.63 318.544 1693.63 318.544 1497 203 c 0,16,17
 1292.79 83 1292.79 83 1055 83 c 128,-1,18
 817.211 83 817.211 83 613 203 c 0,19,20
 415.579 319.011 415.579 319.011 301 518.5 c 0,21,22
 183 723.946 183 723.946 183 962.5 c 0,0,1
325 963 m 256,23,24
 325 650.55 325 650.55 533.5 432.5 c 0,25,26
 666.661 293.24 666.661 293.24 856.5 239 c 0,27,28
 951 212 951 212 1055 212 c 256,29,30
 1258.18 212 1258.18 212 1429.5 315 c 0,31,32
 1593.24 413.447 1593.24 413.447 1688.5 584.5 c 0,33,34
 1785 757.785 1785 757.785 1785 963 c 0,35,36
 1785 1274.45 1785 1274.45 1576.5 1492.5 c 0,37,38
 1444.65 1630.38 1444.65 1630.38 1253.5 1685 c 0,39,40
 1159 1712 1159 1712 1055 1712 c 256,41,42
 852.742 1712 852.742 1712 680.5 1609.5 c 0,43,44
 517.622 1512.57 517.622 1512.57 421.5 1341 c 0,45,46
 325 1168.75 325 1168.75 325 963 c 256,23,24
1028 842 m 1,47,-1
 980 841 l 2,48,49
 950 841 950 841 920 841 c 1,50,-1
 920 483 l 1,51,-1
 719 483 l 1,52,-1
 719 1445 l 1,53,-1
 806 1445 l 1,54,-1
 1067 1452 l 1,55,56
 1246.28 1452 1246.28 1452 1342.5 1372 c 0,57,58
 1430 1299.25 1430 1299.25 1430 1177 c 0,59,60
 1430 924.185 1430 924.185 1237 867 c 1,61,62
 1291.71 831.097 1291.71 831.097 1323.85 775.049 c 128,-1,63
 1356 719 1356 719 1373 683 c 128,-1,64
 1390 647 1390 647 1403 623.5 c 128,-1,65
 1416 600 1416 600 1423.5 587.5 c 128,-1,66
 1431 575 1431 575 1441 560.5 c 2,67,-1
 1463.5 527 l 2,68,69
 1476 508 1476 508 1494 483 c 1,70,-1
 1264 484 l 1,71,72
 1244 508 1244 508 1230.5 535 c 2,73,-1
 1200 596 l 2,74,75
 1185 628 1185 628 1169 666 c 128,-1,76
 1153 704 1153 704 1133 739 c 0,77,78
 1085.8 821.6 1085.8 821.6 1028 842 c 1,47,-1
1123.25 1293.55 m 0,79,80
 1086.5 1303.09 1086.5 1303.09 1022.66 1303.09 c 128,-1,81
 958.818 1303.09 958.818 1303.09 920 1292 c 1,82,-1
 920 989 l 1,83,84
 947.5 984 947.5 984 989.75 984 c 2,85,-1
 1045 984 l 2,86,87
 1134 984 1134 984 1179.5 1023.5 c 128,-1,88
 1225 1063 1225 1063 1225 1151 c 0,89,90
 1225 1267.12 1225 1267.12 1123.25 1293.55 c 0,79,80
EndSplineSet
EndChar

StartChar: macron
Encoding: 175 175 106
Width: 617
Flags: HW
LayerCount: 2
Fore
SplineSet
45 1594 m 1,0,-1
 588 1594 l 1,1,-1
 577 1415 l 1,2,-1
 34 1415 l 1,3,-1
 45 1594 l 1,0,-1
EndSplineSet
EndChar

StartChar: degree
Encoding: 176 176 107
Width: 928
Flags: HW
LayerCount: 2
Fore
SplineSet
514 935 m 0,0,1
 439 935 439 935 376.5 962 c 0,2,3
 250.426 1016.46 250.426 1016.46 199 1144 c 0,4,5
 174.962 1203.62 174.962 1203.62 174.962 1271.55 c 0,6,7
 174.962 1420.32 174.962 1420.32 278.5 1519.5 c 0,8,9
 380.286 1617 380.286 1617 533 1617 c 0,10,11
 678 1617 678 1617 778 1517 c 0,12,13
 873.038 1421.96 873.038 1421.96 873.038 1282.37 c 0,14,15
 873.038 1132.07 873.038 1132.07 768 1032.5 c 0,16,17
 665.143 935 665.143 935 514 935 c 0,0,1
521 1089 m 0,18,19
 559 1089 559 1089 592 1103 c 128,-1,20
 625 1117 625 1117 649 1142.5 c 0,21,22
 701 1197.75 701 1197.75 701 1277 c 0,23,24
 701.069 1279.69 701.069 1279.69 701.069 1299.02 c 128,-1,25
 701.069 1318.34 701.069 1318.34 688.034 1351.17 c 128,-1,26
 675 1384 675 1384 651.5 1409.5 c 0,27,28
 601.275 1464 601.275 1464 527 1464 c 0,29,30
 449.88 1464 449.88 1464 399 1411 c 0,31,32
 346.931 1356.76 346.931 1356.76 346.931 1271.64 c 0,33,34
 346.931 1198.9 346.931 1198.9 396 1144.5 c 0,35,36
 446.059 1089 446.059 1089 521 1089 c 0,18,19
EndSplineSet
EndChar

StartChar: plusminus
Encoding: 177 177 108
Width: 1361
Flags: HW
LayerCount: 2
Fore
SplineSet
556 531 m 1,0,-1
 581 681 l 1,1,-1
 449 674 l 1,2,-1
 212 674 l 1,3,-1
 238 884 l 1,4,-1
 475 884 l 1,5,-1
 603 873 l 1,6,-1
 615 1025 l 1,7,-1
 643 1280 l 1,8,-1
 868 1280 l 1,9,-1
 842 1025 l 1,10,-1
 815 874 l 1,11,-1
 921 884 l 1,12,-1
 1186 884 l 1,13,-1
 1160 674 l 1,14,-1
 895 674 l 1,15,-1
 791 681 l 1,16,-1
 782 531 l 1,17,-1
 752 273 l 1,18,-1
 526 273 l 1,19,-1
 556 531 l 1,0,-1
185 194 m 1,20,-1
 1072 194 l 1,21,-1
 1055 15 l 1,22,-1
 168 15 l 1,23,-1
 185 194 l 1,20,-1
EndSplineSet
EndChar

StartChar: acute
Encoding: 180 180 109
Width: 562
Flags: HW
LayerCount: 2
Fore
SplineSet
34 1319 m 1,0,-1
 355 1744 l 1,1,-1
 535 1575 l 1,2,3
 505.13 1518.58 505.13 1518.58 368 1396.5 c 0,4,5
 218.707 1263.59 218.707 1263.59 138 1234 c 1,6,-1
 34 1319 l 1,0,-1
EndSplineSet
EndChar

StartChar: paragraph
Encoding: 182 182 110
Width: 1364
Flags: HW
LayerCount: 2
Fore
SplineSet
479 726 m 1,0,1
 317.828 730.029 317.828 730.029 221.5 830.5 c 0,2,3
 120.881 935.447 120.881 935.447 120.881 1107.01 c 0,4,5
 120.881 1432.97 120.881 1432.97 438 1534.5 c 0,6,7
 552 1571 552 1571 716 1571 c 0,8,9
 801 1571 801 1571 885.5 1564.5 c 0,10,11
 1048 1552 1048 1552 1100 1552 c 2,12,-1
 1404 1552 l 1,13,-1
 1386 1405 l 1,14,-1
 1219 1372 l 1,15,-1
 1042 0 l 1,16,-1
 807 0 l 1,17,-1
 980 1368 l 1,18,-1
 786 1368 l 1,19,-1
 611 0 l 1,20,-1
 377 0 l 1,21,-1
 479 726 l 1,0,1
EndSplineSet
EndChar

StartChar: cedilla
Encoding: 184 184 112
Width: 482
Flags: HW
LayerCount: 2
Fore
SplineSet
232 -199 m 128,-1,1
 246 -169 246 -169 247.071 -133.214 c 128,-1,2
 248.143 -97.4286 248.143 -97.4286 248.143 -49.4286 c 128,-1,3
 248.143 -1.42855 248.143 -1.42855 241 30 c 1,4,-1
 330 34 l 1,5,-1
 401 30 l 1,6,7
 434.275 -16.5854 434.275 -16.5854 449.5 -135 c 0,8,9
 454 -170 454 -170 454 -202 c 0,10,11
 454 -468 454 -468 165 -468 c 0,12,13
 83 -468 83 -468 31 -455 c 128,-1,14
 -21 -442 -21 -442 -30 -436 c 1,15,-1
 1 -259 l 1,16,17
 28.8571 -274 28.8571 -274 69.9286 -274 c 128,-1,18
 111 -274 111 -274 141.5 -268 c 128,-1,19
 172 -262 172 -262 195 -245.5 c 128,-1,0
 218 -229 218 -229 232 -199 c 128,-1,1
EndSplineSet
EndChar

StartChar: questiondown
Encoding: 191 191 114
Width: 1048
Flags: HW
LayerCount: 2
Fore
SplineSet
671.5 1145.5 m 128,-1,1
 638 1130 638 1130 598 1130 c 128,-1,2
 558 1130 558 1130 531 1140.5 c 128,-1,3
 504 1151 504 1151 487.5 1169 c 0,4,5
 456 1203.36 456 1203.36 456 1275.68 c 128,-1,6
 456 1348 456 1348 506 1399 c 128,-1,7
 556 1450 556 1450 629 1450 c 128,-1,8
 702 1450 702 1450 740 1413 c 128,-1,9
 778 1376 778 1376 778 1328.5 c 128,-1,10
 778 1281 778 1281 765.5 1247 c 128,-1,11
 753 1213 753 1213 729 1187 c 128,-1,0
 705 1161 705 1161 671.5 1145.5 c 128,-1,1
67 79 m 0,12,13
 67 167 67 167 91.5 234 c 128,-1,14
 116 301 116 301 155.5 351.5 c 128,-1,15
 195 402 195 402 246 439.5 c 128,-1,16
 297 477 297 477 350.5 507 c 2,17,-1
 455 563.5 l 1,18,19
 565.923 621.136 565.923 621.136 609.5 682.5 c 0,20,21
 634 717 634 717 634 750 c 128,-1,22
 634 783 634 783 628.5 803.5 c 128,-1,23
 623 824 623 824 615.5 842.5 c 128,-1,24
 608 861 608 861 601 876.5 c 128,-1,25
 594 892 594 892 591 903 c 1,26,-1
 738 961 l 1,27,-1
 755 960 l 1,28,29
 824.2 908.1 824.2 908.1 853 794.5 c 0,30,31
 862 759 862 759 862 719.5 c 128,-1,32
 862 680 862 680 847.5 641.5 c 128,-1,33
 833 603 833 603 801 567 c 0,34,35
 741.826 500.43 741.826 500.43 591 422 c 1,36,37
 367.354 314.65 367.354 314.65 334 222 c 1,38,39
 318 164.4 318 164.4 318 108.2 c 128,-1,40
 318 52 318 52 343 4.5 c 128,-1,41
 368 -43 368 -43 411.5 -76 c 0,42,43
 502.455 -145 502.455 -145 637 -145 c 0,44,45
 755.118 -145 755.118 -145 849 -117 c 1,46,-1
 807 -302 l 1,47,48
 768.668 -337.137 768.668 -337.137 659.5 -351 c 0,49,50
 628 -355 628 -355 598 -355 c 0,51,52
 329.294 -355 329.294 -355 190 -225.5 c 0,53,54
 67 -111.148 67 -111.148 67 79 c 0,12,13
EndSplineSet
EndChar

StartChar: Eth
Encoding: 208 208 115
Width: 1408
Flags: HW
LayerCount: 2
Fore
SplineSet
552 -15 m 2,0,-1
 243 1 l 1,1,-1
 97 1 l 1,2,-1
 191 698 l 1,3,-1
 36 698 l 1,4,-1
 56 888 l 1,5,-1
 216 888 l 1,6,-1
 303 1531 l 1,7,-1
 442 1531 l 1,8,-1
 784 1547 l 1,9,10
 1363.04 1547 1363.04 1547 1363.04 917.347 c 0,11,12
 1363.04 524.313 1363.04 524.313 1155 262 c 0,13,14
 1014.02 84.2442 1014.02 84.2442 793.5 17 c 0,15,16
 688.194 -15.1111 688.194 -15.1111 566.387 -15.1111 c 0,17,18
 559.222 -15.1111 559.222 -15.1111 552 -15 c 2,0,-1
402 215 m 1,19,20
 476.376 189.556 476.376 189.556 573.728 189.556 c 0,21,22
 585.778 189.556 585.778 189.556 598 190 c 0,23,24
 833.888 192.842 833.888 192.842 964.5 421 c 0,25,26
 1078.08 619.4 1078.08 619.4 1078.08 908.861 c 0,27,28
 1078.08 1158.52 1078.08 1158.52 991 1254.5 c 0,29,30
 909.804 1344 909.804 1344 718 1344 c 0,31,32
 636 1344 636 1344 551 1327 c 1,33,-1
 492 888 l 1,34,-1
 831 888 l 1,35,-1
 810 698 l 1,36,-1
 467 698 l 1,37,-1
 402 215 l 1,19,20
EndSplineSet
EndChar

StartChar: multiply
Encoding: 215 215 116
Width: 1384
Flags: HW
LayerCount: 2
Fore
SplineSet
199 446 m 1,0,-1
 583 778 l 1,1,-1
 276 1110 l 1,2,-1
 446 1264 l 1,3,-1
 732 908 l 1,4,-1
 1106 1264 l 1,5,-1
 1244 1099 l 1,6,-1
 856 767 l 1,7,-1
 1167 435 l 1,8,-1
 996 281 l 1,9,-1
 706 637 l 1,10,-1
 336 282 l 1,11,-1
 199 446 l 1,0,-1
EndSplineSet
EndChar

StartChar: Thorn
Encoding: 222 222 117
Width: 1258
Flags: HW
LayerCount: 2
Fore
SplineSet
543 1284 m 1,0,1
 633 1293 633 1293 716 1293 c 0,2,3
 953 1293 953 1293 1082 1191.5 c 0,4,5
 1213.02 1088.41 1213.02 1088.41 1213.02 878.943 c 0,6,7
 1213.02 608.022 1213.02 608.022 1044.5 439.5 c 0,8,9
 869 264 869 264 578 264 c 0,10,11
 518 264 518 264 473.5 268.5 c 2,12,-1
 409 275 l 1,13,-1
 373 0 l 1,14,-1
 93 0 l 1,15,-1
 297 1530 l 1,16,-1
 576 1530 l 1,17,-1
 543 1284 l 1,0,1
664.667 1095 m 0,18,19
 586.333 1095 586.333 1095 517 1082 c 1,20,-1
 516 1082 l 1,21,-1
 437 487 l 1,22,23
 481 475 481 475 577 475 c 128,-1,24
 673 475 673 475 738.5 501 c 128,-1,25
 804 527 804 527 847.5 576.5 c 0,26,27
 939.25 680.905 939.25 680.905 939.25 874.805 c 0,28,29
 939.25 1095 939.25 1095 664.667 1095 c 0,18,19
EndSplineSet
EndChar

StartChar: germandbls
Encoding: 223 223 118
Width: 1255
Flags: HW
LayerCount: 2
Fore
SplineSet
192 929 m 1,0,1
 248.915 1335.54 248.915 1335.54 450 1483 c 0,2,3
 561.563 1564.81 561.563 1564.81 701.5 1580 c 0,4,5
 766 1587 766 1587 835.5 1587 c 128,-1,6
 905 1587 905 1587 972 1568 c 128,-1,7
 1039 1549 1039 1549 1087.5 1511.5 c 0,8,9
 1190 1432.25 1190 1432.25 1190 1290 c 0,10,11
 1190 1117.38 1190 1117.38 1068 1003 c 0,12,13
 990.323 930.177 990.323 930.177 968.161 895.089 c 128,-1,14
 946 860 946 860 946 824.5 c 128,-1,15
 946 789 946 789 974 744 c 128,-1,16
 1002 699 1002 699 1035.5 654 c 128,-1,17
 1069 609 1069 609 1091.5 574.5 c 128,-1,18
 1114 540 1114 540 1132 501 c 0,19,20
 1172 414.333 1172 414.333 1172 329.167 c 128,-1,21
 1172 244 1172 244 1143.5 181.5 c 128,-1,22
 1115 119 1115 119 1060.5 75 c 0,23,24
 947.784 -16 947.784 -16 748 -16 c 0,25,26
 628.875 -16 628.875 -16 529.5 14 c 0,27,28
 503 22 503 22 487 31 c 1,29,-1
 512 257 l 1,30,31
 554.992 210.426 554.992 210.426 649.5 188 c 0,32,33
 679 181 679 181 716.5 181 c 128,-1,34
 754 181 754 181 789 188.5 c 128,-1,35
 824 196 824 196 847.5 212.5 c 0,36,37
 894 245.149 894 245.149 894 324 c 0,38,39
 894 391.647 894 391.647 830 482 c 2,40,-1
 798 527 l 1,41,42
 674 688.2 674 688.2 674 789 c 0,43,44
 674 879.884 674 879.884 746.5 962.5 c 1,45,-1
 791 1011 l 1,46,47
 891.803 1108.44 891.803 1108.44 915.5 1194.5 c 0,48,49
 925 1229 925 1229 925 1263 c 128,-1,50
 925 1297 925 1297 915 1322 c 128,-1,51
 905 1347 905 1347 886 1365.5 c 0,52,53
 844.405 1406 844.405 1406 781.203 1406 c 128,-1,54
 718 1406 718 1406 669 1381 c 128,-1,55
 620 1356 620 1356 579 1294.5 c 0,56,57
 492.717 1165.07 492.717 1165.07 455 869 c 2,58,-1
 342 2 l 1,59,-1
 71 2 l 1,60,-1
 192 929 l 1,0,1
EndSplineSet
EndChar

StartChar: eth
Encoding: 240 240 119
Width: 1197
Flags: HW
LayerCount: 2
Fore
SplineSet
411 1798 m 1,0,1
 556.6 1760.56 556.6 1760.56 712 1654 c 1,2,3
 841.771 1802.9 841.771 1802.9 855 1819 c 1,4,-1
 963 1717 l 1,5,-1
 826 1562 l 1,6,7
 1117 1285.92 1117 1285.92 1117 836 c 0,8,9
 1117 466 1117 466 962 233.5 c 0,10,11
 795.667 -16 795.667 -16 506 -16 c 0,12,13
 300.93 -16 300.93 -16 182.5 129.5 c 0,14,15
 78 257.886 78 257.886 78 431.943 c 128,-1,16
 78 606 78 606 121.5 740 c 128,-1,17
 165 874 165 874 240.5 966.5 c 0,18,19
 395.989 1157 395.989 1157 635 1157 c 0,20,21
 795.857 1157 795.857 1157 853 1077 c 1,22,23
 832.685 1273.38 832.685 1273.38 699 1420 c 1,24,-1
 571 1277 l 1,25,-1
 455 1378 l 1,26,-1
 593 1519 l 1,27,28
 474.352 1617.87 474.352 1617.87 359 1649 c 1,29,-1
 411 1798 l 1,0,1
464 174 m 128,-1,31
 495 152 495 152 540 152 c 128,-1,32
 585 152 585 152 629.5 185.5 c 128,-1,33
 674 219 674 219 710 276.5 c 0,34,35
 801.85 423.204 801.85 423.204 834 771.5 c 0,36,37
 837.08 804.867 837.08 804.867 837.08 824.613 c 128,-1,38
 837.08 844.36 837.08 844.36 826.04 872.68 c 128,-1,39
 815 901 815 901 790 928.5 c 0,40,41
 729.545 995 729.545 995 641 995 c 0,42,43
 468.945 995 468.945 995 398.5 686.5 c 0,44,45
 370 561.69 370 561.69 370 465.345 c 128,-1,46
 370 369 370 369 380.5 320 c 128,-1,47
 391 271 391 271 412 233.5 c 128,-1,30
 433 196 433 196 464 174 c 128,-1,31
EndSplineSet
EndChar

StartChar: oslash
Encoding: 248 248 120
Width: 1158
Flags: HW
LayerCount: 2
Fore
SplineSet
940 1070 m 1,0,1
 1079.05 946.615 1079.05 946.615 1079.05 676.432 c 0,2,3
 1079.05 398.611 1079.05 398.611 922.5 199.5 c 0,4,5
 754.634 -14 754.634 -14 480 -14 c 0,6,7
 364 -14 364 -14 282 30 c 1,8,-1
 175 -132 l 1,9,-1
 86 -83 l 1,10,-1
 201 91 l 1,11,12
 76.9487 217.02 76.9487 217.02 76.9487 468.323 c 0,13,14
 76.9487 744.157 76.9487 744.157 236 944.5 c 0,15,16
 342.688 1078.89 342.688 1078.89 504.5 1131.5 c 0,17,18
 586 1158 586 1158 682.5 1158 c 128,-1,19
 779 1158 779 1158 855 1124 c 1,20,-1
 968 1303 l 1,21,-1
 1057 1254 l 1,22,-1
 940 1070 l 1,0,1
725 950 m 1,23,24
 691 978 691 978 640.5 978 c 128,-1,25
 590 978 590 978 550 954.5 c 128,-1,26
 510 931 510 931 478.5 891 c 128,-1,27
 447 851 447 851 423.5 798 c 0,28,29
 355.882 645.501 355.882 645.501 355.882 453.938 c 0,30,31
 355.882 375.565 355.882 375.565 366 327 c 1,32,-1
 725 950 l 1,23,24
414 212 m 1,33,34
 453 167 453 167 510.5 167 c 128,-1,35
 568 167 568 167 608 190 c 128,-1,36
 648 213 648 213 679 252 c 128,-1,37
 710 291 710 291 733 343.5 c 0,38,39
 797.133 489.891 797.133 489.891 797.133 685.698 c 0,40,41
 797.133 792.142 797.133 792.142 782 847 c 1,42,-1
 414 212 l 1,33,34
EndSplineSet
EndChar

StartChar: thorn
Encoding: 254 254 121
Width: 1227
Flags: HW
LayerCount: 2
Fore
SplineSet
679.5 15 m 0,0,1
 585 -16 585 -16 503.4 -16 c 128,-1,2
 421.8 -16 421.8 -16 345 -4 c 1,3,-1
 282 -504 l 1,4,-1
 10 -504 l 1,5,-1
 80 -8 l 1,6,-1
 302 1636 l 1,7,-1
 566 1636 l 1,8,-1
 496 1062 l 1,9,-1
 469 915 l 1,10,11
 558.801 1075.89 558.801 1075.89 706 1134.5 c 0,12,13
 760 1156 760 1156 834.5 1156 c 128,-1,14
 909 1156 909 1156 970.5 1123 c 128,-1,15
 1032 1090 1032 1090 1070.5 1032 c 0,16,17
 1145 919.766 1145 919.766 1145 724 c 0,18,19
 1145 440.703 1145 440.703 979.5 226 c 0,20,21
 863.341 75.3077 863.341 75.3077 679.5 15 c 0,0,1
857 702 m 0,22,23
 857 958 857 958 742 958 c 0,24,25
 630.592 958 630.592 958 513 776.5 c 0,26,27
 471.177 711.948 471.177 711.948 440 640 c 1,28,-1
 380 174 l 1,29,30
 422.25 161 422.25 161 490.125 161 c 128,-1,31
 558 161 558 161 609 184.5 c 128,-1,32
 660 208 660 208 700 248 c 128,-1,33
 740 288 740 288 769.5 341.5 c 128,-1,34
 799 395 799 395 818.5 455.5 c 0,35,36
 857 574.949 857 574.949 857 702 c 0,22,23
EndSplineSet
EndChar

StartChar: endash
Encoding: 8211 8211 122
Width: 1538
Flags: HW
LayerCount: 2
Fore
SplineSet
254 874 m 1,0,-1
 1352 874 l 1,1,-1
 1319 671 l 1,2,-1
 221 671 l 1,3,-1
 254 874 l 1,0,-1
EndSplineSet
EndChar

StartChar: emdash
Encoding: 8212 8212 123
Width: 2031
Flags: HW
LayerCount: 2
Fore
SplineSet
254 874 m 1,0,-1
 1835 874 l 1,1,-1
 1802 671 l 1,2,-1
 221 671 l 1,3,-1
 254 874 l 1,0,-1
EndSplineSet
EndChar

StartChar: quoteleft
Encoding: 8216 8216 124
Width: 696
Flags: HW
LayerCount: 2
Fore
SplineSet
380 907 m 1,0,1
 263.468 965.266 263.468 965.266 215 1123.5 c 0,2,3
 198 1179 198 1179 198 1265 c 128,-1,4
 198 1351 198 1351 231.5 1435.5 c 128,-1,5
 265 1520 265 1520 315 1584 c 0,6,7
 403.024 1696.67 403.024 1696.67 532 1756 c 1,8,-1
 627 1630 l 1,9,-1
 625 1608 l 1,10,11
 566.292 1578.65 566.292 1578.65 519.5 1499 c 0,12,13
 465 1406.23 465 1406.23 465 1296 c 0,14,15
 465 1197.66 465 1197.66 509.5 1124 c 0,16,17
 524 1100 524 1100 542 1084 c 1,18,-1
 537 1043 l 1,19,-1
 380 907 l 1,0,1
EndSplineSet
EndChar

StartChar: dagger
Encoding: 8224 8224 130
Width: 815
Flags: HW
LayerCount: 2
Fore
SplineSet
367 976 m 1,0,-1
 388 1095 l 1,1,-1
 129 1095 l 1,2,-1
 157 1277 l 1,3,-1
 432 1277 l 1,4,-1
 444 1469 l 1,5,-1
 468 1646 l 1,6,-1
 688 1646 l 1,7,-1
 658 1469 l 1,8,-1
 607 1277 l 1,9,-1
 880 1277 l 1,10,-1
 853 1095 l 1,11,-1
 597 1095 l 1,12,-1
 586 976 l 1,13,-1
 437 151 l 1,14,-1
 270 151 l 1,15,-1
 367 976 l 1,0,-1
EndSplineSet
EndChar

StartChar: bullet
Encoding: 8226 8226 131
Width: 858
Flags: HW
LayerCount: 2
Fore
SplineSet
512.5 530.5 m 128,-1,1
 466 507 466 507 418.5 507 c 128,-1,2
 371 507 371 507 339 521 c 128,-1,3
 307 535 307 535 283.5 559 c 0,4,5
 233 610.574 233 610.574 233 669.287 c 128,-1,6
 233 728 233 728 252 773.5 c 128,-1,7
 271 819 271 819 305 856 c 0,8,9
 381.27 939 381.27 939 484 939 c 0,10,11
 559.435 939 559.435 939 609.5 890 c 0,12,13
 660 840.574 660 840.574 660 781.287 c 128,-1,14
 660 722 660 722 642.5 675.5 c 128,-1,15
 625 629 625 629 592 591.5 c 128,-1,0
 559 554 559 554 512.5 530.5 c 128,-1,1
EndSplineSet
EndChar

StartChar: mu
Encoding: 181 181 134
Width: 1364
Flags: HW
LayerCount: 2
Fore
SplineSet
1306 127 m 1,0,1
 1179.12 -18 1179.12 -18 1023.83 -18 c 128,-1,2
 868.538 -18 868.538 -18 847 122 c 1,3,4
 790.366 51.7743 790.366 51.7743 748.183 27.3872 c 0,5,6
 669.676 -18 669.676 -18 577 -18 c 0,7,8
 502.552 -18 502.552 -18 442.5 22.5 c 0,9,10
 421 37 421 37 410 58 c 1,11,-1
 346 -372 l 1,12,-1
 86 -372 l 1,13,-1
 259 826 l 2,14,15
 269.764 901.346 269.764 901.346 250.5 929.5 c 0,16,17
 244 939 244 939 234 939 c 0,18,19
 193 939 193 939 143 889 c 1,20,-1
 87 1029 l 1,21,22
 147.307 1097.92 147.307 1097.92 271.5 1138.5 c 0,23,24
 322 1155 322 1155 369.5 1155 c 128,-1,25
 417 1155 417 1155 451 1143.5 c 0,26,27
 551.649 1109.46 551.649 1109.46 551.649 991.032 c 0,28,29
 551.649 969.453 551.649 969.453 545.824 927.226 c 128,-1,30
 540 885 540 885 535 843.5 c 0,31,32
 505.377 611.954 505.377 611.954 498.188 559.977 c 128,-1,33
 491 508 491 508 486.5 471.5 c 128,-1,34
 482 435 482 435 479 413 c 2,35,-1
 476 391 l 2,36,37
 473.517 367.414 473.517 367.414 473.517 347.252 c 0,38,39
 473.517 199 473.517 199 604 199 c 0,40,41
 661.938 199 661.938 199 731.5 252 c 0,42,43
 800.41 304.503 800.41 304.503 827 372 c 1,44,-1
 928 1140 l 1,45,-1
 1201 1140 l 1,46,-1
 1089 258 l 2,47,48
 1084 219 1084 219 1095 197 c 128,-1,49
 1106 175 1106 175 1122 175 c 0,50,51
 1175.61 175 1175.61 175 1236 247 c 1,52,-1
 1306 127 l 1,0,1
EndSplineSet
EndChar

StartChar: logicalnot
Encoding: 172 172 136
Width: 1370
Flags: HW
LayerCount: 2
Fore
SplineSet
228 853 m 1,0,-1
 1188 853 l 1,1,-1
 1126 322 l 1,2,-1
 909 322 l 1,3,-1
 950 664 l 1,4,-1
 207 664 l 1,5,-1
 228 853 l 1,0,-1
EndSplineSet
EndChar

StartChar: yen
Encoding: 165 165 137
Width: 1476
Flags: HW
LayerCount: 2
Fore
SplineSet
186 506 m 1,0,-1
 594 506 l 1,1,-1
 619 706 l 1,2,-1
 212 706 l 1,3,-1
 230 862 l 1,4,-1
 561 862 l 1,5,-1
 274 1530 l 1,6,-1
 548 1530 l 1,7,-1
 759 973 l 1,8,-1
 793 863 l 1,9,-1
 849 977 l 1,10,-1
 1171 1530 l 1,11,-1
 1479 1530 l 1,12,-1
 1000 862 l 1,13,-1
 1330 862 l 1,14,-1
 1312 706 l 1,15,-1
 895 706 l 1,16,-1
 870 506 l 1,17,-1
 1285 506 l 1,18,-1
 1268 350 l 1,19,-1
 850 350 l 1,20,-1
 805 0 l 1,21,-1
 533 0 l 1,22,-1
 575 350 l 1,23,-1
 168 350 l 1,24,-1
 186 506 l 1,0,-1
EndSplineSet
EndChar

StartChar: divide
Encoding: 247 247 138
Width: 1368
Flags: HW
LayerCount: 2
Fore
SplineSet
809 1054 m 128,-1,1
 775 1041 775 1041 740 1041 c 128,-1,2
 705 1041 705 1041 679 1051 c 128,-1,3
 653 1061 653 1061 634 1079 c 0,4,5
 593.051 1117.79 593.051 1117.79 596.026 1166.9 c 128,-1,6
 599 1216 599 1216 615 1248.5 c 128,-1,7
 631 1281 631 1281 657 1306 c 0,8,9
 713.16 1360 713.16 1360 789 1360 c 0,10,11
 899.857 1360 899.857 1360 924 1275.5 c 0,12,13
 942.212 1211.76 942.212 1211.76 919.106 1163.38 c 128,-1,14
 896 1115 896 1115 869.5 1091 c 128,-1,0
 843 1067 843 1067 809 1054 c 128,-1,1
260 886 m 1,15,-1
 1174 885 l 1,16,-1
 1148 675 l 1,17,-1
 233 675 l 1,18,-1
 260 886 l 1,15,-1
529.5 236 m 0,19,20
 511 254 511 254 501.833 277.375 c 128,-1,21
 492.667 300.75 492.667 300.75 492.667 334.429 c 128,-1,22
 492.667 368.108 492.667 368.108 509.333 403.054 c 128,-1,23
 526 438 526 438 552 463 c 0,24,25
 608.16 517 608.16 517 685 517 c 256,26,27
 825.133 517 825.133 517 825.133 387.404 c 0,28,29
 825.133 302.585 825.133 302.585 766 248 c 0,30,31
 711.833 198 711.833 198 632 198 c 0,32,33
 568.556 198 568.556 198 529.5 236 c 0,19,20
EndSplineSet
EndChar

StartChar: Ccedilla
Encoding: 199 199 139
Width: 1173
Flags: HW
LayerCount: 2
Fore
SplineSet
300 -257 m 1,0,1
 327.857 -272 327.857 -272 368.929 -272 c 128,-1,2
 410 -272 410 -272 440.5 -266 c 128,-1,3
 471 -260 471 -260 494 -243.5 c 0,4,5
 544.138 -207.532 544.138 -207.532 546 -120 c 0,6,7
 547 -92 547 -92 547 -63.5 c 128,-1,8
 547 -35 547 -35 545 -11 c 1,9,10
 314.669 16.6397 314.669 16.6397 199 213.5 c 0,11,12
 100.962 380.354 100.962 380.354 100.962 636.059 c 0,13,14
 100.962 1024.47 100.962 1024.47 313.5 1282 c 0,15,16
 452.024 1449.85 452.024 1449.85 651.5 1514 c 0,17,18
 751 1546 751 1546 833 1546 c 128,-1,19
 915 1546 915 1546 958 1541 c 128,-1,20
 1001 1536 1001 1536 1035.5 1528.5 c 128,-1,21
 1070 1521 1070 1521 1097 1511.5 c 2,22,-1
 1147 1494 l 1,23,-1
 1201 1478 l 1,24,-1
 1115 1228 l 1,25,-1
 1078.5 1253 l 1,26,27
 987 1314 987 1314 840 1314 c 0,28,29
 602.306 1314 602.306 1314 481.5 1086 c 0,30,31
 382.909 899.927 382.909 899.927 382.909 650.492 c 0,32,33
 382.909 326.926 382.909 326.926 551.5 237.5 c 0,34,35
 609 207 609 207 678 207 c 128,-1,36
 747 207 747 207 800 217.5 c 128,-1,37
 853 228 853 228 896.5 243.5 c 0,38,39
 978.459 272.704 978.459 272.704 1022 306 c 1,40,-1
 1060 98 l 1,41,42
 990.299 44.3838 990.299 44.3838 847.5 9 c 0,43,44
 791 -5 791 -5 721 -11 c 1,45,46
 753 -97.8571 753 -97.8571 753 -200 c 0,47,48
 753 -466 753 -466 464 -466 c 0,49,50
 382 -466 382 -466 330 -453 c 128,-1,51
 278 -440 278 -440 269 -434 c 1,52,-1
 300 -257 l 1,0,1
EndSplineSet
EndChar

StartChar: AE
Encoding: 198 198 140
Width: 1874
Flags: HW
LayerCount: 2
Fore
SplineSet
642 1368 m 1,0,-1
 375 1395 l 1,1,-1
 396 1530 l 1,2,-1
 1840 1530 l 1,3,-1
 1818 1314 l 1,4,-1
 1247 1319 l 1,5,-1
 1189 887 l 1,6,-1
 1618 893 l 1,7,-1
 1594 672 l 1,8,-1
 1162 684 l 1,9,-1
 1098 210 l 1,10,-1
 1765 223 l 1,11,-1
 1739 0 l 1,12,-1
 794 0 l 1,13,-1
 842 356 l 1,14,-1
 367 356 l 1,15,-1
 178 0 l 1,16,-1
 -125 0 l 1,17,-1
 642 1368 l 1,0,-1
869 557 m 1,18,-1
 973 1328 l 1,19,-1
 887 1336 l 1,20,-1
 473 557 l 1,21,-1
 869 557 l 1,18,-1
EndSplineSet
EndChar

StartChar: cent
Encoding: 162 162 141
Width: 1067
Flags: HW
LayerCount: 2
Fore
SplineSet
572 187 m 0,0,1
 694 187 694 187 821 314 c 1,2,-1
 898 176 l 1,3,4
 822.866 67.4733 822.866 67.4733 682.5 15 c 0,5,6
 629 -5 629 -5 565 -12 c 1,7,-1
 523 -245 l 1,8,-1
 328 -245 l 1,9,-1
 373 3 l 1,10,11
 244.704 42.6208 244.704 42.6208 176 165 c 0,12,13
 114 275.438 114 275.438 114 416.719 c 128,-1,14
 114 558 114 558 146 673 c 128,-1,15
 178 788 178 788 238 882.5 c 0,16,17
 368.352 1087.8 368.352 1087.8 581 1140 c 1,18,-1
 641 1393 l 1,19,-1
 836 1393 l 1,20,-1
 778 1153 l 1,21,22
 894.838 1143.26 894.838 1143.26 953 1116 c 1,23,-1
 885 861 l 1,24,25
 788.167 944 788.167 944 692 944 c 0,26,27
 575.8 944 575.8 944 489 820 c 0,28,29
 395 685.714 395 685.714 395 476 c 0,30,31
 395 249.567 395 249.567 492.5 203 c 0,32,33
 526 187 526 187 572 187 c 0,0,1
EndSplineSet
EndChar

StartChar: ae
Encoding: 230 230 142
Width: 1702
Flags: HW
LayerCount: 2
Fore
SplineSet
998.857 392.316 m 0,0,1
 998.857 182 998.857 182 1176 182 c 0,2,3
 1302.46 182 1302.46 182 1434 281.5 c 0,4,5
 1473 311 1473 311 1504 343 c 1,6,-1
 1577 202 l 1,7,8
 1521.14 123.281 1521.14 123.281 1412.5 62 c 0,9,10
 1274.23 -16 1274.23 -16 1121 -16 c 256,11,12
 883.472 -16 883.472 -16 776 162 c 0,13,14
 744 215 744 215 727 277 c 1,15,16
 636.347 80.5846 636.347 80.5846 497.5 10.5 c 0,17,18
 445 -16 445 -16 383 -16 c 0,19,20
 75 -16 75 -16 75 414 c 0,21,22
 75 697.544 75 697.544 244 912.5 c 0,23,24
 362.546 1063.28 362.546 1063.28 553 1124.5 c 0,25,26
 651 1156 651 1156 790.571 1156 c 128,-1,27
 930.143 1156 930.143 1156 1045 1084 c 1,28,29
 1174.6 1156 1174.6 1156 1328 1156 c 128,-1,30
 1481.33 1156 1481.33 1156 1563.5 1084.5 c 0,31,32
 1639 1018.81 1639 1018.81 1639 900 c 0,33,34
 1639 568 1639 568 1144 436 c 0,35,36
 1069 416 1069 416 999 404 c 1,37,38
 998.857 398.143 998.857 398.143 998.857 392.316 c 0,0,1
1267 984 m 0,39,40
 1120.1 984 1120.1 984 1037 742.5 c 0,41,42
 1005.84 651.947 1005.84 651.947 999 563 c 1,43,44
 1116.3 569.703 1116.3 569.703 1236.5 654 c 0,45,46
 1369 746.922 1369 746.922 1369 865.461 c 128,-1,47
 1369 984 1369 984 1267 984 c 0,39,40
883 950 m 1,48,49
 813 980 813 980 744.5 980 c 128,-1,50
 676 980 676 980 622.5 956.5 c 128,-1,51
 569 933 569 933 526.5 892.5 c 128,-1,52
 484 852 484 852 453 798 c 128,-1,53
 422 744 422 744 402 684 c 0,54,55
 362 564 362 564 362 434.5 c 128,-1,56
 362 305 362 305 387 248 c 128,-1,57
 412 191 412 191 468 191 c 0,58,59
 529.625 191 529.625 191 600.5 281 c 0,60,61
 656.545 352.168 656.545 352.168 709 469 c 1,62,63
 720.809 758.32 720.809 758.32 883 950 c 1,48,49
EndSplineSet
EndChar

StartChar: Lslash
Encoding: 321 321 143
Width: 1029
Flags: HW
LayerCount: 2
Fore
SplineSet
171 550 m 1,0,-1
 6 488 l 1,1,-1
 -41 639 l 1,2,-1
 195 730 l 1,3,-1
 303 1531 l 1,4,-1
 579 1531 l 1,5,-1
 486 843 l 1,6,-1
 851 985 l 1,7,-1
 897 825 l 1,8,-1
 462 660 l 1,9,-1
 403 222 l 1,10,-1
 937 230 l 1,11,-1
 905 1 l 1,12,-1
 97 1 l 1,13,-1
 171 550 l 1,0,-1
EndSplineSet
EndChar

StartChar: circumflex
Encoding: 710 710 144
Width: 799
Flags: HW
LayerCount: 2
Fore
SplineSet
42 1286 m 1,0,-1
 391 1660 l 1,1,-1
 570 1660 l 1,2,-1
 771 1286 l 1,3,-1
 647 1218 l 1,4,-1
 451 1437 l 1,5,-1
 150 1214 l 1,6,-1
 42 1286 l 1,0,-1
EndSplineSet
EndChar

StartChar: caron
Encoding: 711 711 145
Width: 799
Flags: HW
LayerCount: 2
Fore
SplineSet
43 1582 m 1,0,-1
 149 1660 l 1,1,-1
 382 1443 l 1,2,-1
 676 1660 l 1,3,-1
 791 1583 l 1,4,-1
 448 1242 l 1,5,-1
 270 1242 l 1,6,-1
 43 1582 l 1,0,-1
EndSplineSet
EndChar

StartChar: breve
Encoding: 728 728 146
Width: 721
Flags: HW
LayerCount: 2
Fore
SplineSet
59.5 1494 m 128,-1,1
 43 1551 43 1551 43 1592.75 c 128,-1,2
 43 1634.5 43 1634.5 50 1666 c 1,3,-1
 211 1666 l 1,4,5
 211 1658 211 1658 210.5 1648.5 c 128,-1,6
 210 1639 210 1639 212 1619.5 c 128,-1,7
 214 1600 214 1600 221.5 1574 c 128,-1,8
 229 1548 229 1548 246 1527.5 c 0,9,10
 283.732 1482 283.732 1482 349.866 1482 c 128,-1,11
 416 1482 416 1482 448 1501 c 128,-1,12
 480 1520 480 1520 500 1548 c 0,13,14
 526.049 1584.47 526.049 1584.47 548 1666 c 1,15,-1
 706 1666 l 1,16,-1
 706 1649.5 l 2,17,18
 706 1586.66 706 1586.66 680 1520.83 c 128,-1,19
 654 1455 654 1455 610.5 1407.5 c 0,20,21
 512.053 1300 512.053 1300 355 1300 c 0,22,23
 195.477 1300 195.477 1300 113.5 1394 c 0,24,0
 76 1437 76 1437 59.5 1494 c 128,-1,1
EndSplineSet
EndChar

StartChar: ring
Encoding: 730 730 147
Width: 726
Flags: HW
LayerCount: 2
Fore
SplineSet
505 1271 m 128,-1,1
 440 1253 440 1253 371.5 1253 c 128,-1,2
 303 1253 303 1253 247.5 1269.5 c 128,-1,3
 192 1286 192 1286 153 1318 c 0,4,5
 73 1383.64 73 1383.64 73 1504 c 0,6,7
 73 1646.98 73 1646.98 198 1728 c 0,8,9
 301.371 1795 301.371 1795 441 1795 c 0,10,11
 647.553 1795 647.553 1795 711 1653 c 0,12,13
 732 1606 732 1606 732 1538 c 128,-1,14
 732 1470 732 1470 701 1415.5 c 128,-1,15
 670 1361 670 1361 620 1325 c 128,-1,0
 570 1289 570 1289 505 1271 c 128,-1,1
386 1378 m 0,16,17
 564 1378 564 1378 564 1539 c 0,18,19
 564 1627.54 564 1627.54 477 1661 c 0,20,21
 451 1671 451 1671 420 1671 c 128,-1,22
 389 1671 389 1671 357 1663.5 c 128,-1,23
 325 1656 325 1656 299 1638 c 0,24,25
 240 1597.15 240 1597.15 240 1513 c 0,26,27
 240 1456.6 240 1456.6 284 1417 c 0,28,29
 327.333 1378 327.333 1378 386 1378 c 0,16,17
EndSplineSet
EndChar

StartChar: tilde
Encoding: 732 732 148
Width: 820
Flags: HW
LayerCount: 2
Fore
SplineSet
-18 1491 m 1,0,1
 17.6819 1560.27 17.6819 1560.27 104.5 1616 c 0,2,3
 194.846 1674 194.846 1674 274 1674 c 0,4,5
 370 1674 370 1674 443.5 1600.5 c 128,-1,6
 517 1527 517 1527 557 1527 c 128,-1,7
 597 1527 597 1527 619.5 1537 c 128,-1,8
 642 1547 642 1547 660 1563 c 128,-1,9
 678 1579 678 1579 693.5 1598.5 c 2,10,-1
 724 1637 l 1,11,-1
 826 1520 l 1,12,13
 797.345 1444.27 797.345 1444.27 714 1385.5 c 0,14,15
 626.782 1324 626.782 1324 542 1324 c 0,16,17
 439.421 1324 439.421 1324 364.5 1397 c 0,18,19
 318.094 1442.22 318.094 1442.22 289.047 1456.11 c 128,-1,20
 260 1470 260 1470 232.5 1470.5 c 128,-1,21
 205 1471 205 1471 184 1463 c 128,-1,22
 163 1455 163 1455 144.5 1442 c 128,-1,23
 126 1429 126 1429 110 1413 c 2,24,-1
 79 1381 l 1,25,-1
 -18 1491 l 1,0,1
EndSplineSet
EndChar

StartChar: hungarumlaut
Encoding: 733 733 149
Width: 922
Flags: HW
LayerCount: 2
Fore
SplineSet
552 1301 m 1,0,-1
 810 1733 l 1,1,-1
 990 1602 l 1,2,3
 962.317 1522.03 962.317 1522.03 847.5 1393.5 c 0,4,5
 729.599 1261.52 729.599 1261.52 664 1233 c 1,6,-1
 552 1301 l 1,0,-1
95 1301 m 1,7,-1
 346 1733 l 1,8,-1
 523 1606 l 1,9,10
 480.19 1486.13 480.19 1486.13 327 1328 c 0,11,12
 260.329 1259.18 260.329 1259.18 212 1233 c 1,13,-1
 95 1301 l 1,7,-1
EndSplineSet
EndChar

StartChar: ogonek
Encoding: 731 731 150
Width: 569
Flags: HW
LayerCount: 2
Fore
SplineSet
491 -334 m 1,0,1
 361.364 -458 361.364 -458 195 -458 c 0,2,3
 101.867 -458 101.867 -458 48 -407.5 c 0,4,5
 1 -363.438 1 -363.438 1 -308.719 c 128,-1,6
 1 -254 1 -254 17.5 -217.5 c 128,-1,7
 34 -181 34 -181 60.5 -149 c 128,-1,8
 87 -117 87 -117 120 -90 c 128,-1,9
 153 -63 153 -63 186 -41.5 c 0,10,11
 244.259 -3.54321 244.259 -3.54321 300 23 c 1,12,-1
 379 59 l 1,13,-1
 470 19 l 1,14,15
 240 -130.5 240 -130.5 240 -218 c 0,16,17
 240 -287 240 -287 304.125 -287 c 128,-1,18
 368.25 -287 368.25 -287 447 -227 c 1,19,-1
 491 -334 l 1,0,1
EndSplineSet
EndChar

StartChar: Eogonek
Encoding: 280 280 151
Width: 1177
Flags: HW
LayerCount: 2
Fore
SplineSet
1047 -364 m 1,0,1
 935.578 -473 935.578 -473 760 -473 c 0,2,3
 666.265 -473 666.265 -473 608.5 -417.5 c 0,4,5
 557 -368.02 557 -368.02 557 -307.01 c 128,-1,6
 557 -246 557 -246 585.5 -198.5 c 128,-1,7
 614 -151 614 -151 655 -112 c 0,8,9
 722.595 -47.7027 722.595 -47.7027 818 0 c 1,10,-1
 97 0 l 1,11,-1
 303 1530 l 1,12,-1
 1144 1530 l 1,13,-1
 1122 1314 l 1,14,-1
 550 1319 l 1,15,-1
 493 887 l 1,16,-1
 921 893 l 1,17,-1
 897 672 l 1,18,-1
 465 684 l 1,19,-1
 402 210 l 1,20,-1
 1068 223 l 1,21,-1
 1043 0 l 1,22,-1
 1021 0 l 1,23,24
 871.672 -80.4075 871.672 -80.4075 815.5 -158.5 c 0,25,26
 795 -187 795 -187 795 -213 c 0,27,28
 795 -282 795 -282 861.906 -282 c 128,-1,29
 928.812 -282 928.812 -282 1001 -227 c 1,30,-1
 1047 -364 l 1,0,1
EndSplineSet
EndChar

StartChar: twosuperior
Encoding: 178 178 153
Width: 1163
Flags: HW
LayerCount: 2
Fore
SplineSet
1046 1373 m 0,0,1
 1046 1058.82 1046 1058.82 541 765 c 1,2,-1
 1045 794 l 1,3,-1
 1033 592 l 1,4,-1
 220 592 l 1,5,-1
 161 727 l 1,6,7
 344.734 825.589 344.734 825.589 531.5 981 c 0,8,9
 778 1186.12 778 1186.12 778 1319.56 c 128,-1,10
 778 1453 778 1453 625 1453 c 0,11,12
 450.269 1453 450.269 1453 330 1335 c 1,13,-1
 239 1454 l 1,14,15
 290.828 1524.67 290.828 1524.67 401.5 1580.5 c 0,16,17
 533.333 1647 533.333 1647 670 1647 c 0,18,19
 673.957 1647.04 673.957 1647.04 719 1647.04 c 128,-1,20
 764.043 1647.04 764.043 1647.04 832.522 1625.52 c 128,-1,21
 901 1604 901 1604 949 1566.5 c 0,22,23
 1046 1490.72 1046 1490.72 1046 1373 c 0,0,1
EndSplineSet
EndChar

StartChar: onesuperior
Encoding: 185 185 154
Width: 1020
Flags: HW
LayerCount: 2
Fore
SplineSet
536 1378 m 1,0,-1
 290 1326 l 1,1,-1
 280 1466 l 1,2,3
 424.121 1503.06 424.121 1503.06 596.5 1588 c 0,4,5
 667.169 1622.82 667.169 1622.82 696 1645 c 1,6,-1
 815 1624 l 1,7,-1
 674 591 l 1,8,-1
 429 591 l 1,9,-1
 536 1378 l 1,0,-1
EndSplineSet
EndChar

StartChar: fraction
Encoding: 8260 8260 155
Width: 1026
Flags: HW
LayerCount: 2
Fore
SplineSet
791 1530 m 1,0,-1
 1000 1530 l 1,1,-1
 319 0 l 1,2,-1
 110 0 l 1,3,-1
 791 1530 l 1,0,-1
EndSplineSet
EndChar

StartChar: foursuperior
Encoding: 8308 8308 157
Width: 1229
Flags: HW
LayerCount: 2
Fore
SplineSet
653 759 m 1,0,-1
 141 759 l 1,1,-1
 92 871 l 1,2,-1
 670 1759 l 1,3,-1
 728 1760 l 1,4,-1
 901 1656 l 1,5,-1
 433 1017 l 1,6,-1
 360 928 l 1,7,-1
 678 940 l 1,8,-1
 713 1191 l 1,9,-1
 948 1214 l 1,10,-1
 914 949 l 1,11,-1
 1141 958 l 1,12,-1
 1119 759 l 1,13,-1
 889 759 l 1,14,-1
 849 441 l 1,15,-1
 609 441 l 1,16,-1
 653 759 l 1,0,-1
EndSplineSet
EndChar

StartChar: threesuperior
Encoding: 179 179 159
Width: 1071
Flags: HW
LayerCount: 2
Fore
SplineSet
228 1523 m 1,0,1
 401.433 1644 401.433 1644 628 1644 c 0,2,3
 792.062 1644 792.062 1644 878 1570.5 c 0,4,5
 948.057 1510.58 948.057 1510.58 948.057 1412.08 c 128,-1,6
 948.057 1313.58 948.057 1313.58 886.529 1236.29 c 128,-1,7
 825 1159 825 1159 723 1121 c 1,8,9
 850.046 1112.05 850.046 1112.05 911 1030 c 0,10,11
 955.095 970.641 955.095 970.641 955.095 883.902 c 0,12,13
 955.095 707.351 955.095 707.351 795 602.5 c 0,14,15
 652.237 509 652.237 509 444 509 c 0,16,17
 309.759 509 309.759 509 187 553.5 c 0,18,19
 147 568 147 568 118 586 c 1,20,-1
 148 735 l 1,21,22
 249.949 679.778 249.949 679.778 386.63 679.778 c 0,23,24
 393.889 679.778 393.889 679.778 422.444 679.889 c 128,-1,25
 451 680 451 680 503 691 c 128,-1,26
 555 702 555 702 597.5 725.5 c 0,27,28
 695.095 779.464 695.095 779.464 695.095 884.934 c 0,29,30
 695.095 943.619 695.095 943.619 656.048 976.81 c 128,-1,31
 617 1010 617 1010 553 1012 c 1,32,-1
 354 965 l 1,33,-1
 382 1142 l 1,34,35
 525.992 1174.73 525.992 1174.73 580.496 1210.36 c 128,-1,36
 635 1246 635 1246 656 1278.5 c 128,-1,37
 677 1311 677 1311 677 1342.5 c 128,-1,38
 677 1374 677 1374 669.5 1393 c 128,-1,39
 662 1412 662 1412 645 1426.5 c 0,40,41
 608.069 1458 608.069 1458 537 1458 c 0,42,43
 405.492 1456.31 405.492 1456.31 289 1377 c 1,44,-1
 228 1523 l 1,0,1
EndSplineSet
EndChar

StartChar: dollar
Encoding: 36 36 160
Width: 1204
Flags: HW
LayerCount: 2
Fore
SplineSet
186 294 m 1,0,1
 252.212 234.758 252.212 234.758 396 206 c 0,2,3
 441 197 441 197 491.5 197 c 128,-1,4
 542 197 542 197 591 208.5 c 128,-1,5
 640 220 640 220 675 243 c 0,6,7
 750 292.286 750 292.286 750 387 c 0,8,9
 750 464.25 750 464.25 716 513.125 c 0,10,11
 658.991 595.075 658.991 595.075 546 673 c 0,12,13
 418.414 761.329 418.414 761.329 363.207 833.164 c 0,14,15
 253.864 975.441 253.864 975.441 253.864 1125.59 c 0,16,17
 253.864 1287.29 253.864 1287.29 358.5 1397 c 0,18,19
 463.889 1507.51 463.889 1507.51 643 1536 c 1,20,-1
 681 1761 l 1,21,-1
 892 1761 l 1,22,-1
 855 1541 l 1,23,24
 1018.66 1523.77 1018.66 1523.77 1106 1461 c 1,25,-1
 1020 1245 l 1,26,27
 962.362 1305.52 962.362 1305.52 822.5 1325.5 c 0,28,29
 784 1331 784 1331 745 1331 c 128,-1,30
 706 1331 706 1331 664 1322 c 128,-1,31
 622 1313 622 1313 590 1293.5 c 0,32,33
 516.923 1248.97 516.923 1248.97 516.923 1157.68 c 0,34,35
 516.923 1072.17 516.923 1072.17 566.5 1009.5 c 0,36,37
 610.762 953.547 610.762 953.547 697.881 890.273 c 128,-1,38
 785 827 785 827 837 785 c 128,-1,39
 889 743 889 743 932 691 c 0,40,41
 1032.03 570.029 1032.03 570.029 1032.03 430.38 c 0,42,43
 1032.03 147.015 1032.03 147.015 790 37 c 0,44,45
 713 2 713 2 617 -11 c 1,46,-1
 575 -253 l 1,47,-1
 365 -253 l 1,48,-1
 406 -15 l 1,49,50
 256.579 -0.350878 256.579 -0.350878 145 48 c 0,51,52
 115 61 115 61 101 73 c 1,53,-1
 186 294 l 1,0,1
EndSplineSet
EndChar

StartChar: grave.cap
Encoding: 65537 -1 161
Width: 525
Flags: HW
LayerCount: 2
Fore
SplineSet
366 1572 m 1,0,1
 289.811 1599.51 289.811 1599.51 212.406 1661.76 c 0,2,3
 67.7663 1778.06 67.7663 1778.06 30 1850 c 1,4,-1
 197 2007 l 1,5,-1
 474 1665 l 1,6,-1
 366 1572 l 1,0,1
EndSplineSet
EndChar

StartChar: dieresis.cap
Encoding: 65538 -1 162
Width: 811
Flags: HW
LayerCount: 2
Fore
SplineSet
762.5 1678 m 128,-1,1
 731 1664 731 1664 698 1664 c 128,-1,2
 665 1664 665 1664 641 1676 c 128,-1,3
 617 1688 617 1688 599 1708 c 0,4,5
 561 1750.22 561 1750.22 561 1796.11 c 128,-1,6
 561 1842 561 1842 574.5 1873 c 128,-1,7
 588 1904 588 1904 610 1927 c 0,8,9
 657.826 1977 657.826 1977 724 1977 c 0,10,11
 819.694 1977 819.694 1977 855 1890.5 c 0,12,13
 864.091 1868.23 864.091 1868.23 864.091 1837.51 c 128,-1,14
 864.091 1806.79 864.091 1806.79 851.045 1773.4 c 128,-1,15
 838 1740 838 1740 816 1716 c 128,-1,0
 794 1692 794 1692 762.5 1678 c 128,-1,1
253 1664 m 0,16,17
 220 1664 220 1664 195.5 1676 c 0,18,19
 146.26 1700.12 146.26 1700.12 124.5 1754 c 0,20,21
 114.913 1777.74 114.913 1777.74 114.913 1808.62 c 128,-1,22
 114.913 1839.5 114.913 1839.5 128.957 1871.75 c 128,-1,23
 143 1904 143 1904 165 1927 c 0,24,25
 212.826 1977 212.826 1977 279 1977 c 0,26,27
 341.769 1977 341.769 1977 381 1934.5 c 0,28,29
 417.095 1895.4 417.095 1895.4 417.095 1844.12 c 0,30,31
 417.095 1767.38 417.095 1767.38 370 1716 c 0,32,33
 322.333 1664 322.333 1664 253 1664 c 0,16,17
EndSplineSet
EndChar

StartChar: commaaccent
Encoding: 63171 63171 163
Width: 369
Flags: HW
LayerCount: 2
Fore
SplineSet
169 -44 m 1,0,1
 232.445 -57.8786 232.445 -57.8786 274.5 -121.5 c 0,2,3
 315 -182.769 315 -182.769 315 -252.885 c 128,-1,4
 315 -323 315 -323 295.5 -375 c 128,-1,5
 276 -427 276 -427 246 -466 c 0,6,7
 185.866 -544.175 185.866 -544.175 109 -560 c 1,8,-1
 19 -500 l 1,9,-1
 22 -474 l 1,10,11
 90 -424.308 90 -424.308 90 -335 c 0,12,13
 90 -274.308 90 -274.308 48 -242 c 0,14,15
 35 -232 35 -232 20 -230 c 1,16,-1
 29 -156 l 1,17,-1
 169 -44 l 1,0,1
EndSplineSet
EndChar

StartChar: acute.cap
Encoding: 65539 -1 164
Width: 529
Flags: HW
LayerCount: 2
Fore
SplineSet
50 1665 m 1,0,-1
 327 2007 l 1,1,-1
 494 1850 l 1,2,3
 456.234 1778.06 456.234 1778.06 340.5 1685 c 0,4,5
 234.189 1599.51 234.189 1599.51 158 1572 c 1,6,-1
 50 1665 l 1,0,-1
EndSplineSet
EndChar

StartChar: circumflex.cap
Encoding: 65540 -1 165
Width: 799
Flags: HW
LayerCount: 2
Fore
SplineSet
34 1661 m 1,0,-1
 383 2007 l 1,1,-1
 562 2007 l 1,2,-1
 763 1667 l 1,3,-1
 644 1594 l 1,4,-1
 447 1794 l 1,5,-1
 147 1589 l 1,6,-1
 34 1661 l 1,0,-1
EndSplineSet
EndChar

StartChar: caron.cap
Encoding: 65541 -1 166
Width: 797
Flags: HW
LayerCount: 2
Fore
SplineSet
53 1924 m 1,0,-1
 169 2007 l 1,1,-1
 386 1801 l 1,2,-1
 686 2007 l 1,3,-1
 801 1930 l 1,4,-1
 458 1607 l 1,5,-1
 280 1607 l 1,6,-1
 53 1924 l 1,0,-1
EndSplineSet
EndChar

StartChar: breve.cap
Encoding: 65542 -1 167
Width: 719
Flags: HW
LayerCount: 2
Fore
SplineSet
59.5 1825 m 128,-1,1
 43 1882 43 1882 43 1923.75 c 128,-1,2
 43 1965.5 43 1965.5 50 1997 c 1,3,-1
 211 1997 l 1,4,5
 211 1989 211 1989 210.5 1979.5 c 128,-1,6
 210 1970 210 1970 212 1950.5 c 128,-1,7
 214 1931 214 1931 221.5 1905 c 128,-1,8
 229 1879 229 1879 246 1858.5 c 0,9,10
 283.732 1813 283.732 1813 349.866 1813 c 128,-1,11
 416 1813 416 1813 448 1832 c 128,-1,12
 480 1851 480 1851 500 1879 c 0,13,14
 526.049 1915.47 526.049 1915.47 548 1997 c 1,15,-1
 706 1997 l 1,16,-1
 706 1980.5 l 2,17,18
 706 1917.66 706 1917.66 680 1851.83 c 128,-1,19
 654 1786 654 1786 610.5 1738.5 c 0,20,21
 512.053 1631 512.053 1631 355 1631 c 0,22,23
 195.477 1631 195.477 1631 113.5 1725 c 0,24,0
 76 1768 76 1768 59.5 1825 c 128,-1,1
EndSplineSet
EndChar

StartChar: dotaccent.cap
Encoding: 65543 -1 168
Width: 391
Flags: HW
LayerCount: 2
Fore
SplineSet
246 1668 m 128,-1,1
 212 1654 212 1654 176 1654 c 128,-1,2
 140 1654 140 1654 113.5 1665.5 c 0,3,4
 59.44 1688.96 59.44 1688.96 37 1742 c 0,5,6
 26.9167 1765.83 26.9167 1765.83 26.9167 1797.76 c 128,-1,7
 26.9167 1829.68 26.9167 1829.68 41.9583 1861.84 c 128,-1,8
 57 1894 57 1894 81 1917 c 0,9,10
 133.174 1967 133.174 1967 204 1967 c 256,11,12
 313 1967 313 1967 347 1882 c 0,13,14
 356.091 1859.27 356.091 1859.27 356.091 1845.41 c 128,-1,15
 356.091 1831.55 356.091 1831.55 355.545 1812.77 c 128,-1,16
 355 1794 355 1794 341.5 1762 c 128,-1,17
 328 1730 328 1730 304 1706 c 128,-1,0
 280 1682 280 1682 246 1668 c 128,-1,1
EndSplineSet
EndChar

StartChar: ring.cap
Encoding: 65544 -1 169
Width: 726
Flags: HW
LayerCount: 2
Fore
SplineSet
480 1486.5 m 128,-1,1
 416 1469 416 1469 347 1469 c 128,-1,2
 278 1469 278 1469 221.5 1485.5 c 128,-1,3
 165 1502 165 1502 125.5 1533.5 c 0,4,5
 43 1599.29 43 1599.29 43 1718 c 0,6,7
 43 1861.64 43 1861.64 168 1941.5 c 0,8,9
 270.522 2007 270.522 2007 412 2007 c 0,10,11
 616.075 2007 616.075 2007 681.5 1865.5 c 0,12,13
 703 1819 703 1819 703 1751.5 c 128,-1,14
 703 1684 703 1684 673 1629.5 c 128,-1,15
 643 1575 643 1575 593.5 1539.5 c 128,-1,0
 544 1504 544 1504 480 1486.5 c 128,-1,1
357 1592 m 0,16,17
 534 1592 534 1592 534 1753 c 0,18,19
 534 1841.54 534 1841.54 447 1875 c 0,20,21
 421 1885 421 1885 390.5 1885 c 128,-1,22
 360 1885 360 1885 328 1877.5 c 128,-1,23
 296 1870 296 1870 270 1852 c 0,24,25
 211 1811.15 211 1811.15 211 1727 c 0,26,27
 211 1670.6 211 1670.6 255 1631 c 0,28,29
 298.333 1592 298.333 1592 357 1592 c 0,16,17
EndSplineSet
EndChar

StartChar: tilde.cap
Encoding: 65545 -1 170
Width: 817
Flags: HW
LayerCount: 2
Fore
SplineSet
1 1792 m 1,0,1
 34.0864 1860.24 34.0864 1860.24 122.5 1917 c 0,2,3
 212.846 1975 212.846 1975 293 1975 c 0,4,5
 361.844 1975 361.844 1975 402.422 1948.5 c 128,-1,6
 443 1922 443 1922 462.5 1904 c 2,7,-1
 501 1870 l 1,8,9
 544.938 1833 544.938 1833 579.969 1833 c 128,-1,10
 615 1833 615 1833 637.5 1843 c 128,-1,11
 660 1853 660 1853 678.5 1869 c 128,-1,12
 697 1885 697 1885 712.5 1904.5 c 2,13,-1
 743 1943 l 1,14,-1
 845 1826 l 1,15,16
 816.709 1751.23 816.709 1751.23 732 1691.5 c 0,17,18
 644.782 1630 644.782 1630 561 1630 c 0,19,20
 456.811 1630 456.811 1630 382.5 1700.5 c 0,21,22
 336.19 1744.43 336.19 1744.43 307.095 1757.72 c 128,-1,23
 278 1771 278 1771 250.5 1771.5 c 128,-1,24
 223 1772 223 1772 202 1764 c 128,-1,25
 181 1756 181 1756 163 1743 c 128,-1,26
 145 1730 145 1730 129 1714 c 2,27,-1
 98 1682 l 1,28,-1
 1 1792 l 1,0,1
EndSplineSet
EndChar

StartChar: hungarumlaut.cap
Encoding: 65546 -1 171
Width: 927
Flags: HW
LayerCount: 2
Fore
SplineSet
459 1635 m 1,0,-1
 758 2007 l 1,1,-1
 915 1876 l 1,2,3
 867.742 1789.36 867.742 1789.36 754 1689 c 0,4,5
 638.676 1587.24 638.676 1587.24 555 1560 c 1,6,-1
 459 1635 l 1,0,-1
5 1635 m 1,7,-1
 303 2007 l 1,8,-1
 461 1877 l 1,9,10
 409.844 1762.88 409.844 1762.88 236 1632.5 c 0,11,12
 163.641 1578.23 163.641 1578.23 113 1560 c 1,13,-1
 5 1635 l 1,7,-1
EndSplineSet
EndChar

StartChar: ordfeminine
Encoding: 170 170 172
Width: 909
Flags: HW
LayerCount: 2
Fore
SplineSet
621 871 m 1,0,1
 494.714 735 494.714 735 344 735 c 0,2,3
 161.829 735 161.829 735 109.5 901.5 c 0,4,5
 93 954 93 954 93 1022 c 128,-1,6
 93 1090 93 1090 111.5 1158.5 c 128,-1,7
 130 1227 130 1227 165 1289 c 128,-1,8
 200 1351 200 1351 249.5 1403.5 c 128,-1,9
 299 1456 299 1456 360 1494.5 c 0,10,11
 490.714 1577 490.714 1577 645 1577 c 0,12,13
 747 1577 747 1577 832 1547 c 1,14,-1
 962 1574 l 1,15,-1
 809 735 l 1,16,-1
 616 735 l 1,17,-1
 621 871 l 1,0,1
704 1436 m 1,18,19
 670 1454 670 1454 624.5 1454 c 128,-1,20
 579 1454 579 1454 537 1434.5 c 128,-1,21
 495 1415 495 1415 462 1382.5 c 128,-1,22
 429 1350 429 1350 404 1308 c 128,-1,23
 379 1266 379 1266 362.5 1220.5 c 0,24,25
 330 1130.88 330 1130.88 330 1068.44 c 128,-1,26
 330 1006 330 1006 335 977.5 c 128,-1,27
 340 949 340 949 352.5 929.5 c 0,28,29
 378.462 889 378.462 889 439 889 c 0,30,31
 518.84 889 518.84 889 623 1013 c 1,32,-1
 704 1436 l 1,18,19
EndSplineSet
EndChar

StartChar: ordmasculine
Encoding: 186 186 173
Width: 900
Flags: HW
LayerCount: 2
Fore
SplineSet
445 725 m 0,0,1
 300.548 725 300.548 725 202 822.5 c 0,2,3
 99 924.404 99 924.404 99 1088 c 0,4,5
 99 1317.52 99 1317.52 251.5 1460 c 0,6,7
 389.602 1589.03 389.602 1589.03 576.767 1589.03 c 0,8,9
 579.382 1589.03 579.382 1589.03 582 1589 c 0,10,11
 739.642 1589 739.642 1589 836 1489.5 c 0,12,13
 933 1389.34 933 1389.34 933 1224 c 0,14,15
 933 990.533 933 990.533 783.5 851 c 0,16,17
 648.468 724.97 648.468 724.97 450.692 724.97 c 0,18,19
 447.848 724.97 447.848 724.97 445 725 c 0,0,1
694 1221 m 0,20,21
 694 1450 694 1450 562 1450 c 0,22,23
 445.11 1450 445.11 1450 383.5 1321.5 c 0,24,25
 336 1222.43 336 1222.43 336 1108.71 c 128,-1,26
 336 995 336 995 369 933.5 c 128,-1,27
 402 872 402 872 457 871.5 c 128,-1,28
 512 871 512 871 548 887 c 128,-1,29
 584 903 584 903 609.5 930.5 c 128,-1,30
 635 958 635 958 651.5 993.5 c 128,-1,31
 668 1029 668 1029 677.5 1068 c 0,32,33
 694 1135.74 694 1135.74 694 1221 c 0,20,21
EndSplineSet
EndChar

StartChar: percent
Encoding: 37 37 174
Width: 1957
Flags: HW
LayerCount: 2
Fore
SplineSet
1303 1530 m 1,0,-1
 1507 1530 l 1,1,-1
 680 0 l 1,2,-1
 466 0 l 1,3,-1
 1303 1530 l 1,0,-1
638.5 750 m 128,-1,5
 556 709 556 709 467.5 709 c 128,-1,6
 379 709 379 709 322.5 733.5 c 128,-1,7
 266 758 266 758 228 802 c 0,8,9
 152 890 152 890 152 1045 c 0,10,11
 152 1224.42 152 1224.42 279 1362 c 0,12,13
 411.923 1506 411.923 1506 600 1506 c 0,14,15
 901 1506 901 1506 901 1187 c 0,16,17
 901 998.692 901 998.692 779.5 858.5 c 0,18,4
 721 791 721 791 638.5 750 c 128,-1,5
499.5 874 m 0,19,20
 543 874 543 874 581.5 905 c 128,-1,21
 620 936 620 936 644.5 981 c 0,22,23
 693 1070.08 693 1070.08 693 1159.54 c 128,-1,24
 693 1249 693 1249 659.5 1296 c 128,-1,25
 626 1343 626 1343 568 1343 c 128,-1,26
 510 1343 510 1343 470 1313.5 c 128,-1,27
 430 1284 430 1284 403 1240.5 c 0,28,29
 350 1155.11 350 1155.11 350 1055 c 0,30,31
 350 874 350 874 499.5 874 c 0,19,20
1105 403.5 m 0,32,33
 1105 484 1105 484 1138.5 567 c 128,-1,34
 1172 650 1172 650 1232 715 c 0,35,36
 1364.92 859 1364.92 859 1554 859 c 0,37,38
 1854 859 1854 859 1854 539 c 0,39,40
 1854 350.776 1854 350.776 1733 211 c 0,41,42
 1604.01 62 1604.01 62 1407 62 c 0,43,44
 1261.32 62 1261.32 62 1181 155 c 0,45,46
 1105 243 1105 243 1105 403.5 c 0,32,33
1316 499.5 m 128,-1,48
 1303 449 1303 449 1303 408 c 128,-1,49
 1303 367 1303 367 1312.5 334 c 128,-1,50
 1322 301 1322 301 1340 277 c 0,51,52
 1377.5 227 1377.5 227 1443 227 c 0,53,54
 1569.33 227 1569.33 227 1626 397 c 0,55,56
 1647 460 1647 460 1647 531 c 128,-1,57
 1647 602 1647 602 1613.5 648.5 c 128,-1,58
 1580 695 1580 695 1522 695 c 128,-1,59
 1464 695 1464 695 1423.5 666 c 128,-1,60
 1383 637 1383 637 1356 593.5 c 128,-1,47
 1329 550 1329 550 1316 499.5 c 128,-1,48
EndSplineSet
Ligature2: "'frac' Diagonal Fractions in Latin lookup 10 subtable" zero slash zero
EndChar

StartChar: Oslash
Encoding: 216 216 175
Width: 1386
Flags: HW
LayerCount: 2
Fore
SplineSet
609 -15 m 0,0,1
 440.317 -15 440.317 -15 318 70 c 1,2,-1
 188 -132 l 1,3,-1
 99 -83 l 1,4,-1
 243 137 l 1,5,6
 86.9583 307.045 86.9583 307.045 86.9583 605.901 c 0,7,8
 86.9583 1001.55 86.9583 1001.55 284.5 1268 c 0,9,10
 415.627 1444.87 415.627 1444.87 610 1513 c 0,11,12
 707 1547 707 1547 839.919 1547 c 128,-1,13
 972.838 1547 972.838 1547 1093 1469 c 1,14,-1
 1218 1670 l 1,15,-1
 1307 1621 l 1,16,-1
 1171 1404 l 1,17,18
 1335.04 1231.86 1335.04 1231.86 1335.04 923.952 c 0,19,20
 1335.04 531.539 1335.04 531.539 1140.5 265 c 0,21,22
 1009.93 86.102 1009.93 86.102 817.5 19 c 0,23,24
 720 -15 720 -15 609 -15 c 0,0,1
952 1274 m 1,25,26
 890 1336 890 1336 783 1336 c 0,27,28
 661.832 1336 661.832 1336 563 1227.5 c 0,29,30
 474.362 1130.19 474.362 1130.19 421 960.5 c 0,31,32
 371.926 804.444 371.926 804.444 371.926 635.741 c 0,33,34
 371.926 466.092 371.926 466.092 406 368 c 1,35,-1
 952 1274 l 1,25,26
460 267 m 1,36,37
 523.395 194 523.395 194 639 194 c 0,38,39
 760.03 194 760.03 194 859 300.5 c 0,40,41
 947.198 395.408 947.198 395.408 1001 566.5 c 0,42,43
 1050.07 722.556 1050.07 722.556 1050.07 896.823 c 0,44,45
 1050.07 1074.17 1050.07 1074.17 1011 1177 c 1,46,-1
 460 267 l 1,36,37
EndSplineSet
EndChar

StartChar: aogonek
Encoding: 261 261 181
Width: 1221
Flags: HW
LayerCount: 2
Fore
SplineSet
999 -364 m 1,0,1
 887.578 -473 887.578 -473 712 -473 c 0,2,3
 618.265 -473 618.265 -473 560.5 -417.5 c 0,4,5
 509 -368.02 509 -368.02 509 -307.01 c 128,-1,6
 509 -246 509 -246 537.5 -198.5 c 128,-1,7
 566 -151 566 -151 607 -112 c 0,8,9
 674.595 -47.7027 674.595 -47.7027 770 0 c 1,10,-1
 735 0 l 1,11,-1
 749 217 l 1,12,13
 659.142 59.7482 659.142 59.7482 519 4.5 c 0,14,15
 467 -16 467 -16 393.5 -16 c 128,-1,16
 320 -16 320 -16 258.5 16.5 c 128,-1,17
 197 49 197 49 158.5 107 c 0,18,19
 84 219.234 84 219.234 84 414 c 0,20,21
 84 697.636 84 697.636 247 912.5 c 0,22,23
 361.069 1062.86 361.069 1062.86 545 1124.5 c 0,24,25
 639 1156 639 1156 748.143 1156 c 128,-1,26
 857.286 1156 857.286 1156 991 1117 c 1,27,-1
 1140 1156 l 1,28,-1
 981 0 l 1,29,-1
 973 0 l 1,30,31
 823.672 -80.4075 823.672 -80.4075 767.5 -158.5 c 0,32,33
 747 -187 747 -187 747 -213 c 0,34,35
 747 -282 747 -282 813.906 -282 c 128,-1,36
 880.812 -282 880.812 -282 953 -227 c 1,37,-1
 999 -364 l 1,0,1
371 437 m 0,38,39
 371 180 371 180 487 180 c 0,40,41
 567.549 180 567.549 180 654.5 285.5 c 0,42,43
 719.835 364.773 719.835 364.773 774 486 c 1,44,-1
 841 966 l 1,45,46
 795.5 980 795.5 980 730.25 980 c 128,-1,47
 665 980 665 980 614.5 956.5 c 128,-1,48
 564 933 564 933 524.5 892.5 c 128,-1,49
 485 852 485 852 456 798 c 128,-1,50
 427 744 427 744 408 684 c 0,51,52
 371 567.158 371 567.158 371 437 c 0,38,39
EndSplineSet
EndChar

StartChar: ccedilla
Encoding: 231 231 183
Width: 931
Flags: HW
LayerCount: 2
Fore
SplineSet
163 -259 m 1,0,1
 190.857 -274 190.857 -274 231.929 -274 c 128,-1,2
 273 -274 273 -274 303.5 -268 c 128,-1,3
 334 -262 334 -262 357 -245.5 c 0,4,5
 407.138 -209.532 407.138 -209.532 409 -122 c 0,6,7
 410 -93 410 -93 410 -64 c 128,-1,8
 410 -35 410 -35 408 -11 c 1,9,10
 244.017 9.97458 244.017 9.97458 158 139 c 0,11,12
 80 256 80 256 80 416 c 128,-1,13
 80 576 80 576 121.5 705 c 128,-1,14
 163 834 163 834 240.5 934.5 c 128,-1,15
 318 1035 318 1035 429 1095.5 c 128,-1,16
 540 1156 540 1156 680 1156 c 0,17,18
 831 1156 831 1156 919 1116 c 1,19,-1
 851 861 l 1,20,21
 754.167 944 754.167 944 658 944 c 0,22,23
 541.8 944 541.8 944 455 820 c 0,24,25
 361 685.714 361 685.714 361 476 c 0,26,27
 361 249.567 361 249.567 458.5 203 c 0,28,29
 492 187 492 187 538 187 c 0,30,31
 660 187 660 187 787 314 c 1,32,-1
 864 176 l 1,33,34
 803.76 85.6394 803.76 85.6394 679.5 27 c 0,35,36
 635 6 635 6 581 -5 c 1,37,38
 616 -93.6667 616 -93.6667 616 -202 c 0,39,40
 616 -468 616 -468 327 -468 c 0,41,42
 245 -468 245 -468 193 -455 c 128,-1,43
 141 -442 141 -442 132 -436 c 1,44,-1
 163 -259 l 1,0,1
EndSplineSet
EndChar

StartChar: eogonek
Encoding: 281 281 188
Width: 1082
Flags: HW
LayerCount: 2
Fore
SplineSet
805 -364 m 1,0,1
 691.156 -473 691.156 -473 518 -473 c 0,2,3
 424.265 -473 424.265 -473 366.5 -417.5 c 0,4,5
 315 -368.02 315 -368.02 315 -310.01 c 128,-1,6
 315 -252 315 -252 339 -208.5 c 128,-1,7
 363 -165 363 -165 399 -128 c 0,8,9
 463.098 -62.1219 463.098 -62.1219 551 -13 c 1,10,11
 522 -16 522 -16 493 -16 c 0,12,13
 285.111 -16 285.111 -16 174 124 c 0,14,15
 79.9574 242.494 79.9574 242.494 79.9574 430.605 c 0,16,17
 79.9574 585.285 79.9574 585.285 127.979 719.643 c 128,-1,18
 176 854 176 854 258.5 950 c 128,-1,19
 341 1046 341 1046 454 1101 c 128,-1,20
 567 1156 567 1156 673.5 1156 c 128,-1,21
 780 1156 780 1156 838.5 1137 c 128,-1,22
 897 1118 897 1118 935.5 1084.5 c 0,23,24
 1011 1018.81 1011 1018.81 1011 900 c 0,25,26
 1011 568 1011 568 516 436 c 0,27,28
 441 416 441 416 371 404 c 1,29,30
 370.857 398.143 370.857 398.143 370.857 392.316 c 0,31,32
 370.857 182 370.857 182 548 182 c 0,33,34
 674.458 182 674.458 182 806 281.5 c 0,35,36
 845 311 845 311 876 343 c 1,37,-1
 949 202 l 1,38,39
 903.994 136.741 903.994 136.741 804 74 c 1,40,41
 651.302 -49.8095 651.302 -49.8095 577.5 -154 c 0,42,43
 552 -190 552 -190 552 -213 c 0,44,45
 552 -282 552 -282 617 -282 c 0,46,47
 686.812 -282 686.812 -282 759 -227 c 1,48,-1
 805 -364 l 1,0,1
639 984 m 0,49,50
 492.097 984 492.097 984 409 742.5 c 0,51,52
 377.842 651.947 377.842 651.947 371 563 c 1,53,54
 488.298 569.703 488.298 569.703 608.5 654 c 0,55,56
 741 746.922 741 746.922 741 865.461 c 128,-1,57
 741 984 741 984 639 984 c 0,49,50
EndSplineSet
EndChar

StartChar: lslash
Encoding: 322 322 194
Width: 625
Flags: HW
LayerCount: 2
Fore
SplineSet
202 725 m 1,0,-1
 60 669 l 1,1,-1
 60 836 l 1,2,-1
 226 904 l 1,3,-1
 326 1636 l 1,4,-1
 603 1636 l 1,5,-1
 519 1024 l 1,6,-1
 702 1099 l 1,7,-1
 702 922 l 1,8,-1
 494 840 l 1,9,-1
 380 2 l 1,10,-1
 104 2 l 1,11,-1
 202 725 l 1,0,-1
EndSplineSet
EndChar

StartChar: Aogonek
Encoding: 260 260 209
Width: 1311
Flags: HW
LayerCount: 2
Fore
SplineSet
1219 -364 m 1,0,1
 1107.58 -473 1107.58 -473 932 -473 c 0,2,3
 838.265 -473 838.265 -473 780.5 -417.5 c 0,4,5
 729 -368.02 729 -368.02 729 -307.01 c 128,-1,6
 729 -246 729 -246 757 -199 c 128,-1,7
 785 -152 785 -152 825.5 -113.5 c 0,8,9
 897.88 -44.6948 897.88 -44.6948 988 -1 c 1,10,-1
 964 -1 l 1,11,-1
 916 341 l 1,12,-1
 355 341 l 1,13,-1
 207 0 l 1,14,-1
 -94 -1 l 1,15,-1
 650 1530 l 1,16,-1
 984 1530 l 1,17,-1
 1241 0 l 1,18,-1
 1193 0 l 1,19,20
 1043.67 -80.4075 1043.67 -80.4075 987.5 -158.5 c 0,21,22
 967 -187 967 -187 967 -213 c 0,23,24
 967 -282 967 -282 1033.91 -282 c 128,-1,25
 1100.81 -282 1100.81 -282 1173 -227 c 1,26,-1
 1219 -364 l 1,0,1
888 537 m 1,27,-1
 793 1219 l 1,28,-1
 783 1337 l 1,29,-1
 736 1216 l 1,30,-1
 440 537 l 1,31,-1
 888 537 l 1,27,-1
EndSplineSet
EndChar

StartChar: caronvertical
Encoding: 65547 -1 220
Width: 317
Flags: HW
LayerCount: 2
Fore
SplineSet
426 1681 m 1,0,1
 460 1623.74 460 1623.74 460 1472 c 0,2,3
 460 1291.24 460 1291.24 383 1128 c 0,4,5
 358 1075 358 1075 327 1036 c 1,6,-1
 202 1070 l 1,7,-1
 196 1095 l 1,8,9
 237 1237.29 237 1237.29 237 1395.15 c 128,-1,10
 237 1553 237 1553 209 1597 c 1,11,-1
 223 1634 l 1,12,-1
 426 1681 l 1,0,1
EndSplineSet
EndChar

StartChar: afii61352
Encoding: 8470 8470 237
Width: 2505
Flags: HW
LayerCount: 2
Fore
SplineSet
2392 1402.5 m 0,0,1
 2475.36 1295.2 2475.36 1295.2 2475.36 1125.35 c 0,2,3
 2475.36 1104.51 2475.36 1104.51 2474 1083 c 0,4,5
 2462.16 842.306 2462.16 842.306 2312 690 c 0,6,7
 2165.1 541 2165.1 541 1949 541 c 0,8,9
 1756.36 541 1756.36 541 1656.5 672 c 0,10,11
 1572.67 781.975 1572.67 781.975 1572.67 950.42 c 0,12,13
 1572.67 1221.67 1572.67 1221.67 1727.83 1376.83 c 128,-1,14
 1883 1532 1883 1532 2087.2 1532 c 128,-1,15
 2291.4 1532 2291.4 1532 2392 1402.5 c 0,0,1
320 1530 m 1,16,-1
 586 1530 l 1,17,-1
 966 618 l 1,18,-1
 1041 386 l 1,19,-1
 1061 641 l 1,20,-1
 1166 1530 l 1,21,-1
 1424 1530 l 1,22,-1
 1231 0 l 1,23,-1
 983 0 l 1,24,-1
 598 926 l 1,25,-1
 519 1191 l 1,26,-1
 497 894 l 1,27,-1
 382 0 l 1,28,-1
 127 0 l 1,29,-1
 320 1530 l 1,16,-1
1907.5 724.5 m 0,30,31
 1939 705 1939 705 1989 705 c 128,-1,32
 2039 705 2039 705 2082.5 734 c 128,-1,33
 2126 763 2126 763 2155.5 813.5 c 0,34,35
 2223.33 929.621 2223.33 929.621 2223.33 1127.94 c 0,36,37
 2223.33 1296.45 2223.33 1296.45 2139 1349.5 c 0,38,39
 2108 1369 2108 1369 2058.5 1369 c 0,40,41
 1956.71 1369 1956.71 1369 1889.21 1254.26 c 128,-1,42
 1821.72 1139.52 1821.72 1139.52 1821.72 958.563 c 128,-1,43
 1821.72 777.602 1821.72 777.602 1907.5 724.5 c 0,30,31
1533 183 m 1,44,-1
 2346 183 l 1,45,-1
 2331 0 l 1,46,-1
 1518 0 l 1,47,-1
 1533 183 l 1,44,-1
EndSplineSet
EndChar

StartChar: oe
Encoding: 339 339 242
Width: 1770
Flags: HW
LayerCount: 2
Fore
SplineSet
857 141 m 1,0,1
 702.151 -16 702.151 -16 480 -16 c 0,2,3
 281.537 -16 281.537 -16 176.5 114.5 c 0,4,5
 76.9474 238.187 76.9474 238.187 76.9474 461.465 c 0,6,7
 76.9474 738.369 76.9474 738.369 233.5 939 c 0,8,9
 402.826 1156 402.826 1156 676 1156 c 0,10,11
 894.692 1156 894.692 1156 995 993 c 1,12,13
 1162.18 1156 1162.18 1156 1396 1156 c 0,14,15
 1549.33 1156 1549.33 1156 1631.5 1084.5 c 0,16,17
 1707 1018.81 1707 1018.81 1707 900 c 0,18,19
 1707 568 1707 568 1212 436 c 0,20,21
 1137 416 1137 416 1067 404 c 1,22,23
 1066.86 398.143 1066.86 398.143 1066.86 392.316 c 0,24,25
 1066.86 182 1066.86 182 1244 182 c 0,26,27
 1370.46 182 1370.46 182 1502 281.5 c 0,28,29
 1541 311 1541 311 1572 343 c 1,30,-1
 1645 202 l 1,31,32
 1589.14 123.281 1589.14 123.281 1480.5 62 c 0,33,34
 1342.23 -16 1342.23 -16 1189 -16 c 0,35,36
 967.563 -16 967.563 -16 857 141 c 1,0,1
1335 984 m 0,37,38
 1188.1 984 1188.1 984 1105 742.5 c 0,39,40
 1073.84 651.948 1073.84 651.948 1067 563 c 1,41,42
 1184.3 569.703 1184.3 569.703 1304.5 654 c 0,43,44
 1437 746.922 1437 746.922 1437 865.461 c 128,-1,45
 1437 984 1437 984 1335 984 c 0,37,38
355.875 447.812 m 0,46,47
 355.875 165 355.875 165 519 165 c 0,48,49
 705.443 165 705.443 165 773 482 c 0,50,51
 797 594.615 797 594.615 796 722.308 c 0,52,53
 794.013 976.001 794.013 976.001 634 976 c 0,54,55
 498.944 976 498.944 976 421 793 c 0,56,57
 355.875 640.098 355.875 640.098 355.875 447.812 c 0,46,47
EndSplineSet
EndChar

StartChar: daggerdbl
Encoding: 8225 8225 243
Width: 815
Flags: HW
LayerCount: 2
Fore
SplineSet
292 425 m 1,0,-1
 326 603 l 1,1,-1
 97 603 l 1,2,-1
 124 779 l 1,3,-1
 357 779 l 1,4,-1
 367 963 l 1,5,-1
 395 1095 l 1,6,-1
 152 1095 l 1,7,-1
 178 1277 l 1,8,-1
 438 1277 l 1,9,-1
 450 1469 l 1,10,-1
 474 1646 l 1,11,-1
 694 1646 l 1,12,-1
 664 1469 l 1,13,-1
 614 1277 l 1,14,-1
 880 1277 l 1,15,-1
 853 1095 l 1,16,-1
 603 1095 l 1,17,-1
 592 963 l 1,18,-1
 549 779 l 1,19,-1
 790 779 l 1,20,-1
 766 603 l 1,21,-1
 527 603 l 1,22,-1
 512 431 l 1,23,-1
 403 -51 l 1,24,-1
 259 -51 l 1,25,-1
 292 425 l 1,0,-1
EndSplineSet
EndChar

StartChar: Euro
Encoding: 8364 8364 244
Width: 1389
Flags: HW
LayerCount: 2
Fore
SplineSet
507 539 m 1,0,1
 532.765 174 532.765 174 783 174 c 0,2,3
 936.091 174 936.091 174 1052 249 c 0,4,5
 1086 271 1086 271 1118 294 c 1,6,-1
 1181 125 l 1,7,8
 1094.15 28.4983 1094.15 28.4983 882.5 -5 c 0,9,10
 813 -16 813 -16 710.5 -16 c 128,-1,11
 608 -16 608 -16 516 31 c 128,-1,12
 424 78 424 78 363 155.5 c 0,13,14
 249.586 299.592 249.586 299.592 227 539 c 1,15,-1
 24 539 l 1,16,-1
 44 701 l 1,17,-1
 223 701 l 1,18,19
 227 793 227 793 243 877 c 1,20,-1
 69 877 l 1,21,-1
 89 1038 l 1,22,-1
 287 1038 l 1,23,24
 373.104 1274.29 373.104 1274.29 552 1410 c 0,25,26
 731.273 1546 731.273 1546 963 1546 c 0,27,28
 1106.89 1546 1106.89 1546 1219 1510.5 c 2,29,-1
 1277 1492 l 1,30,-1
 1208 1278 l 1,31,32
 1166.67 1319.33 1166.67 1319.33 1032.5 1338.5 c 0,33,34
 987 1345 987 1345 928 1345 c 128,-1,35
 869 1345 869 1345 814 1323.5 c 128,-1,36
 759 1302 759 1302 713 1262.5 c 0,37,38
 622.87 1185.11 622.87 1185.11 569 1038 c 1,39,-1
 1075 1038 l 1,40,-1
 1056 877 l 1,41,-1
 527 877 l 1,42,43
 510.89 792.425 510.89 792.425 507 701 c 1,44,-1
 1033 701 l 1,45,-1
 1016 539 l 1,46,-1
 507 539 l 1,0,1
EndSplineSet
EndChar

StartChar: infinity
Encoding: 8734 8734 245
Width: 1953
Flags: HW
LayerCount: 2
Fore
SplineSet
970 420 m 1,0,1
 792.214 187.89 792.214 187.89 539.37 187.89 c 0,2,3
 326.11 187.89 326.11 187.89 200 314 c 0,4,5
 81 433 81 433 81 613 c 0,6,7
 81 811.171 81 811.171 211.5 930 c 0,8,9
 338.893 1046 338.893 1046 546 1046 c 0,10,11
 772.193 1046 772.193 1046 919.5 897 c 0,12,13
 963 853 963 853 999 804 c 1,14,15
 1187.96 1044.03 1187.96 1044.03 1429.7 1044.03 c 0,16,17
 1652.9 1044.03 1652.9 1044.03 1775.5 916 c 0,18,19
 1886 800.611 1886 800.611 1886 622 c 0,20,21
 1886 425.852 1886 425.852 1761 307 c 0,22,23
 1632.69 185 1632.69 185 1415 185 c 0,24,25
 1190.8 185 1190.8 185 1048 329.5 c 0,26,27
 1006 372 1006 372 970 420 c 1,0,1
1112 647 m 1,28,29
 1265.7 389 1265.7 389 1432 389 c 0,30,31
 1523.39 389 1523.39 389 1578.5 456 c 0,32,33
 1631 519.824 1631 519.824 1631 619 c 0,34,35
 1631 712.517 1631 712.517 1570 772.5 c 0,36,37
 1504.41 837 1504.41 837 1408.7 837 c 128,-1,38
 1313 837 1313 837 1245.5 787.5 c 128,-1,39
 1178 738 1178 738 1112 647 c 1,28,29
468 406.5 m 0,40,41
 513 388 513 388 581.5 388 c 0,42,43
 715.275 388 715.275 388 858 579 c 1,44,45
 788.135 693.778 788.135 693.778 738.568 741.389 c 0,46,47
 641.11 835 641.11 835 553 835 c 0,48,49
 449.733 835 449.733 835 390 771 c 0,50,51
 334 711 334 711 334 614 c 0,52,53
 334 461.589 334 461.589 468 406.5 c 0,40,41
EndSplineSet
EndChar

StartChar: lessequal
Encoding: 8804 8804 246
Width: 1380
Flags: HW
LayerCount: 2
Fore
SplineSet
209 775 m 1,0,-1
 1217 1216 l 1,1,-1
 1187 980 l 1,2,-1
 581 729 l 1,3,-1
 1130 475 l 1,4,-1
 1104 249 l 1,5,-1
 202 696 l 1,6,-1
 209 775 l 1,0,-1
164 178 m 1,7,-1
 1110 178 l 1,8,-1
 1093 -1 l 1,9,-1
 146 -1 l 1,10,-1
 164 178 l 1,7,-1
EndSplineSet
EndChar

StartChar: greaterequal
Encoding: 8805 8805 247
Width: 1380
Flags: HW
LayerCount: 2
Fore
SplineSet
223 496 m 1,0,-1
 827 743 l 1,1,-1
 290 1000 l 1,2,-1
 318 1230 l 1,3,-1
 1218 768 l 1,4,-1
 1205 679 l 1,5,-1
 193 249 l 1,6,-1
 223 496 l 1,0,-1
171 178 m 1,7,-1
 1117 178 l 1,8,-1
 1099 -1 l 1,9,-1
 152 -1 l 1,10,-1
 171 178 l 1,7,-1
EndSplineSet
EndChar

StartChar: partialdiff
Encoding: 8706 8706 248
Width: 1361
Flags: HW
LayerCount: 2
Fore
SplineSet
720 1074 m 0,0,1
 851.545 1074 851.545 1074 965 1026 c 1,2,3
 916.002 1359.18 916.002 1359.18 685 1459 c 0,4,5
 604 1494 604 1494 497 1494 c 0,6,7
 397.72 1494 397.72 1494 304.5 1454.5 c 0,8,9
 275 1442 275 1442 253 1427 c 1,10,-1
 161 1590 l 1,11,12
 270.238 1676.24 270.238 1676.24 442 1701.5 c 0,13,14
 493 1709 493 1709 581 1709 c 128,-1,15
 669 1709 669 1709 772 1673.5 c 128,-1,16
 875 1638 875 1638 954 1575 c 128,-1,17
 1033 1512 1033 1512 1089.5 1426.5 c 128,-1,18
 1146 1341 1146 1341 1182 1241 c 0,19,20
 1252 1046.56 1252 1046.56 1252 834.778 c 128,-1,21
 1252 623 1252 623 1218.5 470.5 c 128,-1,22
 1185 318 1185 318 1113.5 210 c 0,23,24
 963.88 -16 963.88 -16 658 -16 c 0,25,26
 447.124 -16 447.124 -16 295.317 133.623 c 128,-1,27
 143.51 283.246 143.51 283.246 143.51 538.855 c 128,-1,28
 143.51 794.465 143.51 794.465 305.399 934.232 c 128,-1,29
 467.288 1074 467.288 1074 720 1074 c 0,0,1
976 818 m 1,30,31
 866.444 886 866.444 886 719 886 c 0,32,33
 506.117 886 506.117 886 443.5 686.5 c 0,34,35
 425.373 628.745 425.373 628.745 425.373 582.902 c 128,-1,36
 425.373 537.059 425.373 537.059 427.186 494.029 c 128,-1,37
 429 451 429 451 443 390 c 128,-1,38
 457 329 457 329 488.5 284 c 0,39,40
 555.7 188 555.7 188 699 188 c 0,41,42
 820.846 188 820.846 188 890 304 c 0,43,44
 976 448.258 976 448.258 976 818 c 1,30,31
EndSplineSet
EndChar

StartChar: summation
Encoding: 8721 8721 249
Width: 1548
Flags: HW
LayerCount: 2
Fore
SplineSet
744 679 m 1,0,-1
 195 1442 l 1,1,-1
 225 1522 l 1,2,-1
 1291 1522 l 1,3,-1
 1291 1300 l 1,4,-1
 603 1300 l 1,5,-1
 1043 685 l 1,6,-1
 611 42 l 1,7,-1
 1327 42 l 1,8,-1
 1327 -170 l 1,9,-1
 221 -170 l 1,10,-1
 195 -108 l 1,11,-1
 744 679 l 1,0,-1
EndSplineSet
EndChar

StartChar: product
Encoding: 8719 8719 250
Width: 1687
Flags: HW
LayerCount: 2
Fore
SplineSet
362 1301 m 1,0,-1
 153 1301 l 1,1,-1
 153 1522 l 1,2,-1
 1632 1522 l 1,3,-1
 1632 1301 l 1,4,-1
 1420 1301 l 1,5,-1
 1420 -171 l 1,6,-1
 1120 -171 l 1,7,-1
 1120 1301 l 1,8,-1
 663 1301 l 1,9,-1
 663 -171 l 1,10,-1
 362 -171 l 1,11,-1
 362 1301 l 1,0,-1
EndSplineSet
EndChar

StartChar: pi
Encoding: 960 960 251
Width: 1580
Flags: HW
LayerCount: 2
Fore
SplineSet
129 116 m 1,0,1
 170.133 124.814 170.133 124.814 221.566 162.907 c 128,-1,2
 273 201 273 201 298 236.5 c 128,-1,3
 323 272 323 272 337.5 312.5 c 0,4,5
 358.879 372.214 358.879 372.214 371 491 c 1,6,-1
 433 903 l 1,7,-1
 375 903 l 2,8,9
 279.9 903 279.9 903 220.5 849 c 1,10,-1
 189 819 l 1,11,-1
 60 877 l 1,12,13
 80 1010 80 1010 171.5 1075 c 128,-1,14
 263 1140 263 1140 410 1140 c 2,15,-1
 1207 1140 l 2,16,17
 1269 1140 1269 1140 1301.5 1157 c 128,-1,18
 1334 1174 1334 1174 1348 1215 c 1,19,-1
 1517 1215 l 1,20,21
 1508.27 970.489 1508.27 970.489 1337.5 920 c 0,22,23
 1280 903 1280 903 1204 903 c 2,24,-1
 1187 903 l 1,25,-1
 1143 310 l 1,26,27
 1135.94 197 1135.94 197 1206 197 c 0,28,29
 1284.11 197 1284.11 197 1371 324 c 1,30,-1
 1480 234 l 1,31,32
 1446.74 136.451 1446.74 136.451 1348.5 65 c 0,33,34
 1237.12 -16 1237.12 -16 1107.06 -16 c 0,35,36
 877.444 -16 877.444 -16 877.444 215.358 c 0,37,38
 877.444 243.111 877.444 243.111 881 274 c 2,39,-1
 957 903 l 1,40,-1
 673 903 l 1,41,-1
 628 418 l 1,42,43
 618.476 259.899 618.476 259.899 589.738 200.949 c 128,-1,44
 561 142 561 142 534.5 112 c 128,-1,45
 508 82 508 82 475.5 54 c 0,46,47
 404.836 -6.87981 404.836 -6.87981 298 -20 c 1,48,-1
 129 116 l 1,0,1
EndSplineSet
EndChar

StartChar: integral
Encoding: 8747 8747 252
Width: 1065
Flags: HW
LayerCount: 2
Fore
SplineSet
202 -218 m 1,0,1
 249.379 -274.854 249.379 -274.854 343.5 -303.5 c 0,2,3
 378 -314 378 -314 425.5 -314 c 128,-1,4
 473 -314 473 -314 513.5 -298 c 0,5,6
 628.077 -252.735 628.077 -252.735 628.077 -39.5651 c 0,7,8
 628.077 133.375 628.077 133.375 520 369.5 c 0,9,10
 474 470 474 470 420.5 571 c 128,-1,11
 367 672 367 672 321 774.5 c 0,12,13
 212.965 1015.23 212.965 1015.23 212.965 1199.28 c 0,14,15
 212.965 1414.05 212.965 1414.05 325 1542.5 c 0,16,17
 449.286 1685 449.286 1685 684 1685 c 0,18,19
 843.673 1685 843.673 1685 942.5 1610.5 c 0,20,21
 975 1586 975 1586 996 1553 c 1,22,-1
 874 1405 l 1,23,24
 843.274 1454.93 843.274 1454.93 754.5 1477.5 c 0,25,26
 725 1485 725 1485 679.5 1485 c 128,-1,27
 634 1485 634 1485 592.5 1465 c 0,28,29
 473.926 1407.86 473.926 1407.86 473.926 1208.71 c 0,30,31
 473.926 1037.59 473.926 1037.59 582 805 c 0,32,33
 628 706 628 706 681.5 605.5 c 128,-1,34
 735 505 735 505 781 402.5 c 0,35,36
 889.04 161.759 889.04 161.759 889.04 -24.064 c 0,37,38
 889.04 -364.458 889.04 -364.458 649 -477.5 c 0,39,40
 563 -518 563 -518 439 -518 c 0,41,42
 281.696 -518 281.696 -518 163 -440 c 0,43,44
 128 -417 128 -417 109 -391 c 1,45,-1
 202 -218 l 1,0,1
EndSplineSet
EndChar

StartChar: Omega
Encoding: 8486 8486 253
Width: 1659
Flags: HW
LayerCount: 2
Fore
SplineSet
89 202 m 1,0,-1
 420 202 l 1,1,2
 246.938 375.062 246.938 375.062 186 631 c 0,3,4
 166 715 166 715 166 799 c 0,5,6
 166 1171.46 166 1171.46 369 1364 c 0,7,8
 560.891 1546 560.891 1546 909 1546 c 0,9,10
 1184.16 1546 1184.16 1546 1358 1387.5 c 0,11,12
 1540 1221.56 1540 1221.56 1540 937 c 0,13,14
 1540 753.311 1540 753.311 1448 555 c 0,15,16
 1350.09 343.941 1350.09 343.941 1190 207 c 1,17,-1
 1528 207 l 1,18,-1
 1508 0 l 1,19,-1
 932 0 l 1,20,-1
 887 164 l 1,21,22
 1048.4 248.737 1048.4 248.737 1159.5 454 c 0,23,24
 1273 663.705 1273 663.705 1273 887 c 0,25,26
 1273 1110.05 1273 1110.05 1144 1230 c 0,27,28
 1036.45 1330 1036.45 1330 881 1330 c 0,29,30
 561.616 1330 561.616 1330 460.5 1029.5 c 0,31,32
 425 924 425 924 425 799.5 c 128,-1,33
 425 675 425 675 447.5 579 c 128,-1,34
 470 483 470 483 507 400.5 c 0,35,36
 585.018 226.542 585.018 226.542 683 164 c 1,37,-1
 618 0 l 1,38,-1
 63 0 l 1,39,-1
 89 202 l 1,0,-1
EndSplineSet
EndChar

StartChar: radical
Encoding: 8730 8730 254
Width: 1625
Flags: HW
LayerCount: 2
Fore
SplineSet
92 590 m 1,0,-1
 325 716 l 1,1,-1
 549 716 l 1,2,-1
 815 -9 l 1,3,-1
 1355 1870 l 1,4,-1
 1644 1870 l 1,5,-1
 945 -354 l 1,6,-1
 700 -354 l 1,7,-1
 347 453 l 1,8,-1
 199 376 l 1,9,-1
 92 590 l 1,0,-1
EndSplineSet
EndChar

StartChar: Delta
Encoding: 8710 8710 256
Width: 1407
Flags: HW
LayerCount: 2
Fore
SplineSet
-44 22 m 1,0,-1
 721 1508 l 1,1,-1
 753 1508 l 1,2,-1
 1322 27 l 1,3,-1
 1305 0 l 1,4,-1
 -32 0 l 1,5,-1
 -44 22 l 1,0,-1
980 229 m 1,6,-1
 707 985 l 1,7,-1
 338 229 l 1,8,-1
 980 229 l 1,6,-1
EndSplineSet
EndChar

StartChar: v
Encoding: 118 118 257
Width: 1073
Flags: HW
LayerCount: 2
Fore
SplineSet
1045 1140 m 1,0,1
 1050.89 1072.28 1050.89 1072.28 1050.89 1045.81 c 0,2,3
 1050.89 663.017 1050.89 663.017 750 286 c 0,4,5
 667 182 667 182 577 96 c 1,6,-1
 487 -7 l 1,7,-1
 260 -19 l 1,8,-1
 204 357 l 1,9,-1
 98 1140 l 1,10,-1
 382 1140 l 1,11,-1
 447 417 l 1,12,-1
 459 215 l 1,13,-1
 555 342 l 1,14,15
 756.192 658.159 756.192 658.159 786 1070.5 c 0,16,17
 788.25 1101.62 788.25 1101.62 788.25 1117.31 c 128,-1,18
 788.25 1133 788.25 1133 788 1140 c 1,19,-1
 1045 1140 l 1,0,1
EndSplineSet
EndChar

StartChar: ellipsis
Encoding: 8230 8230 258
Width: 1579
Flags: HW
LayerCount: 2
Fore
SplineSet
1232 -26 m 0,0,1
 1181 -26 1181 -26 1145.8 10.1463 c 128,-1,2
 1110.61 46.2927 1110.61 46.2927 1110.61 95.4676 c 128,-1,3
 1110.61 144.643 1110.61 144.643 1126.3 179.821 c 128,-1,4
 1142 215 1142 215 1166.5 240 c 0,5,6
 1219.42 294 1219.42 294 1294 294 c 0,7,8
 1435.13 294 1435.13 294 1435.13 164.404 c 0,9,10
 1435.13 79.1843 1435.13 79.1843 1376.5 24 c 0,11,12
 1323.38 -26 1323.38 -26 1232 -26 c 0,0,1
706 -26 m 0,13,14
 655 -26 655 -26 619.805 10.1463 c 128,-1,15
 584.61 46.2927 584.61 46.2927 584.61 95.4676 c 128,-1,16
 584.61 144.643 584.61 144.643 600.305 179.821 c 128,-1,17
 616 215 616 215 640.5 240 c 0,18,19
 693.42 294 693.42 294 768 294 c 0,20,21
 909.133 294 909.133 294 909.133 164.404 c 0,22,23
 909.133 79.1843 909.133 79.1843 850.5 24 c 0,24,25
 797.375 -26 797.375 -26 706 -26 c 0,13,14
180 -26 m 0,26,27
 129 -26 129 -26 93.8049 10.1463 c 128,-1,28
 58.6098 46.2927 58.6098 46.2927 58.6098 95.4676 c 128,-1,29
 58.6098 144.643 58.6098 144.643 74.3049 179.821 c 128,-1,30
 90 215 90 215 114.5 240 c 0,31,32
 167.42 294 167.42 294 242 294 c 0,33,34
 383.133 294 383.133 294 383.133 164.404 c 0,35,36
 383.133 79.1843 383.133 79.1843 324.5 24 c 0,37,38
 271.375 -26 271.375 -26 180 -26 c 0,26,27
EndSplineSet
EndChar

StartChar: perthousand
Encoding: 8240 8240 259
Width: 2804
Flags: HW
LayerCount: 2
Fore
SplineSet
1953 403.5 m 0,0,1
 1953 484 1953 484 1986.5 567 c 128,-1,2
 2020 650 2020 650 2080 715 c 0,3,4
 2212.92 859 2212.92 859 2401 859 c 0,5,6
 2702 859 2702 859 2702 539 c 0,7,8
 2702 350.154 2702 350.154 2580.5 211 c 0,9,10
 2450.4 62.0001 2450.4 62.0001 2254 62 c 0,11,12
 2109.32 62 2109.32 62 2029 155 c 0,13,14
 1953 243 1953 243 1953 403.5 c 0,0,1
2164 499.5 m 128,-1,16
 2151 449 2151 449 2151 408 c 128,-1,17
 2151 367 2151 367 2160.5 334 c 128,-1,18
 2170 301 2170 301 2187.5 277 c 0,19,20
 2223.96 227 2223.96 227 2283.98 227 c 128,-1,21
 2344 227 2344 227 2382.5 258 c 128,-1,22
 2421 289 2421 289 2445.5 334 c 0,23,24
 2494 423.082 2494 423.082 2494 512.541 c 128,-1,25
 2494 602 2494 602 2460.5 648.5 c 128,-1,26
 2427 695 2427 695 2369 695 c 128,-1,27
 2311 695 2311 695 2271 666 c 128,-1,28
 2231 637 2231 637 2204 593.5 c 128,-1,15
 2177 550 2177 550 2164 499.5 c 128,-1,16
1303 1530 m 1,29,-1
 1507 1530 l 1,30,-1
 680 0 l 1,31,-1
 466 0 l 1,32,-1
 1303 1530 l 1,29,-1
638.5 750 m 128,-1,34
 556 709 556 709 467.5 709 c 128,-1,35
 379 709 379 709 322.5 733.5 c 128,-1,36
 266 758 266 758 228 802 c 0,37,38
 152 890 152 890 152 1045 c 0,39,40
 152 1224.42 152 1224.42 279 1362 c 0,41,42
 411.923 1506 411.923 1506 600 1506 c 0,43,44
 901 1506 901 1506 901 1187 c 0,45,46
 901 998.692 901 998.692 779.5 858.5 c 0,47,33
 721 791 721 791 638.5 750 c 128,-1,34
499.5 874 m 0,48,49
 543 874 543 874 581.5 905 c 128,-1,50
 620 936 620 936 644.5 981 c 0,51,52
 693 1070.08 693 1070.08 693 1159.54 c 128,-1,53
 693 1249 693 1249 659.5 1296 c 128,-1,54
 626 1343 626 1343 568 1343 c 128,-1,55
 510 1343 510 1343 470 1313.5 c 128,-1,56
 430 1284 430 1284 403 1240.5 c 0,57,58
 350 1155.11 350 1155.11 350 1055 c 0,59,60
 350 874 350 874 499.5 874 c 0,48,49
1105 403.5 m 0,61,62
 1105 484 1105 484 1138.5 567 c 128,-1,63
 1172 650 1172 650 1232 715 c 0,64,65
 1364.92 859 1364.92 859 1554 859 c 0,66,67
 1854 859 1854 859 1854 539 c 0,68,69
 1854 350.776 1854 350.776 1733 211 c 0,70,71
 1604.01 62 1604.01 62 1407 62 c 0,72,73
 1261.32 62 1261.32 62 1181 155 c 0,74,75
 1105 243 1105 243 1105 403.5 c 0,61,62
1316 499.5 m 128,-1,77
 1303 449 1303 449 1303 408 c 128,-1,78
 1303 367 1303 367 1312.5 334 c 128,-1,79
 1322 301 1322 301 1340 277 c 0,80,81
 1377.5 227 1377.5 227 1443 227 c 0,82,83
 1569.33 227 1569.33 227 1626 397 c 0,84,85
 1647 460 1647 460 1647 531 c 128,-1,86
 1647 602 1647 602 1613.5 648.5 c 128,-1,87
 1580 695 1580 695 1522 695 c 128,-1,88
 1464 695 1464 695 1423.5 666 c 128,-1,89
 1383 637 1383 637 1356 593.5 c 128,-1,76
 1329 550 1329 550 1316 499.5 c 128,-1,77
EndSplineSet
Ligature2: "'frac' Diagonal Fractions in Latin lookup 10 subtable" zero slash zero zero
EndChar

StartChar: florin
Encoding: 402 402 260
Width: 1059
Flags: HW
LayerCount: 2
Fore
SplineSet
1000 1449 m 1,0,1
 941.5 1488 941.5 1488 888.25 1488 c 128,-1,2
 835 1488 835 1488 807 1480 c 128,-1,3
 779 1472 779 1472 757 1450.5 c 0,4,5
 711.706 1406.24 711.706 1406.24 693 1294 c 2,6,-1
 671 1155 l 1,7,-1
 902 1155 l 1,8,-1
 882 969 l 1,9,-1
 648 969 l 1,10,-1
 471 -356 l 1,11,-1
 198 -356 l 1,12,-1
 376 969 l 1,13,-1
 191 969 l 1,14,-1
 208 1113 l 1,15,-1
 402 1155 l 1,16,-1
 415 1238 l 1,17,18
 442.186 1436.07 442.186 1436.07 575 1558 c 0,19,20
 701.357 1674 701.357 1674 870 1674 c 0,21,22
 987.364 1674 987.364 1674 1037 1653 c 1,23,-1
 1000 1449 l 1,0,1
EndSplineSet
EndChar

StartChar: kgreenlandic
Encoding: 312 312 261
Width: 1133
Flags: HW
LayerCount: 2
Fore
SplineSet
473 630 m 1,0,-1
 475 630 l 1,1,-1
 473 631 l 1,2,3
 678.12 745.17 678.12 745.17 807 995 c 1,4,5
 845.204 1073.53 845.204 1073.53 867 1148 c 1,6,-1
 1137 1148 l 1,7,8
 1121.66 943.456 1121.66 943.456 937.5 755.5 c 0,9,10
 843.471 659.533 843.471 659.533 747 609 c 1,11,-1
 1090 0 l 1,12,-1
 784 0 l 1,13,-1
 473 630 l 1,0,-1
236 1148 m 1,14,-1
 511 1148 l 1,15,-1
 356 0 l 1,16,-1
 80 0 l 1,17,-1
 236 1148 l 1,14,-1
EndSplineSet
EndChar

StartChar: scedilla
Encoding: 351 351 263
Width: 925
Flags: HW
LayerCount: 2
Fore
SplineSet
60 -259 m 1,0,1
 87.8571 -274 87.8571 -274 128.929 -274 c 128,-1,2
 170 -274 170 -274 200.5 -268 c 128,-1,3
 231 -262 231 -262 254 -245.5 c 0,4,5
 304.138 -209.532 304.138 -209.532 306 -122 c 0,6,7
 307 -94 307 -94 307 -65.5 c 128,-1,8
 307 -37 307 -37 305 -14 c 1,9,10
 174.969 -4.92804 174.969 -4.92804 87 28.5 c 0,11,12
 62 38 62 38 50 48 c 1,13,-1
 97 274 l 1,14,15
 166.335 218.532 166.335 218.532 283 191.5 c 0,16,17
 324 182 324 182 364 182 c 0,18,19
 531 182 531 182 531 295 c 0,20,21
 531 366.358 531 366.358 415.5 456 c 0,22,23
 270.386 568.626 270.386 568.626 220.5 646 c 0,24,25
 167 728.98 167 728.98 167 819.99 c 128,-1,26
 167 911 167 911 199 971 c 128,-1,27
 231 1031 231 1031 287 1072 c 0,28,29
 401.732 1156 401.732 1156 588 1156 c 0,30,31
 758.8 1156 758.8 1156 850 1118 c 1,32,-1
 812 877 l 1,33,34
 768.561 925.265 768.561 925.265 665.5 950 c 0,35,36
 628 959 628 959 570.5 959 c 128,-1,37
 513 959 513 959 469.5 931 c 128,-1,38
 426 903 426 903 426 859.5 c 128,-1,39
 426 816 426 816 437.5 791.5 c 128,-1,40
 449 767 449 767 470 744 c 128,-1,41
 491 721 491 721 520.5 697 c 2,42,43
 586 643 l 1,44,45
 691.729 558.898 691.729 558.898 727.864 509.449 c 0,46,47
 797 414.842 797 414.842 797 327.421 c 128,-1,48
 797 240 797 240 772.5 184.5 c 128,-1,49
 748 129 748 129 705.5 90 c 0,50,51
 623.258 14.5311 623.258 14.5311 479 -7 c 1,52,53
 513 -99.2857 513 -99.2857 513 -202 c 0,54,55
 513 -468 513 -468 224 -468 c 0,56,57
 142 -468 142 -468 90 -455 c 128,-1,58
 38 -442 38 -442 29 -436 c 1,59,-1
 60 -259 l 1,0,1
EndSplineSet
Substitution2: "'locl' Localized Forms lookup 7 subtable" uni0219
Substitution2: "'locl' Localized Forms lookup 6 subtable" uni0219
Substitution2: "'aalt' Access All Alternates in Latin lookup 0 subtable" uni0219
EndChar

StartChar: trademark
Encoding: 8482 8482 269
Width: 2120
Flags: HW
LayerCount: 2
Fore
SplineSet
1047 1530 m 1,0,-1
 1340 1530 l 1,1,-1
 1432 1114 l 1,2,-1
 1460 957 l 1,3,-1
 1698 1530 l 1,4,-1
 2000 1530 l 1,5,-1
 1969 734 l 1,6,-1
 1785 734 l 1,7,-1
 1817 1236 l 1,8,-1
 1833 1440 l 1,9,-1
 1513 726 l 1,10,-1
 1361 726 l 1,11,-1
 1232 1274 l 1,12,-1
 1197 1442 l 1,13,-1
 1079 734 l 1,14,-1
 898 734 l 1,15,-1
 1047 1530 l 1,0,-1
422 1373 m 1,16,-1
 176 1373 l 1,17,-1
 201 1530 l 1,18,-1
 867 1530 l 1,19,-1
 848 1373 l 1,20,-1
 603 1373 l 1,21,-1
 512 734 l 1,22,-1
 331 733 l 1,23,-1
 422 1373 l 1,16,-1
EndSplineSet
EndChar

StartChar: estimated
Encoding: 8494 8494 270
Width: 1407
Flags: HW
LayerCount: 2
Fore
SplineSet
1298 832 m 1,0,1
 1298 669.5 1298 669.5 1288 622 c 1,2,-1
 438 622 l 1,3,-1
 438 241 l 1,4,5
 549.516 124 549.516 124 770 124 c 0,6,7
 925.838 124 925.838 124 1078.5 195.5 c 0,8,9
 1118 214 1118 214 1144 231 c 1,10,-1
 1200 99 l 1,11,12
 1092.58 24.1308 1092.58 24.1308 883 -6.5 c 0,13,14
 818 -16 818 -16 755 -16 c 0,15,16
 455.565 -16 455.565 -16 287.5 166.5 c 0,17,18
 120 348.387 120 348.387 120 671 c 0,19,20
 120 976.58 120 976.58 276.5 1158 c 0,21,22
 447.394 1356.11 447.394 1356.11 765.8 1356.11 c 0,23,24
 984.304 1356.11 984.304 1356.11 1132.5 1219 c 0,25,26
 1290.16 1073.14 1290.16 1073.14 1298 832 c 1,0,1
995 1142 m 1,27,28
 906.2 1216 906.2 1216 725.933 1216 c 128,-1,29
 545.667 1216 545.667 1216 438 1097 c 1,30,-1
 438 768 l 1,31,-1
 995 768 l 1,32,-1
 995 1142 l 1,27,28
EndSplineSet
EndChar

StartChar: notequal
Encoding: 8800 8800 271
Width: 1074
Flags: HW
LayerCount: 2
Fore
SplineSet
296 327 m 1,0,-1
 101 327 l 1,1,-1
 129 530 l 1,2,-1
 389 530 l 1,3,-1
 527 828 l 1,4,-1
 164 828 l 1,5,-1
 191 1031 l 1,6,-1
 620 1031 l 1,7,-1
 762 1337 l 1,8,-1
 953 1337 l 1,9,-1
 811 1031 l 1,10,-1
 1019 1031 l 1,11,-1
 991 828 l 1,12,-1
 717 828 l 1,13,-1
 580 530 l 1,14,-1
 956 530 l 1,15,-1
 929 327 l 1,16,-1
 486 327 l 1,17,-1
 335 0 l 1,18,-1
 145 0 l 1,19,-1
 296 327 l 1,0,-1
EndSplineSet
EndChar

StartChar: minute
Encoding: 8242 8242 272
Width: 623
Flags: HW
LayerCount: 2
Fore
SplineSet
377 1782 m 1,0,-1
 632 1782 l 1,1,-1
 438 1190 l 1,2,-1
 250 1190 l 1,3,-1
 377 1782 l 1,0,-1
EndSplineSet
EndChar

StartChar: quotereversed
Encoding: 8219 8219 274
Width: 685
Flags: HW
LayerCount: 2
Fore
SplineSet
416 891 m 1,0,1
 244.337 1032.14 244.337 1032.14 207 1241.5 c 0,2,3
 200 1280.75 200 1280.75 200 1323.12 c 128,-1,4
 200 1365.5 200 1365.5 207.5 1423.25 c 128,-1,5
 215 1481 215 1481 243.5 1540 c 128,-1,6
 272 1599 272 1599 311 1642.5 c 0,7,8
 390.102 1730.73 390.102 1730.73 483 1744 c 1,9,-1
 595 1570 l 1,10,-1
 589 1529 l 1,11,12
 528 1504 528 1504 490 1446.5 c 128,-1,13
 452 1389 452 1389 444 1318 c 1,14,15
 439.586 1290.41 439.586 1290.41 439.586 1266.1 c 128,-1,16
 439.586 1241.79 439.586 1241.79 444.293 1207.4 c 128,-1,17
 449 1173 449 1173 463.5 1133.5 c 0,18,19
 493.394 1052.07 493.394 1052.07 537 1015 c 1,20,-1
 533 993 l 1,21,-1
 416 891 l 1,0,1
EndSplineSet
EndChar

StartChar: OE
Encoding: 338 338 276
Width: 2159
Flags: HW
LayerCount: 2
Fore
SplineSet
1107 227 m 1,0,1
 910.895 -16 910.895 -16 609 -16 c 0,2,3
 359.964 -16 359.964 -16 219 164 c 0,4,5
 86.9583 332.607 86.9583 332.607 86.9583 604.901 c 0,6,7
 86.9583 1000.55 86.9583 1000.55 284.5 1267 c 0,8,9
 415.627 1443.87 415.627 1443.87 610 1512 c 0,10,11
 707 1546 707 1546 818 1546 c 0,12,13
 1117 1546 1117 1546 1249 1282 c 1,14,-1
 1283 1530 l 1,15,-1
 2124 1530 l 1,16,-1
 2102 1314 l 1,17,-1
 1530 1319 l 1,18,-1
 1473 887 l 1,19,-1
 1901 893 l 1,20,-1
 1877 672 l 1,21,-1
 1445 684 l 1,22,-1
 1382 210 l 1,23,-1
 2048 223 l 1,24,-1
 2023 0 l 1,25,-1
 1077 0 l 1,26,-1
 1107 227 l 1,0,1
523.5 216.5 m 0,27,28
 573 193 573 193 637.5 193 c 128,-1,29
 702 193 702 193 757.5 221.5 c 128,-1,30
 813 250 813 250 859 299.5 c 128,-1,31
 905 349 905 349 940.5 417.5 c 0,32,33
 1050.07 628.932 1050.07 628.932 1050.07 895.823 c 0,34,35
 1050.07 1241.57 1050.07 1241.57 898.5 1312 c 0,36,37
 849 1335 849 1335 784.5 1335 c 128,-1,38
 720 1335 720 1335 664.5 1306 c 128,-1,39
 609 1277 609 1277 563 1226.5 c 128,-1,40
 517 1176 517 1176 481.5 1107.5 c 0,41,42
 371.926 896.068 371.926 896.068 371.926 634.741 c 0,43,44
 371.926 288.459 371.926 288.459 523.5 216.5 c 0,27,28
EndSplineSet
EndChar

StartChar: gcommaaccent
Encoding: 291 291 289
Width: 1213
Flags: HW
LayerCount: 2
Fore
SplineSet
731 1243 m 1,0,1
 668.338 1256.29 668.338 1256.29 625.5 1320 c 0,2,3
 585 1380.23 585 1380.23 585 1451.12 c 128,-1,4
 585 1522 585 1522 604 1574 c 128,-1,5
 623 1626 623 1626 653 1665 c 0,6,7
 713.134 1743.17 713.134 1743.17 790 1759 c 1,8,-1
 881 1699 l 1,9,-1
 878 1673 l 1,10,11
 809 1624.44 809 1624.44 809 1534 c 0,12,13
 809 1473.31 809 1473.31 851 1441 c 0,14,15
 864 1431 864 1431 879 1429 c 1,16,-1
 871 1355 l 1,17,-1
 731 1243 l 1,0,1
540.5 1124.5 m 0,18,19
 635 1156 635 1156 744.143 1156 c 128,-1,20
 853.286 1156 853.286 1156 987 1117 c 1,21,-1
 1139 1156 l 1,22,-1
 972 -61 l 1,23,24
 926.029 -372.19 926.029 -372.19 638 -473 c 0,25,26
 529.429 -511 529.429 -511 392 -511 c 0,27,28
 283.143 -511 283.143 -511 210.071 -494.5 c 128,-1,29
 137 -478 137 -478 122 -471 c 1,30,-1
 173 -261 l 1,31,32
 245.303 -302.316 245.303 -302.316 324.151 -317.158 c 128,-1,33
 403 -332 403 -332 453.5 -332 c 128,-1,34
 504 -332 504 -332 545.5 -315.5 c 128,-1,35
 587 -299 587 -299 615.5 -268 c 0,36,37
 666.457 -212.573 666.457 -212.573 690 -97 c 1,38,-1
 745 219 l 1,39,40
 651.094 61.2375 651.094 61.2375 510.5 5 c 0,41,42
 458 -16 458 -16 384.5 -16 c 128,-1,43
 311 -16 311 -16 249.5 16.5 c 128,-1,44
 188 49 188 49 149.5 107 c 0,45,46
 75 219.234 75 219.234 75 414 c 0,47,48
 75 696.306 75 696.306 240.5 912.5 c 0,49,50
 355.611 1062.87 355.611 1062.87 540.5 1124.5 c 0,18,19
362 437 m 0,51,52
 362 182 362 182 478 182 c 0,53,54
 557.667 182 557.667 182 647.5 287 c 0,55,56
 715.704 366.72 715.704 366.72 769 486 c 1,57,-1
 836 967 l 1,58,59
 785 980 785 980 722.5 980 c 128,-1,60
 660 980 660 980 609.5 956.5 c 128,-1,61
 559 933 559 933 519 892.5 c 128,-1,62
 479 852 479 852 449.5 798 c 128,-1,63
 420 744 420 744 400.5 684 c 0,64,65
 362 565.538 362 565.538 362 437 c 0,51,52
EndSplineSet
EndChar

StartChar: macron.cap
Encoding: 65548 -1 313
Width: 617
Flags: HW
LayerCount: 2
Fore
SplineSet
48 1897 m 1,0,-1
 592 1897 l 1,1,-1
 579 1718 l 1,2,-1
 36 1718 l 1,3,-1
 48 1897 l 1,0,-1
EndSplineSet
EndChar

StartChar: hcircumflex
Encoding: 293 293 371
Width: 1256
Flags: HW
LayerCount: 2
Fore
SplineSet
297 1636 m 1,0,-1
 569 1636 l 1,1,-1
 558 1545 l 1,2,-1
 818 1803 l 1,3,-1
 997 1803 l 1,4,-1
 1198 1463 l 1,5,-1
 1079 1390 l 1,6,-1
 882 1590 l 1,7,-1
 582 1385 l 1,8,-1
 541 1411 l 1,9,-1
 505 1116 l 1,10,-1
 470 917 l 1,11,12
 594.867 1084.58 594.867 1084.58 765.5 1138 c 0,13,14
 823 1156 823 1156 883 1156 c 256,15,16
 1070.21 1156 1070.21 1156 1116.5 997.5 c 0,17,18
 1133 941 1133 941 1133 890.5 c 128,-1,19
 1133 840 1133 840 1130 805.5 c 128,-1,20
 1127 771 1127 771 1121.5 726 c 128,-1,21
 1116 681 1116 681 1108.5 627 c 0,22,23
 1087.63 473.48 1087.63 473.48 1075.81 393.74 c 2,24,-1
 1018 0 l 1,25,-1
 742 0 l 1,26,-1
 796.5 384 l 2,27,28
 806 450 806 450 817 531 c 0,29,30
 857.28 827.611 857.28 827.611 842.5 876.5 c 0,31,32
 826.023 931 826.023 931 755 931 c 0,33,34
 687.254 931 687.254 931 599 867.5 c 0,35,36
 512.516 805.273 512.516 805.273 451 713 c 1,37,-1
 354 0 l 1,38,-1
 83 0 l 1,39,-1
 297 1636 l 1,0,-1
EndSplineSet
EndChar

StartChar: lozenge
Encoding: 9674 9674 388
Width: 1275
Flags: HW
LayerCount: 2
Fore
SplineSet
68 765 m 1,0,-1
 68 778 l 1,1,-1
 643 1533 l 1,2,-1
 647 1533 l 1,3,-1
 1222 778 l 1,4,-1
 1222 765 l 1,5,-1
 647 -1 l 1,6,-1
 642 -1 l 1,7,-1
 68 765 l 1,0,-1
646 354 m 1,8,-1
 942 771 l 1,9,-1
 942 774 l 1,10,-1
 646 1171 l 1,11,-1
 643 1171 l 1,12,-1
 348 774 l 1,13,-1
 348 769 l 1,14,-1
 643 354 l 1,15,-1
 646 354 l 1,8,-1
EndSplineSet
EndChar

StartChar: Scedilla
Encoding: 350 350 393
Width: 1057
Flags: HW
LayerCount: 2
Fore
SplineSet
131 -259 m 1,0,1
 158.857 -274 158.857 -274 199.929 -274 c 128,-1,2
 241 -274 241 -274 271.5 -268 c 128,-1,3
 302 -262 302 -262 325 -245.5 c 0,4,5
 375.138 -209.532 375.138 -209.532 377 -122 c 0,6,7
 378 -95 378 -95 378 -67 c 128,-1,8
 378 -39 378 -39 376 -15 c 1,9,10
 206.248 -9.14649 206.248 -9.14649 70.5 48.5 c 0,11,12
 34 64 34 64 18 78 c 1,13,-1
 106 302 l 1,14,15
 174.258 240.927 174.258 240.927 320.5 212 c 0,16,17
 366 203 366 203 416.5 203 c 128,-1,18
 467 203 467 203 515 215 c 128,-1,19
 563 227 563 227 597.5 251 c 0,20,21
 670 301.435 670 301.435 670 397 c 0,22,23
 670 474.875 670 474.875 636.5 520.938 c 0,24,25
 582.252 595.529 582.252 595.529 467 677 c 0,26,27
 340.012 766.639 340.012 766.639 286.506 837.319 c 0,28,29
 181.973 975.406 181.973 975.406 181.973 1118.44 c 0,30,31
 181.973 1313.73 181.973 1313.73 319 1430 c 0,32,33
 455.714 1546 455.714 1546 681 1546 c 0,34,35
 917.643 1546 917.643 1546 1033 1461 c 1,36,-1
 946 1245 l 1,37,38
 884.75 1306.25 884.75 1306.25 753.5 1325.5 c 0,39,40
 716 1331 716 1331 676 1331 c 128,-1,41
 636 1331 636 1331 594.5 1321.5 c 128,-1,42
 553 1312 553 1312 521.5 1291 c 0,43,44
 449.742 1243.16 449.742 1243.16 449.742 1147.77 c 0,45,46
 449.742 1031.39 449.742 1031.39 569 933 c 0,47,48
 609 900 609 900 660 863 c 128,-1,49
 711 826 711 826 763 783.5 c 128,-1,50
 815 741 815 741 857 689.5 c 0,51,52
 952.23 572.73 952.23 572.73 953.115 458.865 c 128,-1,53
 954 345 954 345 925 269.5 c 128,-1,54
 896 194 896 194 843 138.5 c 0,55,56
 736.225 26.6889 736.225 26.6889 548 -4 c 1,57,58
 584 -95.2 584 -95.2 584 -202 c 0,59,60
 584 -468 584 -468 295 -468 c 0,61,62
 213 -468 213 -468 161 -455 c 128,-1,63
 109 -442 109 -442 100 -436 c 1,64,-1
 131 -259 l 1,0,1
EndSplineSet
Substitution2: "'locl' Localized Forms lookup 7 subtable" uni0218
Substitution2: "'locl' Localized Forms lookup 6 subtable" uni0218
Substitution2: "'aalt' Access All Alternates in Latin lookup 0 subtable" uni0218
EndChar

StartChar: uni0162
Encoding: 354 354 396
Width: 1144
Flags: HW
LayerCount: 2
Fore
SplineSet
144 -259 m 1,0,1
 171.857 -274 171.857 -274 212.929 -274 c 128,-1,2
 254 -274 254 -274 284.5 -268 c 128,-1,3
 315 -262 315 -262 338 -245.5 c 0,4,5
 388.138 -209.532 388.138 -209.532 390 -122 c 0,6,7
 390.667 -100.667 390.667 -100.667 390.667 -66.9999 c 128,-1,8
 390.667 -33.3332 390.667 -33.3332 388 0 c 1,9,-1
 354 0 l 1,10,-1
 532 1325 l 1,11,-1
 139 1314 l 1,12,-1
 172 1530 l 1,13,-1
 1227 1530 l 1,14,-1
 1197 1314 l 1,15,-1
 811 1325 l 1,16,-1
 633 0 l 1,17,-1
 560 0 l 1,18,19
 597 -87.875 597 -87.875 597 -202 c 0,20,21
 597 -468 597 -468 308 -468 c 0,22,23
 226 -468 226 -468 174 -455 c 128,-1,24
 122 -442 122 -442 113 -436 c 1,25,-1
 144 -259 l 1,0,1
EndSplineSet
Substitution2: "'locl' Localized Forms lookup 7 subtable" uni021A
Substitution2: "'aalt' Access All Alternates in Latin lookup 0 subtable" uni021A
EndChar

StartChar: uni0163
Encoding: 355 355 397
Width: 790
Flags: HW
LayerCount: 2
Fore
SplineSet
-5 -259 m 1,0,1
 22.8571 -274 22.8571 -274 63.9286 -274 c 128,-1,2
 105 -274 105 -274 135.5 -268 c 128,-1,3
 166 -262 166 -262 189 -245.5 c 0,4,5
 239.138 -209.532 239.138 -209.532 241 -122 c 0,6,7
 241.667 -100.667 241.667 -100.667 241.667 -84 c 0,8,9
 241.667 -30.3334 241.667 -30.3334 239 3 c 1,10,11
 139 48.6522 139 48.6522 139 179 c 0,12,13
 139 229.7 139 229.7 156 347 c 1,14,-1
 234 954 l 1,15,-1
 134 954 l 1,16,-1
 173 1140 l 1,17,-1
 278 1140 l 1,18,-1
 358 1418 l 1,19,-1
 574 1418 l 1,20,-1
 537 1140 l 1,21,-1
 779 1140 l 1,22,-1
 756 954 l 1,23,-1
 512 954 l 1,24,-1
 428 325 l 2,25,26
 424 295 424 295 424 268 c 0,27,28
 424 182 424 182 487 182 c 0,29,30
 539.968 182 539.968 182 639.5 242.5 c 0,31,32
 665 258 665 258 681 272 c 1,33,-1
 720 133 l 1,34,35
 639.549 56.3798 639.549 56.3798 510.5 11 c 0,36,37
 465 -5 465 -5 416 -12 c 1,38,39
 448 -98.8571 448 -98.8571 448 -202 c 0,40,41
 448 -468 448 -468 159 -468 c 0,42,43
 77 -468 77 -468 25 -455 c 128,-1,44
 -27 -442 -27 -442 -36 -436 c 1,45,-1
 -5 -259 l 1,0,1
EndSplineSet
Substitution2: "'locl' Localized Forms lookup 7 subtable" uni021B
Substitution2: "'aalt' Access All Alternates in Latin lookup 0 subtable" uni021B
EndChar

StartChar: lacute
Encoding: 314 314 413
Width: 625
Flags: HW
LayerCount: 2
Fore
SplineSet
312 1526 m 1,0,-1
 589 1526 l 1,1,-1
 380 0 l 1,2,-1
 104 0 l 1,3,-1
 312 1526 l 1,0,-1
359 1665 m 1,4,-1
 636 2007 l 1,5,-1
 803 1850 l 1,6,7
 765.234 1778.06 765.234 1778.06 649.5 1685 c 0,8,9
 543.189 1599.51 543.189 1599.51 467 1572 c 1,10,-1
 359 1665 l 1,4,-1
EndSplineSet
EndChar

StartChar: iogonek
Encoding: 303 303 414
Width: 653
Flags: HW
LayerCount: 2
Fore
SplineSet
543.5 1365 m 128,-1,1
 510 1351 510 1351 474.5 1351 c 128,-1,2
 439 1351 439 1351 412.5 1362 c 128,-1,3
 386 1373 386 1373 366.5 1392.5 c 0,4,5
 324.032 1434.97 324.032 1434.97 325.516 1481.98 c 128,-1,6
 327 1529 327 1529 341 1560 c 128,-1,7
 355 1591 355 1591 378.5 1614.5 c 0,8,9
 430 1666 430 1666 503 1666 c 0,10,11
 607.882 1666 607.882 1666 643.5 1579.5 c 0,12,13
 653.087 1556.22 653.087 1556.22 653.087 1524.38 c 128,-1,14
 653.087 1492.54 653.087 1492.54 639.043 1459.77 c 128,-1,15
 625 1427 625 1427 601 1403 c 128,-1,0
 577 1379 577 1379 543.5 1365 c 128,-1,1
396 -364 m 1,16,17
 284.578 -473 284.578 -473 109 -473 c 0,18,19
 15.2653 -473 15.2653 -473 -42.5 -417.5 c 0,20,21
 -94 -368.02 -94 -368.02 -94 -307.01 c 128,-1,22
 -94 -246 -94 -246 -65.5 -198.5 c 128,-1,23
 -37 -151 -37 -151 4 -112 c 0,24,25
 71.5946 -47.7027 71.5946 -47.7027 167 0 c 1,26,-1
 113 0 l 1,27,-1
 269 1140 l 1,28,-1
 546 1140 l 1,29,-1
 389 0 l 1,30,-1
 370 0 l 1,31,32
 220.672 -80.4075 220.672 -80.4075 164.5 -158.5 c 0,33,34
 144 -187 144 -187 144 -213 c 0,35,36
 144 -282 144 -282 210.906 -282 c 128,-1,37
 277.812 -282 277.812 -282 350 -227 c 1,38,-1
 396 -364 l 1,16,17
EndSplineSet
EndChar

StartChar: uogonek
Encoding: 371 371 415
Width: 1237
Flags: HW
LayerCount: 2
Fore
SplineSet
383 -20 m 0,0,1
 112 -20 112 -20 112 253 c 0,2,3
 111.9 258.2 111.9 258.2 111.9 285.5 c 0,4,5
 111.9 328.864 111.9 328.864 127.45 448.432 c 0,6,7
 154.232 653.577 154.232 653.577 162.616 712.788 c 2,8,9
 223 1140 l 1,10,-1
 497 1140 l 1,11,12
 463.031 889.312 463.031 889.312 455.516 829.656 c 2,13,-1
 418 543 l 1,14,15
 395 382 395 382 395 312 c 128,-1,16
 395 242 395 242 422.5 217.5 c 128,-1,17
 450 193 450 193 491 193 c 128,-1,18
 532 193 532 193 570 211.5 c 128,-1,19
 608 230 608 230 645.5 261 c 0,20,21
 716.376 319.591 716.376 319.591 779 418 c 1,22,-1
 877 1140 l 1,23,-1
 1153 1140 l 1,24,-1
 1000 0 l 1,25,-1
 985 0 l 1,26,27
 835.672 -80.4075 835.672 -80.4075 779.5 -158.5 c 0,28,29
 759 -187 759 -187 759 -213 c 0,30,31
 759 -282 759 -282 825.906 -282 c 128,-1,32
 892.812 -282 892.812 -282 965 -227 c 1,33,-1
 1011 -364 l 1,34,35
 899.578 -473 899.578 -473 724 -473 c 0,36,37
 630.265 -473 630.265 -473 572.5 -417.5 c 0,38,39
 521 -368.02 521 -368.02 521 -307.01 c 128,-1,40
 521 -246 521 -246 549.5 -198.5 c 128,-1,41
 578 -151 578 -151 619 -112 c 0,42,43
 686.595 -47.7027 686.595 -47.7027 782 0 c 1,44,-1
 750 0 l 1,45,-1
 763 205 l 1,46,47
 651.834 48.673 651.834 48.673 497 -2 c 0,48,49
 442 -20 442 -20 383 -20 c 0,0,1
EndSplineSet
EndChar

StartChar: Iogonek
Encoding: 302 302 417
Width: 643
Flags: HW
LayerCount: 2
Fore
SplineSet
348 -364 m 1,0,1
 236.578 -473 236.578 -473 61 -473 c 0,2,3
 -32.7347 -473 -32.7347 -473 -90.5 -417.5 c 0,4,5
 -142 -368.02 -142 -368.02 -142 -307.01 c 128,-1,6
 -142 -246 -142 -246 -113.5 -198.5 c 128,-1,7
 -85 -151 -85 -151 -44 -112 c 0,8,9
 23.5946 -47.7027 23.5946 -47.7027 119 0 c 1,10,-1
 113 0 l 1,11,-1
 319 1530 l 1,12,-1
 595 1530 l 1,13,-1
 389 0 l 1,14,-1
 322 0 l 1,15,16
 172.672 -80.4075 172.672 -80.4075 116.5 -158.5 c 0,17,18
 96 -187 96 -187 96 -213 c 0,19,20
 96 -282 96 -282 162.906 -282 c 128,-1,21
 229.812 -282 229.812 -282 302 -227 c 1,22,-1
 348 -364 l 1,0,1
EndSplineSet
EndChar

StartChar: Uogonek
Encoding: 370 370 418
Width: 1408
Flags: HW
LayerCount: 2
Fore
SplineSet
714 -12 m 1,0,1
 668 -16 668 -16 582 -16 c 128,-1,2
 496 -16 496 -16 406.5 15 c 128,-1,3
 317 46 317 46 257.5 103.5 c 0,4,5
 136.8 220.143 136.8 220.143 136.8 445.66 c 0,6,7
 136.8 496 136.8 496 150 595 c 2,8,-1
 275 1530 l 1,9,-1
 551 1530 l 1,10,-1
 431 635 l 2,11,12
 419 540.714 419 540.714 420 427.357 c 0,13,14
 422.006 199.999 422.006 199.999 659 200 c 0,15,16
 803.087 200 803.087 200 880.5 297 c 0,17,18
 961.484 398.474 961.484 398.474 995 639 c 1,19,-1
 1114 1530 l 1,20,-1
 1387 1530 l 1,21,-1
 1265 612 l 2,22,23
 1217.52 258.889 1217.52 258.889 1047.5 114 c 0,24,25
 990 65 990 65 918 35 c 1,26,-1
 846.5 -31 l 1,27,28
 713 -159.014 713 -159.014 713 -213 c 0,29,30
 713 -282 713 -282 778 -282 c 0,31,32
 847.812 -282 847.812 -282 920 -227 c 1,33,-1
 966 -364 l 1,34,35
 852.156 -473 852.156 -473 679 -473 c 0,36,37
 585.265 -473 585.265 -473 527.5 -417.5 c 0,38,39
 476 -368.02 476 -368.02 476 -310.01 c 128,-1,40
 476 -252 476 -252 500.5 -208 c 128,-1,41
 525 -164 525 -164 561 -127 c 0,42,43
 623.906 -62.3467 623.906 -62.3467 714 -12 c 1,0,1
EndSplineSet
EndChar

StartChar: Hbar
Encoding: 294 294 419
Width: 1461
Flags: HW
LayerCount: 2
Fore
SplineSet
226 958 m 1,0,-1
 26 958 l 1,1,-1
 45 1158 l 1,2,-1
 253 1158 l 1,3,-1
 303 1530 l 1,4,-1
 579 1530 l 1,5,-1
 529 1158 l 1,6,-1
 1097 1158 l 1,7,-1
 1147 1530 l 1,8,-1
 1425 1530 l 1,9,-1
 1375 1158 l 1,10,-1
 1577 1158 l 1,11,-1
 1557 958 l 1,12,-1
 1348 958 l 1,13,-1
 1219 0 l 1,14,-1
 941 0 l 1,15,-1
 1010 517 l 1,16,-1
 442 517 l 1,17,-1
 373 0 l 1,18,-1
 97 0 l 1,19,-1
 226 958 l 1,0,-1
1037 717 m 1,20,-1
 1070 958 l 1,21,-1
 502 958 l 1,22,-1
 469 717 l 1,23,-1
 1037 717 l 1,20,-1
EndSplineSet
EndChar

StartChar: Tbar
Encoding: 358 358 422
Width: 1144
Flags: HW
LayerCount: 2
Fore
SplineSet
445 679 m 1,0,-1
 196 679 l 1,1,-1
 219 869 l 1,2,-1
 470 869 l 1,3,-1
 532 1325 l 1,4,-1
 139 1314 l 1,5,-1
 172 1530 l 1,6,-1
 1227 1530 l 1,7,-1
 1197 1314 l 1,8,-1
 811 1325 l 1,9,-1
 749 869 l 1,10,-1
 1008 869 l 1,11,-1
 985 679 l 1,12,-1
 724 679 l 1,13,-1
 633 0 l 1,14,-1
 354 0 l 1,15,-1
 445 679 l 1,0,-1
EndSplineSet
EndChar

StartChar: tbar
Encoding: 359 359 423
Width: 790
Flags: HW
LayerCount: 2
Fore
SplineSet
424 268 m 0,0,1
 424 182 424 182 487 182 c 0,2,3
 539.968 182 539.968 182 639.5 242.5 c 0,4,5
 665 258 665 258 681 272 c 1,6,-1
 720 133 l 1,7,8
 622.378 39.4455 622.378 39.4455 462.5 -3 c 0,9,10
 406 -18 406 -18 354 -18 c 128,-1,11
 302 -18 302 -18 263.5 -6.5 c 128,-1,12
 225 5 225 5 197.5 29 c 0,13,14
 139 80.0546 139 80.0546 139 179 c 0,15,16
 139 229.7 139 229.7 156 347 c 1,17,-1
 191 621 l 1,18,-1
 99 621 l 1,19,-1
 115 751 l 1,20,-1
 208 751 l 1,21,-1
 234 954 l 1,22,-1
 134 954 l 1,23,-1
 173 1140 l 1,24,-1
 278 1140 l 1,25,-1
 358 1418 l 1,26,-1
 574 1418 l 1,27,-1
 537 1140 l 1,28,-1
 779 1140 l 1,29,-1
 756 954 l 1,30,-1
 512 954 l 1,31,-1
 485 751 l 1,32,-1
 697 751 l 1,33,-1
 681 621 l 1,34,-1
 467 621 l 1,35,-1
 428 325 l 2,36,37
 424 295 424 295 424 268 c 0,0,1
EndSplineSet
EndChar

StartChar: dcroat
Encoding: 273 273 425
Width: 1218
Flags: HW
LayerCount: 2
Fore
SplineSet
540.5 1124.5 m 0,0,1
 635 1156 635 1156 719.5 1156 c 128,-1,2
 804 1156 804 1156 862 1146 c 1,3,-1
 878 1262 l 1,4,-1
 635 1262 l 1,5,-1
 651 1392 l 1,6,-1
 895 1392 l 1,7,-1
 929 1636 l 1,8,-1
 1199 1636 l 1,9,-1
 1166 1392 l 1,10,-1
 1313 1392 l 1,11,-1
 1297 1262 l 1,12,-1
 1149 1262 l 1,13,-1
 983 0 l 1,14,-1
 736 0 l 1,15,-1
 751 230 l 1,16,17
 661.623 66.1428 661.623 66.1428 514 6 c 0,18,19
 460 -16 460 -16 385.5 -16 c 128,-1,20
 311 -16 311 -16 249.5 16.5 c 128,-1,21
 188 49 188 49 149.5 107 c 0,22,23
 75 219.234 75 219.234 75 414 c 0,24,25
 75 696.306 75 696.306 240.5 912.5 c 0,26,27
 355.611 1062.87 355.611 1062.87 540.5 1124.5 c 0,0,1
362 437 m 0,28,29
 362 182 362 182 478 182 c 0,30,31
 560 182 560 182 651 290.5 c 0,32,33
 718.459 370.932 718.459 370.932 773 493 c 1,34,-1
 837 962 l 1,35,36
 780.75 980 780.75 980 720.375 980 c 128,-1,37
 660 980 660 980 609.5 956.5 c 128,-1,38
 559 933 559 933 519 892.5 c 128,-1,39
 479 852 479 852 449.5 798 c 128,-1,40
 420 744 420 744 400.5 684 c 0,41,42
 362 565.538 362 565.538 362 437 c 0,28,29
EndSplineSet
EndChar

StartChar: hbar
Encoding: 295 295 426
Width: 1256
Flags: HW
LayerCount: 2
Fore
SplineSet
248 1262 m 1,0,-1
 129 1262 l 1,1,-1
 145 1392 l 1,2,-1
 265 1392 l 1,3,-1
 297 1636 l 1,4,-1
 569 1636 l 1,5,-1
 539 1392 l 1,6,-1
 777 1392 l 1,7,-1
 761 1262 l 1,8,-1
 523 1262 l 1,9,-1
 505 1116 l 1,10,-1
 470 917 l 1,11,12
 594.867 1084.58 594.867 1084.58 765.5 1138 c 0,13,14
 823 1156 823 1156 883 1156 c 256,15,16
 1070.21 1156 1070.21 1156 1116.5 997.5 c 0,17,18
 1133 941 1133 941 1133 890.5 c 128,-1,19
 1133 840 1133 840 1130 805.5 c 128,-1,20
 1127 771 1127 771 1121.5 726 c 128,-1,21
 1116 681 1116 681 1108.5 627 c 0,22,23
 1087.63 473.48 1087.63 473.48 1075.81 393.74 c 2,24,-1
 1018 0 l 1,25,-1
 742 0 l 1,26,-1
 796.5 384 l 2,27,28
 806 450 806 450 817 531 c 0,29,30
 857.28 827.611 857.28 827.611 842.5 876.5 c 0,31,32
 826.023 931 826.023 931 755 931 c 0,33,34
 687.254 931 687.254 931 599 867.5 c 0,35,36
 512.516 805.273 512.516 805.273 451 713 c 1,37,-1
 354 0 l 1,38,-1
 83 0 l 1,39,-1
 248 1262 l 1,0,-1
EndSplineSet
EndChar

StartChar: eng
Encoding: 331 331 427
Width: 1258
Flags: HW
LayerCount: 2
Fore
SplineSet
405 -385 m 1,0,1
 433 -397 433 -397 487.5 -397 c 128,-1,2
 542 -397 542 -397 587.5 -364.5 c 128,-1,3
 633 -332 633 -332 664.5 -274.5 c 0,4,5
 718.567 -175.807 718.567 -175.807 750 33 c 0,6,7
 782.727 243.909 782.727 243.909 793.864 323.455 c 2,8,-1
 815 475 l 2,9,10
 862.535 817.25 862.535 817.25 846 876.5 c 0,11,12
 830.791 931 830.791 931 758 931 c 0,13,14
 689.833 931 689.833 931 601 866 c 0,15,16
 513.761 802.166 513.761 802.166 453 709 c 1,17,-1
 356 0 l 1,18,-1
 80 0 l 1,19,-1
 235 1140 l 1,20,-1
 498 1140 l 1,21,-1
 482 926 l 1,22,23
 607.372 1087.66 607.372 1087.66 771.5 1138.5 c 0,24,25
 828 1156 828 1156 887.5 1156 c 128,-1,26
 947 1156 947 1156 993.5 1140 c 128,-1,27
 1040 1124 1040 1124 1071.5 1089 c 0,28,29
 1136 1017.33 1136 1017.33 1136 860 c 0,30,31
 1136 776.167 1136 776.167 1110 593.083 c 0,32,33
 1061.41 253.485 1061.41 253.485 1047.21 162.242 c 2,34,-1
 1022 0 l 1,35,36
 975.267 -286.239 975.267 -286.239 854 -408.5 c 0,37,38
 740.431 -523 740.431 -523 536 -523 c 0,39,40
 448 -523 448 -523 412 -509 c 128,-1,41
 376 -495 376 -495 368 -486 c 1,42,-1
 405 -385 l 1,0,1
EndSplineSet
EndChar

StartChar: Eng
Encoding: 330 330 428
Width: 1514
Flags: HW
LayerCount: 2
Fore
SplineSet
652 -257 m 1,0,1
 900.427 -164.303 900.427 -164.303 955 33 c 1,2,-1
 567 954 l 1,3,-1
 491 1208 l 1,4,-1
 479 921 l 1,5,-1
 359 0 l 1,6,-1
 97 0 l 1,7,-1
 303 1530 l 1,8,-1
 560 1530 l 1,9,-1
 958 603 l 1,10,-1
 1029 370 l 1,11,-1
 1045 624 l 1,12,-1
 1155 1530 l 1,13,-1
 1420 1530 l 1,14,-1
 1214 0 l 1,15,-1
 1212 0 l 1,16,17
 1143.83 -226.199 1143.83 -226.199 885.5 -322.5 c 0,18,19
 801 -354 801 -354 698 -365 c 1,20,-1
 652 -257 l 1,0,1
EndSplineSet
EndChar

StartChar: Aring
Encoding: 197 197 431
Width: 1305
Flags: HW
LayerCount: 2
Fore
SplineSet
1152 1758 m 0,0,1
 1152 1578.51 1152 1578.51 982 1505 c 1,2,-1
 1235 0 l 1,3,-1
 958 -1 l 1,4,-1
 910 341 l 1,5,-1
 349 341 l 1,6,-1
 201 0 l 1,7,-1
 -100 -1 l 1,8,-1
 629 1500 l 1,9,10
 492 1560.2 492 1560.2 492 1718 c 256,11,12
 492 1861.64 492 1861.64 617 1941.5 c 0,13,14
 719.522 2007 719.522 2007 861 2007 c 0,15,16
 1065.08 2007 1065.08 2007 1130.5 1865.5 c 0,17,18
 1152 1819 1152 1819 1152 1758 c 0,0,1
806 1592 m 0,19,20
 983 1592 983 1592 983 1753 c 0,21,22
 983 1841.54 983 1841.54 896 1875 c 0,23,24
 870 1885 870 1885 839.5 1885 c 128,-1,25
 809 1885 809 1885 777 1877.5 c 128,-1,26
 745 1870 745 1870 719 1852 c 0,27,28
 660 1811.15 660 1811.15 660 1727 c 0,29,30
 660 1670.6 660 1670.6 704 1631 c 0,31,32
 747.333 1592 747.333 1592 806 1592 c 0,19,20
882 537 m 1,33,-1
 787 1219 l 1,34,-1
 777 1337 l 1,35,-1
 730 1216 l 1,36,-1
 434 537 l 1,37,-1
 882 537 l 1,33,-1
EndSplineSet
EndChar

StartChar: uni02c9
Encoding: 713 713 440
Width: 617
Flags: HW
LayerCount: 2
Fore
SplineSet
55 1897 m 1,0,-1
 598 1897 l 1,1,-1
 596 1718 l 1,2,-1
 53 1718 l 1,3,-1
 55 1897 l 1,0,-1
EndSplineSet
EndChar

StartChar: uni2113
Encoding: 8467 8467 441
Width: 1301
Flags: HW
LayerCount: 2
Fore
SplineSet
555 285 m 1,0,1
 597.791 193 597.791 193 683 193 c 256,2,3
 818.276 193 818.276 193 900.5 351 c 0,4,5
 926 400 926 400 941 459 c 1,6,-1
 1153 396 l 1,7,8
 1113.93 281.404 1113.93 281.404 1075.97 222.202 c 128,-1,9
 1038 163 1038 163 999 121 c 128,-1,10
 960 79 960 79 908.5 47 c 0,11,12
 797.453 -22 797.453 -22 648 -22 c 0,13,14
 576 -22 576 -22 503.5 16.5 c 128,-1,15
 431 55 431 55 375 136 c 1,16,17
 275 62.6667 275 62.6667 223 28 c 1,18,-1
 23 162 l 1,19,-1
 156 259.5 l 1,20,21
 222 310 222 310 286 365 c 1,22,23
 271 444 271 444 271 554.5 c 128,-1,24
 271 665 271 665 291 797 c 128,-1,25
 311 929 311 929 349 1054 c 128,-1,26
 387 1179 387 1179 442 1290 c 128,-1,27
 497 1401 497 1401 568 1484.5 c 0,28,29
 721.479 1665 721.479 1665 908 1665 c 0,30,31
 1029 1665 1029 1665 1094.5 1588 c 128,-1,32
 1160 1511 1160 1511 1160.5 1372 c 128,-1,33
 1161 1233 1161 1233 1116.5 1090 c 128,-1,34
 1072 947 1072 947 992 808 c 0,35,36
 835.634 536.314 835.634 536.314 555 285 c 1,0,1
516 581 m 1,37,38
 915.033 1002.97 915.033 1002.97 915.033 1332.96 c 0,39,40
 915.033 1432 915.033 1432 854 1432 c 0,41,42
 742.066 1432 742.066 1432 632.5 1150.5 c 0,43,44
 525.18 874.771 525.18 874.771 516 581 c 1,37,38
EndSplineSet
EndChar

StartChar: uni2215
Encoding: 8725 8725 442
Width: 854
Flags: HW
LayerCount: 2
Fore
SplineSet
-118 -362 m 1,0,-1
 744 1597 l 1,1,-1
 968 1597 l 1,2,-1
 105 -362 l 1,3,-1
 -118 -362 l 1,0,-1
EndSplineSet
EndChar

StartChar: hyphen
Encoding: 45 45 447
Width: 1266
Flags: HW
LayerCount: 2
Fore
SplineSet
248 874 m 1,0,-1
 1087 874 l 1,1,-1
 1059 671 l 1,2,-1
 221 671 l 1,3,-1
 248 874 l 1,0,-1
EndSplineSet
EndChar

StartChar: minus
Encoding: 8722 8722 448
Width: 1266
Flags: HW
LayerCount: 2
Fore
SplineSet
248 874 m 1,0,-1
 1087 874 l 1,1,-1
 1059 671 l 1,2,-1
 221 671 l 1,3,-1
 248 874 l 1,0,-1
EndSplineSet
EndChar

